<svg xmlns="http://www.w3.org/2000/svg" width="48" height="34" viewBox="0 0 48 34" fill="none">
  <path fill-rule="evenodd" clip-rule="evenodd" d="M47.8804 16.02C47.7404 13.62 47.5004 11.2 47.1604 8.87996C47.0149 7.20902 46.6863 5.55912 46.1804 3.95996C45.9041 3.09168 45.3397 2.34377 44.5804 1.83996C43.6964 1.39815 42.7421 1.11389 41.7604 0.999961C40.402 0.810585 39.032 0.71702 37.6604 0.719961C34.4404 0.599961 32.4204 0.459961 30.1204 0.459961C28.6604 0.459961 27.1004 0.459961 25.0604 0.639961C21.0604 0.899961 16.8404 1.13996 12.7004 1.65996C9.94091 1.92804 7.20177 2.37565 4.50044 2.99996C4.41309 3.01371 4.32954 3.04541 4.25505 3.09306C4.18057 3.14071 4.11676 3.20328 4.06766 3.27682C4.01856 3.35036 3.98524 3.43328 3.96979 3.52034C3.95433 3.60741 3.95709 3.69673 3.97789 3.78268C3.99868 3.86862 4.03706 3.94933 4.0906 4.0197C4.14414 4.09007 4.21168 4.14859 4.28897 4.19155C4.36625 4.23452 4.4516 4.261 4.53964 4.26933C4.62767 4.27766 4.71647 4.26766 4.80044 4.23996C7.43701 3.62915 10.1088 3.18163 12.8004 2.89996C16.9204 2.45996 21.1004 2.29996 25.1004 2.09996C27.1004 2.09996 28.6204 1.97996 30.0404 2.09996C32.3204 2.09996 34.3404 2.31996 37.5204 2.47996C38.8128 2.5012 40.1023 2.6081 41.3804 2.79996C42.1508 2.91872 42.8949 3.16903 43.5804 3.53996C44.0774 3.98652 44.3969 4.59711 44.4804 5.25996C44.7827 6.57671 44.9899 7.91349 45.1004 9.25996C45.4004 11.54 45.6004 13.9 45.7004 16.26C45.8004 18.62 45.8404 20.96 45.7004 23.26C45.6764 24.6168 45.4609 25.9634 45.0604 27.26C44.8054 28.0126 44.3812 28.6968 43.8204 29.26C43.3456 29.6475 42.7694 29.8904 42.1604 29.96C40.9404 30.2 39.5604 30.14 38.5604 30.26C37.5604 30.38 36.5604 30.42 35.8004 30.44C33.6204 30.44 32.2204 30.44 29.1004 30.68C25.9804 30.92 23.1004 31.26 20.0604 31.44C17.0204 31.62 14.0604 31.76 11.0204 31.76C9.5291 31.8689 8.03179 31.8689 6.54044 31.76C5.64527 31.6719 4.7827 31.3775 4.02044 30.9C3.50057 30.3892 3.16322 29.7215 3.06044 29C2.7309 27.6843 2.49035 26.3479 2.34044 25C1.80158 21.583 1.46765 18.1368 1.34044 14.68C1.2025 11.2558 1.32284 7.82606 1.70044 4.41996C1.71165 4.34482 1.70745 4.26818 1.68809 4.19471C1.66874 4.12124 1.63464 4.05247 1.58786 3.9926C1.54109 3.93273 1.48262 3.883 1.41602 3.84645C1.34941 3.80989 1.27607 3.78727 1.20044 3.77996C1.12638 3.76872 1.05079 3.773 0.978477 3.79255C0.906162 3.8121 0.838705 3.84647 0.780394 3.8935C0.722083 3.94052 0.674194 3.99917 0.639771 4.0657C0.605348 4.13223 0.585144 4.2052 0.580444 4.27996C0.123788 7.76714 -0.0700917 11.2837 0.000444213 14.8C0.0501552 18.3205 0.324043 21.8343 0.820444 25.32C0.948032 26.9672 1.24971 28.5963 1.72044 30.18C1.99913 30.9707 2.49892 31.6649 3.16044 32.18C4.12776 32.8212 5.2294 33.2317 6.38044 33.38C7.94786 33.5471 9.52485 33.6072 11.1004 33.56C14.1404 33.56 17.2004 33.56 20.2604 33.4C23.3204 33.24 26.2604 33.04 29.3804 32.76C32.5004 32.48 33.8004 32.64 35.9604 32.56C36.7604 32.56 37.7004 32.56 38.8604 32.36C40.3648 32.3454 41.8645 32.1914 43.3404 31.9C44.0881 31.6944 44.7745 31.31 45.3404 30.78C46.1444 29.9476 46.7465 28.9417 47.1004 27.84C47.6173 26.3502 47.9203 24.7948 48.0004 23.22C48.0004 20.86 48.0004 18.44 47.8804 16.02Z" fill="#C8C8C8"/>
  <path fill-rule="evenodd" clip-rule="evenodd" d="M11.1002 12.62C11.6469 11.9667 12.2069 11.3 12.7802 10.62C13.3527 10.0354 13.9677 9.49389 14.6202 9.00004C14.7332 8.90293 14.8061 8.76722 14.8246 8.61934C14.8431 8.47146 14.8059 8.32199 14.7202 8.20004C14.6124 8.09733 14.4691 8.04004 14.3202 8.04004C14.1713 8.04004 14.028 8.09733 13.9202 8.20004C13.3447 8.61848 12.7906 9.06572 12.2602 9.54004C11.4802 10.24 10.7202 11 10.0002 11.76C8.99568 12.6396 8.04088 13.5744 7.1402 14.56C6.64562 15.1187 6.33795 15.818 6.2602 16.56C6.2509 17.0687 6.38989 17.5691 6.6602 18C6.98156 18.4696 7.36505 18.8934 7.8002 19.26C8.47126 19.818 9.21052 20.2885 10.0002 20.66C11.0402 21.26 12.1402 21.72 13.2002 22.28C13.7604 22.6169 14.3415 22.9176 14.9402 23.18C15.4259 23.3492 15.9545 23.3492 16.4402 23.18C17.0511 22.9414 17.5987 22.565 18.0402 22.08C18.7803 21.138 19.4488 20.1419 20.0402 19.1C20.7602 18 22.3802 16.66 22.7402 15.26C22.8715 14.8227 22.887 14.3587 22.7854 13.9135C22.6837 13.4683 22.4683 13.0571 22.1602 12.72L21.1802 11.82C20.6579 11.5005 20.1092 11.2261 19.5402 11C18.3402 10.38 17.0802 9.92004 15.9402 9.26004C15.7902 9.17617 15.6139 9.15223 15.4469 9.19305C15.28 9.23386 15.1346 9.3364 15.0402 9.48004C14.9967 9.55221 14.9678 9.63228 14.9553 9.71563C14.9429 9.79898 14.9469 9.88398 14.9674 9.96574C14.9878 10.0475 15.0242 10.1244 15.0745 10.1921C15.1247 10.2598 15.1878 10.3168 15.2602 10.36C16.4002 11.1 17.6602 11.62 18.8202 12.36C19.28 12.6299 19.721 12.9306 20.1402 13.26L20.8002 13.96C20.9559 14.1602 21.0404 14.4065 21.0404 14.66C21.0404 14.9136 20.9559 15.1599 20.8002 15.36C20.0362 16.3411 19.2148 17.2761 18.3402 18.16C17.8402 18.82 17.3002 19.74 16.6802 20.5C15.2602 22.14 15.1202 21.02 14.0802 20.5C13.0402 19.98 12.0002 19.36 10.9202 18.8C10.2827 18.475 9.67959 18.0864 9.1202 17.64C8.84752 17.4588 8.59888 17.2437 8.3802 17C8.23708 16.8778 8.14443 16.7067 8.1202 16.52C8.18517 15.9476 8.43843 15.4129 8.8402 15C9.6002 14.1 10.6402 13.18 11.1002 12.62Z" fill="#C8C8C8"/>
  <path fill-rule="evenodd" clip-rule="evenodd" d="M17.04 25.66C16.4671 25.6296 15.893 25.6296 15.32 25.66C14.7538 25.6302 14.1863 25.6302 13.62 25.66C12.2729 25.825 10.9371 26.0721 9.62003 26.4C9.54458 26.405 9.47091 26.4251 9.40347 26.4593C9.33602 26.4935 9.2762 26.541 9.22761 26.599C9.17902 26.6569 9.14267 26.7241 9.12074 26.7964C9.09881 26.8688 9.09177 26.9449 9.10003 27.02C9.12001 27.1668 9.19536 27.3003 9.31064 27.3933C9.42592 27.4862 9.57239 27.5316 9.72003 27.52C11.24 27.52 12.7 27.7 14.18 27.74H16.82C18.14 27.74 19.46 27.6 20.82 27.62C20.9041 27.6292 20.9891 27.6218 21.0703 27.5981C21.1514 27.5744 21.2272 27.535 21.2931 27.4821C21.359 27.4291 21.4139 27.3637 21.4545 27.2896C21.4952 27.2155 21.5208 27.1341 21.53 27.05C21.5392 26.966 21.5318 26.8809 21.5081 26.7998C21.4844 26.7186 21.445 26.6429 21.3921 26.577C21.3392 26.511 21.2738 26.4562 21.1996 26.4155C21.1255 26.3749 21.0441 26.3492 20.96 26.34C19.6681 26.0355 18.3591 25.8084 17.04 25.66Z" fill="#C8C8C8"/>
  <path fill-rule="evenodd" clip-rule="evenodd" d="M40.6009 8.63994C39.8437 8.49052 39.0725 8.42346 38.3009 8.43994C37.2009 8.43994 36.0809 8.43994 35.0409 8.57994C34.0009 8.71994 33.4409 8.69994 32.8409 8.75994L30.6009 8.99994C29.5773 9.16122 28.5626 9.37483 27.5609 9.63994C27.4124 9.66116 27.2784 9.7405 27.1883 9.86053C27.0983 9.98055 27.0597 10.1314 27.0809 10.2799C27.1021 10.4285 27.1814 10.5625 27.3015 10.6525C27.4215 10.7425 27.5724 10.7812 27.7209 10.7599C30.3809 10.6399 31.2209 10.8799 32.9609 10.8799C33.5809 10.8799 34.3209 10.8799 35.2609 10.6799C36.2009 10.4799 37.7009 10.1399 38.9409 9.97994C39.4442 9.90746 39.9524 9.87403 40.4609 9.87994C40.5496 9.9025 40.6421 9.90578 40.7321 9.88956C40.8222 9.87333 40.9077 9.83799 40.9829 9.7859C41.0582 9.73382 41.1214 9.6662 41.1683 9.58762C41.2151 9.50904 41.2446 9.42132 41.2547 9.33037C41.2649 9.23942 41.2553 9.14736 41.2268 9.06041C41.1983 8.97345 41.1515 8.89361 41.0896 8.82628C41.0276 8.75895 40.9519 8.70569 40.8676 8.6701C40.7833 8.6345 40.6924 8.6174 40.6009 8.61994V8.63994Z" fill="#C8C8C8"/>
  <path fill-rule="evenodd" clip-rule="evenodd" d="M31.2206 16.4602H32.3206C32.7035 16.442 33.0846 16.3952 33.4606 16.3202C34.3535 16.1555 35.2352 15.935 36.1006 15.6602C36.1849 15.6503 36.2664 15.6238 36.3403 15.5821C36.4143 15.5405 36.4792 15.4845 36.5313 15.4175C36.5834 15.3505 36.6217 15.2738 36.6439 15.1918C36.6661 15.1099 36.6718 15.0244 36.6606 14.9402C36.6311 14.7719 36.5375 14.6216 36.3995 14.5209C36.2615 14.4202 36.0898 14.3769 35.9206 14.4002H33.2606C32.655 14.3497 32.0462 14.3497 31.4406 14.4002C30.4175 14.5902 29.4135 14.8713 28.4406 15.2402C28.3667 15.25 28.2955 15.2744 28.2312 15.3121C28.1669 15.3497 28.1108 15.3998 28.0661 15.4594C28.0214 15.519 27.989 15.5869 27.9709 15.6592C27.9528 15.7314 27.9493 15.8066 27.9606 15.8802C27.9852 16.0271 28.0654 16.1589 28.1846 16.2482C28.3037 16.3376 28.4527 16.3777 28.6006 16.3602C29.7606 16.3202 30.5206 16.4402 31.2206 16.4602Z" fill="#C8C8C8"/>
  <path fill-rule="evenodd" clip-rule="evenodd" d="M28.9604 22.2198C29.9004 22.0598 30.7204 21.9398 31.5004 21.8598C32.2804 21.7798 32.8804 21.8598 33.5004 21.7198L35.5004 21.5798L41.6804 20.9798C41.8467 20.9746 42.0044 20.9049 42.1201 20.7854C42.2358 20.6659 42.3005 20.5061 42.3004 20.3398C42.3005 20.254 42.2833 20.1691 42.2499 20.0902C42.2165 20.0112 42.1675 19.9397 42.106 19.88C42.0444 19.8203 41.9715 19.7736 41.8915 19.7426C41.8115 19.7117 41.7261 19.6971 41.6404 19.6998C39.7804 19.6998 38.3204 19.4198 36.9604 19.3998C35.8845 19.3623 34.8073 19.4158 33.7404 19.5598C31.9905 19.8999 30.2812 20.4228 28.6404 21.1198C28.5555 21.1267 28.4731 21.1522 28.3992 21.1946C28.3252 21.2369 28.2615 21.295 28.2126 21.3648C28.1637 21.4346 28.1307 21.5142 28.1161 21.5982C28.1014 21.6821 28.1054 21.7683 28.1279 21.8505C28.1503 21.9327 28.1905 22.009 28.2458 22.0738C28.301 22.1387 28.3699 22.1906 28.4474 22.2259C28.525 22.2612 28.6094 22.2789 28.6946 22.2778C28.7798 22.2768 28.8638 22.257 28.9404 22.2198H28.9604Z" fill="#C8C8C8"/>
</svg>