<svg xmlns="http://www.w3.org/2000/svg" width="44" height="48" viewBox="0 0 44 48" fill="none">
  <path fill-rule="evenodd" clip-rule="evenodd" d="M7.72035 32.4794C6.59583 32.4415 5.47032 32.5152 4.36035 32.6994C3.88296 32.6847 3.40567 32.7317 2.94035 32.8394C2.77624 32.8959 2.62662 32.988 2.50217 33.109C2.37772 33.23 2.28149 33.3769 2.22035 33.5394C1.81508 34.9139 1.65928 36.3499 1.76035 37.7794C1.88035 40.9394 2.58035 44.6994 2.78035 46.6394C2.67206 46.6852 2.58094 46.764 2.51992 46.8645C2.45889 46.965 2.43105 47.0822 2.44035 47.1994C2.45016 47.2759 2.47511 47.3496 2.51375 47.4163C2.55239 47.483 2.60395 47.5414 2.6654 47.5879C2.72685 47.6345 2.79697 47.6683 2.87165 47.6875C2.94633 47.7066 3.02408 47.7107 3.10035 47.6994C3.72035 47.6994 4.28035 47.9394 4.88035 47.9794C5.13329 47.9994 5.38741 47.9994 5.64035 47.9794C5.88998 47.9605 6.13755 47.9204 6.38035 47.8594C6.98035 47.7394 7.52035 47.5794 8.10035 47.4194H8.24035C8.32703 47.4221 8.41339 47.4076 8.49449 47.3769C8.57558 47.3462 8.64983 47.2998 8.71298 47.2403C8.77614 47.1809 8.82695 47.1096 8.86254 47.0305C8.89812 46.9514 8.91776 46.8661 8.92035 46.7794C9.06035 44.8794 9.20035 42.9794 9.28035 41.0794C9.28035 39.8194 9.40035 38.5394 9.42035 37.2594C9.42035 36.7994 9.56035 35.6594 9.54035 34.7794C9.54537 34.2446 9.42191 33.7165 9.18035 33.2394C9.00484 33.0164 8.78388 32.8333 8.53216 32.7022C8.28043 32.5712 8.0037 32.4952 7.72035 32.4794ZM6.28035 45.7994C6.02073 45.7795 5.75997 45.7795 5.50035 45.7994C5.23771 45.8198 4.97698 45.8599 4.72035 45.9194C4.45378 45.9849 4.19293 46.0719 3.94035 46.1794C3.94035 44.4394 3.70035 41.6594 3.70035 39.0994C3.6588 37.7574 3.77289 36.4151 4.04035 35.0994H4.46035C8.00035 34.9394 7.36035 34.2794 7.44035 37.5594C7.44035 38.8194 7.56035 40.0594 7.58035 41.3194V46.1994C7.16035 45.9994 6.74035 45.8394 6.28035 45.7994Z" fill="white"/>
  <path fill-rule="evenodd" clip-rule="evenodd" d="M20.46 26.9199C20.2902 26.6797 20.0696 26.4798 19.8138 26.3347C19.558 26.1895 19.2733 26.1025 18.98 26.0799C17.8556 26.0522 16.7311 26.1258 15.62 26.2999C15.1437 26.2873 14.6674 26.3275 14.2 26.4199C13.8708 26.5467 13.6049 26.7983 13.46 27.1199C13.0028 29.1528 12.8478 31.2419 13 33.3199C13.14 38.2599 13.88 44.5799 14.04 46.6399C13.9317 46.6857 13.8406 46.7645 13.7795 46.865C13.7185 46.9655 13.6907 47.0827 13.7 47.1999C13.7098 47.2764 13.7347 47.3501 13.7734 47.4168C13.812 47.4836 13.8636 47.5419 13.925 47.5884C13.9865 47.635 14.0566 47.6688 14.1313 47.688C14.206 47.7071 14.2837 47.7112 14.36 47.6999C14.98 47.6999 15.54 47.9399 16.14 47.9799C16.3929 47.9999 16.647 47.9999 16.9 47.9799C17.1496 47.961 17.3972 47.9209 17.64 47.8599C18.24 47.7399 18.78 47.5799 19.36 47.4199H19.5C19.5867 47.4226 19.673 47.4081 19.7541 47.3774C19.8352 47.3467 19.9095 47.3003 19.9726 47.2408C20.0358 47.1814 20.0866 47.1101 20.1222 47.031C20.1577 46.9519 20.1774 46.8666 20.18 46.7799C20.3 44.9199 20.46 40.8999 20.58 37.2399C20.68 34.6199 20.74 32.1799 20.74 30.8599C20.74 30.3199 20.86 28.8599 20.74 27.9799C20.723 27.6107 20.6276 27.2493 20.46 26.9199ZM17.54 45.7999C17.2804 45.78 17.0196 45.78 16.76 45.7999C16.4973 45.8203 16.2366 45.8604 15.98 45.9199C15.7134 45.9854 15.4526 46.0724 15.2 46.1799C15.2 43.7399 14.92 37.9399 15 33.3399C14.9794 31.7664 15.0932 30.1941 15.34 28.6399H15.72C19.22 28.4999 18.64 27.8199 18.64 31.0999C18.64 32.6799 18.78 35.8399 18.82 39.0999V46.2399C18.44 45.9999 18 45.8399 17.54 45.7999Z" fill="white"/>
  <path fill-rule="evenodd" clip-rule="evenodd" d="M30.2409 32.4794C29.1163 32.4415 27.9908 32.5152 26.8809 32.6994C26.4035 32.6847 25.9262 32.7317 25.4609 32.8394C25.2967 32.8959 25.1471 32.988 25.0227 33.109C24.8982 33.23 24.802 33.3769 24.7409 33.5394C24.3356 34.9139 24.1798 36.3499 24.2809 37.7794C24.4009 40.9394 25.1009 44.6994 25.3009 46.6394C25.1906 46.6826 25.0977 46.7608 25.0362 46.8619C24.9748 46.9631 24.9483 47.0817 24.9609 47.1994C24.9707 47.2759 24.9956 47.3496 25.0343 47.4163C25.0729 47.483 25.1245 47.5414 25.1859 47.5879C25.2474 47.6345 25.3175 47.6683 25.3922 47.6875C25.4668 47.7066 25.5446 47.7107 25.6209 47.6994C26.2409 47.6994 26.7809 47.9394 27.4009 47.9794C27.6538 47.9994 27.9079 47.9994 28.1609 47.9794C28.4103 47.9589 28.6577 47.9188 28.9009 47.8594C29.5009 47.7394 30.0409 47.5794 30.6209 47.4194H30.7609C30.8475 47.4221 30.9339 47.4076 31.015 47.3769C31.0961 47.3462 31.1703 47.2998 31.2335 47.2403C31.2966 47.1809 31.3475 47.1096 31.383 47.0305C31.4186 46.9514 31.4383 46.8661 31.4409 46.7794C31.5809 44.8794 31.7209 42.9794 31.8009 41.0794C31.8009 39.8194 31.9209 38.5394 31.9409 37.2594C31.9409 36.7994 32.0809 35.6594 32.0409 34.7794C32.0513 34.2464 31.9348 33.7185 31.7009 33.2394C31.5254 33.0164 31.3044 32.8333 31.0527 32.7022C30.8009 32.5712 30.5242 32.4952 30.2409 32.4794ZM28.8009 45.7994C28.5346 45.7795 28.2672 45.7795 28.0009 45.7994C27.7448 45.8198 27.4907 45.8599 27.2409 45.9194C26.9743 45.9849 26.7134 46.0719 26.4609 46.1794C26.4609 44.4394 26.2009 41.6594 26.2209 39.0994C26.1793 37.7574 26.2934 36.4151 26.5609 35.0994H26.9809C30.5209 34.9394 29.8409 34.2394 29.9609 37.5594C29.9609 38.8194 30.0809 40.0594 30.1009 41.3194V46.1994C29.6809 45.9994 29.2609 45.8394 28.8009 45.7994Z" fill="white"/>
  <path fill-rule="evenodd" clip-rule="evenodd" d="M43.3 20.2994C43.2824 19.8999 43.1729 19.5098 42.98 19.1594C42.8102 18.9192 42.5896 18.7194 42.3338 18.5742C42.0779 18.429 41.7932 18.342 41.5 18.3194C40.3756 18.2909 39.251 18.3646 38.14 18.5394C37.6636 18.5268 37.1874 18.567 36.72 18.6594C36.5521 18.7193 36.3992 18.8145 36.2715 18.9388C36.1438 19.063 36.0443 19.2133 35.98 19.3794C35.4713 22.1823 35.3101 25.0372 35.5 27.8794C35.66 34.9994 36.4 44.3594 36.56 46.6394C36.4477 46.6796 36.3526 46.7572 36.2907 46.8592C36.2288 46.9611 36.2038 47.0813 36.22 47.1994C36.2399 47.35 36.3182 47.4867 36.4378 47.5802C36.5575 47.6736 36.7091 47.7165 36.86 47.6994C37.5 47.6994 38.04 47.9394 38.66 47.9794C38.9129 47.9995 39.167 47.9995 39.42 47.9794C39.6694 47.959 39.9168 47.9188 40.16 47.8594C40.76 47.7394 41.3 47.5794 41.88 47.4194H42.02C42.1066 47.4221 42.193 47.4077 42.2741 47.3769C42.3552 47.3462 42.4294 47.2998 42.4926 47.2404C42.5557 47.1809 42.6066 47.1096 42.6421 47.0305C42.6777 46.9515 42.6974 46.8661 42.7 46.7794C42.7 44.9594 43 38.3995 43.12 32.5795C43.22 28.3195 43.28 24.4394 43.28 23.0994C43.3356 22.1671 43.3423 21.2325 43.3 20.2994ZM40 45.7994C39.7337 45.7795 39.4663 45.7795 39.2 45.7994C38.9373 45.8199 38.6766 45.86 38.42 45.9194C38.1608 45.9881 37.9068 46.075 37.66 46.1794C37.66 43.2994 37.4 34.5994 37.48 27.9194C37.4478 25.568 37.5613 23.2168 37.82 20.8794H38.16C41.7 20.7394 41.1 20.2194 41.06 23.3394C41.06 25.1594 41.22 31.6994 41.28 37.4994V46.1394C40.94 45.9994 40.52 45.8394 40 45.7994Z" fill="white"/>
  <path fill-rule="evenodd" clip-rule="evenodd" d="M37.3404 6.98015C37.8432 7.25342 38.4083 7.39126 38.9804 7.38015C39.3126 7.41979 39.6483 7.41979 39.9804 7.38015C40.413 7.25536 40.8344 7.09481 41.2404 6.90015C41.3288 6.86279 41.4074 6.80541 41.4699 6.73253C41.5323 6.65964 41.577 6.57325 41.6004 6.48015C42.3084 6.12648 42.8519 5.51223 43.1167 4.76638C43.3815 4.02053 43.347 3.2011 43.0204 2.48015C42.8738 2.03606 42.6356 1.62769 42.3212 1.2815C42.0068 0.9353 41.6232 0.65899 41.1952 0.470455C40.7672 0.281921 40.3044 0.185363 39.8368 0.187033C39.3691 0.188703 38.907 0.288565 38.4804 0.480152C37.8195 0.83071 37.2505 1.33212 36.8196 1.9437C36.3888 2.55528 36.1081 3.25981 36.0004 4.00015C35.9557 4.61948 36.0729 5.23979 36.3404 5.80015C35.3613 7.7952 34.6357 9.90492 34.1804 12.0802C33.9604 12.9602 33.7404 13.8402 33.4804 14.6802C33.2204 15.5202 33.1204 15.7802 32.8804 16.2802C32.3739 17.4916 31.4994 18.5131 30.3804 19.2002C29.9132 18.7518 29.3217 18.4546 28.683 18.3476C28.0444 18.2406 27.3883 18.3286 26.8004 18.6002C26.6282 18.6951 26.4671 18.8092 26.3204 18.9402C25.7804 18.0002 25.4004 17.0602 24.9404 16.1402C24.5565 15.4288 24.1008 14.7586 23.5804 14.1402C22.6201 13.0646 21.3811 12.2756 20.0004 11.8602C20.2647 11.4064 20.4203 10.8976 20.455 10.3736C20.4897 9.84967 20.4026 9.3248 20.2004 8.84015C20.0538 8.39606 19.8156 7.98769 19.5012 7.6415C19.1868 7.2953 18.8032 7.01899 18.3752 6.83046C17.9472 6.64192 17.4844 6.54536 17.0168 6.54703C16.5491 6.5487 16.087 6.64856 15.6604 6.84015C14.9385 7.19511 14.3169 7.72512 13.8523 8.38188C13.3876 9.03863 13.0948 9.80123 13.0004 10.6002C12.9796 10.9841 13.0201 11.3689 13.1204 11.7402H12.9604C11.7549 12.2148 10.639 12.8911 9.66041 13.7402C9.23877 14.0752 8.84421 14.443 8.48041 14.8402C8.12541 15.2355 7.79161 15.6494 7.48041 16.0802C6.88041 16.9402 6.42042 17.8402 5.94042 18.6802C5.51307 18.4869 5.04944 18.3869 4.58042 18.3869C4.11139 18.3869 3.64776 18.4869 3.22041 18.6802C2.51114 19.0452 1.905 19.5827 1.45768 20.2432C1.01036 20.9037 0.736206 21.666 0.660415 22.4601C0.596755 22.8885 0.629826 23.3256 0.757201 23.7395C0.884576 24.1534 1.10302 24.5335 1.3965 24.8519C1.68998 25.1703 2.05104 25.419 2.45318 25.5796C2.85532 25.7402 3.28833 25.8087 3.72041 25.7802C4.05252 25.8206 4.38831 25.8206 4.72042 25.7802C5.16747 25.6022 5.59616 25.3811 6.00042 25.1202C6.09065 25.0857 6.17084 25.0292 6.23371 24.9558C6.29658 24.8825 6.34013 24.7946 6.36041 24.7002C7.07569 24.3543 7.62584 23.7404 7.89164 22.9917C8.15745 22.243 8.11748 21.4196 7.78042 20.7002C7.60265 20.2225 7.33822 19.7818 7.00042 19.4002C7.80042 18.6402 8.64042 17.8402 9.46041 16.9802C9.90041 16.5202 10.3404 16.0202 10.7604 15.5402C11.1804 15.0602 11.6004 14.5602 12.0604 14.1202C12.5139 13.6875 13.0022 13.2928 13.5204 12.9402C13.5204 12.9402 13.5204 12.9402 13.6404 12.9402C13.9342 13.2764 14.2972 13.5452 14.7046 13.7281C15.1119 13.9111 15.5539 14.0039 16.0004 14.0002C16.3325 14.0406 16.6683 14.0406 17.0004 14.0002C17.4395 13.8755 17.8676 13.715 18.2804 13.5202C18.366 13.4816 18.4413 13.4235 18.5004 13.3506C18.5594 13.2777 18.6005 13.1919 18.6204 13.1002C18.8021 13.0232 18.9761 12.9294 19.1404 12.8202C19.1645 12.8841 19.2019 12.9421 19.2502 12.9904C19.2985 13.0387 19.3565 13.0761 19.4204 13.1002C19.9166 13.4336 20.3729 13.8228 20.7804 14.2602C21.0775 14.6085 21.3514 14.9759 21.6004 15.3602C21.8804 15.7602 22.1404 16.1402 22.4404 16.5202C23.2885 17.7715 24.2242 18.9611 25.2404 20.0802C24.6446 20.7885 24.2753 21.6595 24.1804 22.5802C24.1163 23.0103 24.1497 23.4493 24.2782 23.8647C24.4067 24.2802 24.6269 24.6614 24.9227 24.9802C25.2184 25.299 25.5821 25.5472 25.9868 25.7065C26.3914 25.8657 26.8267 25.9319 27.2604 25.9002C27.5858 25.9403 27.915 25.9403 28.2404 25.9002C28.6795 25.7755 29.1076 25.615 29.5204 25.4202C29.606 25.3816 29.6813 25.3235 29.7404 25.2506C29.7994 25.1776 29.8405 25.0919 29.8604 25.0002C30.5757 24.6543 31.1258 24.0404 31.3916 23.2917C31.6574 22.5429 31.6175 21.7196 31.2804 21.0002C31.2391 20.8752 31.1855 20.7546 31.1204 20.6402C32.5123 20.0133 33.6831 18.9819 34.4804 17.6802C34.8463 17.0983 35.1545 16.482 35.4004 15.8402C35.7353 14.9088 35.9961 13.9525 36.1804 12.9802C36.4189 10.9543 36.8066 8.94888 37.3404 6.98015ZM38.2004 3.62015C38.4456 3.04305 38.884 2.56928 39.4404 2.28015C39.6191 2.17801 39.8184 2.11713 40.0236 2.10197C40.2289 2.08681 40.4349 2.11776 40.6267 2.19254C40.8184 2.26732 40.991 2.38405 41.1318 2.53417C41.2726 2.68429 41.3781 2.86401 41.4404 3.06015C41.5646 3.24856 41.6464 3.46167 41.6802 3.68476C41.7141 3.90786 41.6991 4.13565 41.6364 4.3524C41.5736 4.56915 41.4646 4.76971 41.3168 4.94024C41.169 5.11077 40.986 5.24721 40.7804 5.34015C40.6662 5.38665 40.5668 5.46332 40.4928 5.56196C40.4188 5.6606 40.3731 5.7775 40.3604 5.90015L40.0004 6.00015C39.7352 6.03988 39.4656 6.03988 39.2004 6.00015C38.8943 5.97384 38.607 5.84159 38.388 5.62619C38.1689 5.4108 38.0319 5.12575 38.0004 4.82015C37.9551 4.40936 38.0243 3.99404 38.2004 3.62015ZM5.42042 23.6202C5.30621 23.6666 5.2068 23.7433 5.13282 23.842C5.05884 23.9406 5.01307 24.0575 5.00042 24.1802H4.68042C4.41527 24.2205 4.14556 24.2205 3.88042 24.1802C3.5751 24.1554 3.2875 24.0267 3.06552 23.8156C2.84353 23.6046 2.70056 23.3238 2.66041 23.0202C2.67931 22.664 2.77482 22.3161 2.94042 22.0002C3.19749 21.4308 3.6327 20.9605 4.18041 20.6602C4.36052 20.5652 4.55895 20.5101 4.76222 20.4986C4.9655 20.487 5.16888 20.5194 5.35857 20.5933C5.54826 20.6673 5.71982 20.7812 5.86162 20.9273C6.00342 21.0734 6.11215 21.2483 6.18042 21.4402C6.28758 21.632 6.35301 21.8443 6.37242 22.0632C6.39182 22.2821 6.36476 22.5026 6.29301 22.7103C6.22125 22.918 6.10643 23.1082 5.95605 23.2685C5.80568 23.4287 5.62315 23.5554 5.42042 23.6402V23.6202ZM17.7604 11.8202C17.6486 11.8701 17.5513 11.9477 17.4778 12.0457C17.4043 12.1437 17.357 12.2588 17.3404 12.3802H17.0204C16.7553 12.4205 16.4856 12.4205 16.2204 12.3802C15.9151 12.3554 15.6275 12.2267 15.4055 12.0156C15.1835 11.8046 15.0406 11.5238 15.0004 11.2202C14.9979 10.8165 15.0941 10.4183 15.2804 10.0602C15.5434 9.49475 15.9771 9.02608 16.5204 8.72015C16.7005 8.6252 16.8989 8.5701 17.1022 8.55857C17.3055 8.54704 17.5089 8.57936 17.6986 8.65334C17.8883 8.72732 18.0598 8.84123 18.2016 8.98733C18.3434 9.13344 18.4521 9.30833 18.5204 9.50015C18.6533 9.69668 18.7396 9.92093 18.7727 10.1558C18.8059 10.3907 18.785 10.6301 18.7117 10.8557C18.6384 11.0813 18.5147 11.2873 18.3498 11.4579C18.185 11.6284 17.9834 11.7592 17.7604 11.8402V11.8202ZM29.0204 23.6202C28.9059 23.669 28.8055 23.7459 28.7286 23.8437C28.6517 23.9416 28.6007 24.0573 28.5804 24.1802H28.2604C27.9953 24.2202 27.7256 24.2202 27.4604 24.1802C27.1551 24.1554 26.8675 24.0267 26.6455 23.8156C26.4235 23.6046 26.2806 23.3238 26.2404 23.0202C26.2379 22.6165 26.3341 22.2183 26.5204 21.8602C26.7834 21.2948 27.2171 20.8261 27.7604 20.5202C27.9405 20.4252 28.1389 20.3701 28.3422 20.3586C28.5455 20.347 28.7489 20.3794 28.9386 20.4533C29.1283 20.5273 29.2998 20.6412 29.4416 20.7873C29.5834 20.9334 29.6921 21.1083 29.7604 21.3001C29.8937 21.4954 29.9809 21.7183 30.0153 21.9522C30.0498 22.1861 30.0307 22.4247 29.9594 22.6501C29.8881 22.8755 29.7666 23.0817 29.6039 23.2532C29.4412 23.4247 29.2417 23.5571 29.0204 23.6402V23.6202Z" fill="white"/>
</svg>