<svg xmlns="http://www.w3.org/2000/svg" width="48" height="34" viewBox="0 0 48 34" fill="none">
  <path fill-rule="evenodd" clip-rule="evenodd" d="M4.61979 17.3198C6.61979 18.8398 8.03979 17.4198 6.49979 15.7398L6.33979 15.5798C6.01167 15.2652 5.66434 14.9713 5.29979 14.6998C4.91979 14.4198 4.51979 14.1798 4.11979 13.9398C3.15224 13.3958 2.13412 12.947 1.07979 12.5998C0.902095 12.5123 0.69691 12.4989 0.509374 12.5627C0.321838 12.6265 0.167312 12.7621 0.0797903 12.9398C-0.0077311 13.1175 -0.0210788 13.3227 0.0426836 13.5102C0.106446 13.6978 0.242095 13.8523 0.41979 13.9398C1.27979 14.5198 1.99979 15.2598 2.81979 15.9398C3.34556 16.4072 3.89997 16.8414 4.47979 17.2398L4.61979 17.3198Z" fill="#C8C8C8"/>
  <path fill-rule="evenodd" clip-rule="evenodd" d="M24 28.2199C23.9337 28.0342 23.7964 27.8825 23.6182 27.7981C23.4401 27.7137 23.2357 27.7036 23.05 27.7699C22.8644 27.8362 22.7127 27.9735 22.6283 28.1517C22.5439 28.3298 22.5337 28.5342 22.6 28.7199C22.7113 29.3033 22.5864 29.9071 22.2526 30.3985C21.9188 30.8898 21.4035 31.2284 20.82 31.3399C20.4673 31.3494 20.1175 31.2739 19.8 31.1199C19.4582 30.989 19.1455 30.7919 18.88 30.5399C18.7028 30.3559 18.5359 30.1623 18.38 29.9599C18.2887 29.8185 18.2211 29.6631 18.18 29.4999C18.0988 29.1194 18.1555 28.7224 18.34 28.3799C18.48 28.2399 18.58 28.0999 18.7 27.9599C18.8659 27.7271 19.0767 27.5299 19.32 27.3799C19.7598 27.0916 20.2742 26.9381 20.8 26.9381C21.3259 26.9381 21.8402 27.0916 22.28 27.3799C22.4076 27.4852 22.57 27.5388 22.7352 27.53C22.9004 27.5212 23.0562 27.4508 23.1719 27.3326C23.2876 27.2144 23.3547 27.057 23.3599 26.8917C23.3651 26.7264 23.3081 26.5651 23.2 26.4399C22.7085 25.9362 22.0928 25.5711 21.4151 25.3815C20.7373 25.1919 20.0216 25.1844 19.34 25.3599C19.3358 25.0482 19.2886 24.7387 19.2 24.4399C19.1321 24.2528 18.9935 24.0997 18.814 24.0137C18.6345 23.9277 18.4284 23.9156 18.24 23.9799C18.1458 24.0112 18.0588 24.0613 17.9843 24.1269C17.9098 24.1926 17.8492 24.2727 17.8063 24.3623C17.7634 24.4518 17.7389 24.5492 17.7344 24.6484C17.7299 24.7476 17.7454 24.8468 17.78 24.9399C17.89 25.2778 17.89 25.6419 17.78 25.9799C17.1641 26.3331 16.6533 26.8439 16.3 27.4599C16.2203 27.4685 16.1398 27.4685 16.06 27.4599C15.7133 27.4746 15.3686 27.3987 15.06 27.2399C14.6752 27.1504 14.3138 26.98 14 26.7399C13.8198 26.5643 13.6588 26.3698 13.52 26.1599C13.4151 26.0237 13.3401 25.867 13.3 25.6999C13.2355 25.2783 13.3075 24.8471 13.5054 24.4693C13.7033 24.0915 14.0167 23.7869 14.4 23.5999C14.8379 23.3067 15.353 23.1501 15.88 23.1501C16.407 23.1501 16.9221 23.3067 17.36 23.5999C17.4873 23.7219 17.6579 23.7883 17.8342 23.7846C18.0105 23.7808 18.178 23.7072 18.3 23.5799C18.422 23.4526 18.4885 23.282 18.4847 23.1057C18.481 22.9294 18.4073 22.7619 18.28 22.6399C17.8745 22.2098 17.3737 21.8808 16.818 21.6793C16.2622 21.4778 15.667 21.4095 15.08 21.4799C15.1514 20.9215 15.0684 20.3543 14.84 19.8399C14.7737 19.6542 14.6364 19.5025 14.4582 19.4181C14.2801 19.3337 14.0757 19.3236 13.89 19.3899C13.7044 19.4562 13.5527 19.5935 13.4683 19.7717C13.3839 19.9498 13.3737 20.1542 13.44 20.3399C13.509 20.6335 13.5106 20.939 13.4448 21.2334C13.379 21.5278 13.2475 21.8035 13.06 22.0399C12.6707 22.247 12.3136 22.5098 12 22.8199C11.8848 22.878 11.7643 22.9249 11.64 22.9599C11.2947 22.96 10.9535 22.8849 10.64 22.7399C10.2982 22.609 9.98552 22.4119 9.72003 22.1599C9.53726 21.981 9.36999 21.787 9.22003 21.5799C9.11663 21.4378 9.04812 21.2733 9.02003 21.0999C8.93715 20.672 9.00554 20.2285 9.21349 19.8455C9.42144 19.4624 9.75603 19.1635 10.16 18.9999C10.5998 18.7116 11.1142 18.5581 11.64 18.5581C12.1659 18.5581 12.6802 18.7116 13.12 18.9999C13.2492 19.0757 13.4004 19.1053 13.5486 19.0838C13.6969 19.0623 13.8334 18.991 13.9358 18.8817C14.0382 18.7723 14.1003 18.6314 14.112 18.482C14.1237 18.3327 14.0842 18.1838 14 18.0599C13.3683 17.4967 12.5947 17.117 11.7627 16.9619C10.9308 16.8068 10.0722 16.8822 9.28003 17.1799C8.44559 17.4499 7.73586 18.0106 7.28003 18.7599C6.7042 19.5655 6.44765 20.556 6.56003 21.5399C6.63052 21.9609 6.77257 22.3668 6.98003 22.7399C7.2637 23.1848 7.59941 23.5944 7.98003 23.9599C8.56217 24.4606 9.25425 24.817 10 24.9999C10.3052 25.0935 10.6211 25.1473 10.94 25.1599C10.8999 25.4853 10.8999 25.8144 10.94 26.1399C11.0141 26.5566 11.1632 26.9564 11.38 27.3199C11.6507 27.78 11.9877 28.1978 12.38 28.5599C12.96 29.0525 13.6436 29.408 14.38 29.5999C14.8552 29.7297 15.348 29.7837 15.84 29.7599C15.8498 29.8128 15.8498 29.867 15.84 29.9199C15.9086 30.3443 16.0579 30.7517 16.28 31.1199C16.5511 31.5738 16.8881 31.985 17.28 32.3399C17.852 32.8443 18.5386 33.2013 19.28 33.3799C20.0122 33.5878 20.7878 33.5878 21.52 33.3799C22.0558 33.2145 22.5531 32.9434 22.9824 32.5827C23.4118 32.2221 23.7646 31.7791 24.02 31.2799C24.2403 30.7993 24.3527 30.2763 24.3493 29.7477C24.3458 29.219 24.2266 28.6975 24 28.2199Z" fill="#C8C8C8"/>
  <path fill-rule="evenodd" clip-rule="evenodd" d="M21.5999 5.7C21.8719 5.75207 22.1394 5.82564 22.3999 5.92C23.7799 6.48 24.5399 5.02 23.5399 4.38C23.042 4.08228 22.5028 3.85987 21.9399 3.72C20.6909 3.45087 19.4034 3.41022 18.1399 3.6C17.0241 3.67547 15.9033 3.62178 14.7999 3.44L10.6999 1.9C9.75277 1.50153 8.76775 1.19999 7.75988 1C7.67446 1.00712 7.59145 1.03188 7.51608 1.07271C7.44071 1.11354 7.37463 1.16955 7.32201 1.23721C7.26938 1.30487 7.23136 1.38271 7.21034 1.46581C7.18932 1.5489 7.18576 1.63546 7.19988 1.72C7.21333 1.8693 7.27875 2.00913 7.38475 2.11513C7.49074 2.22112 7.63058 2.28655 7.77988 2.3C7.77988 2.3 8.01988 2.42 8.23988 2.54C9.47988 3.18 12.0999 4.82 13.8799 5.72C14.6111 6.13753 15.422 6.39647 16.2599 6.48L18.5199 6.02C19.5254 5.76342 20.5631 5.65561 21.5999 5.7Z" fill="#C8C8C8"/>
  <path fill-rule="evenodd" clip-rule="evenodd" d="M47.8399 0.739853C47.7361 0.567868 47.5684 0.443973 47.3735 0.395253C47.1786 0.346532 46.9724 0.376948 46.7999 0.479853L43.2399 2.47985C42.602 2.84559 41.9327 3.15348 41.2399 3.39985C40.8331 3.53064 40.407 3.5915 39.9799 3.57985C39.3104 3.56966 38.6424 3.51621 37.9799 3.41985C37.3912 3.31839 36.81 3.17808 36.2399 2.99985C35.3999 2.71985 34.5999 2.35985 33.7599 2.11985C33.1117 1.92353 32.437 1.82907 31.7599 1.83985C31.2199 1.86502 30.687 1.97294 30.1799 2.15985C29.4722 2.39518 28.7995 2.72482 28.1799 3.13985C27.6799 3.43985 23.0799 7.69985 22.6399 8.15985C21.8694 8.88968 21.1971 9.71662 20.6399 10.6199C20.2554 11.2995 20.0362 12.0599 19.9999 12.8399C19.955 13.2959 20.0145 13.7563 20.1739 14.1859C20.3333 14.6156 20.5884 15.0034 20.9199 15.3199C21.3903 15.6918 21.9383 15.9532 22.5233 16.0848C23.1084 16.2163 23.7155 16.2146 24.2999 16.0799C25.3324 15.8733 26.2998 15.4205 27.1199 14.7599C27.937 14.1099 28.6995 13.3942 29.3999 12.6199C30.4184 13.0479 31.4986 13.3111 32.5999 13.3999C33.1181 13.4597 33.6416 13.4597 34.1599 13.3999C34.6737 13.3254 35.1772 13.1912 35.6599 12.9999C36.7634 12.5358 37.763 11.8558 38.5999 10.9999C38.673 10.9518 38.7356 10.8893 38.7836 10.8161C38.8316 10.743 38.8642 10.6607 38.8792 10.5745C38.8941 10.4883 38.8913 10.3999 38.8708 10.3148C38.8503 10.2297 38.8125 10.1498 38.7599 10.0799C38.71 10.0089 38.6466 9.94849 38.5734 9.90204C38.5001 9.8556 38.4185 9.82405 38.333 9.80919C38.2476 9.79433 38.16 9.79646 38.0754 9.81544C37.9908 9.83443 37.9108 9.86991 37.8399 9.91985C36.9199 10.3099 35.9509 10.5724 34.9599 10.6999L33.2199 10.9999C32.8199 10.9999 32.4599 11.1399 32.0599 11.1599C31.4342 11.2099 30.8055 11.2099 30.1799 11.1599C30.1994 11.0878 30.1994 11.0119 30.1799 10.9399C30.1202 10.8782 30.0487 10.8291 29.9697 10.7956C29.8907 10.7621 29.8057 10.7448 29.7199 10.7448C29.634 10.7448 29.5491 10.7621 29.47 10.7956C29.391 10.8291 29.3195 10.8782 29.2599 10.9399C28.3154 11.8778 27.2989 12.7405 26.2199 13.5199C25.5749 13.9638 24.8353 14.2514 24.0599 14.3599C23.5231 14.4475 22.9726 14.3487 22.4999 14.0799C22.3118 13.9772 22.1617 13.8168 22.0717 13.6223C21.9817 13.4279 21.9565 13.2097 21.9999 12.9999C22.0838 12.5421 22.2608 12.1064 22.5199 11.7199C23.0179 11.0222 23.5951 10.3847 24.2399 9.81985C25.2199 8.83985 26.2399 7.81985 27.2799 6.83985C27.9345 6.2374 28.6367 5.68894 29.3799 5.19985C29.7664 4.93882 30.1746 4.71132 30.5999 4.51985C31.3877 4.17409 32.2706 4.11051 33.0999 4.33985C33.9199 4.51985 34.6999 4.81985 35.5199 5.05985C36.2365 5.2383 36.9651 5.36529 37.6999 5.43985C38.4193 5.47964 39.1404 5.47964 39.8599 5.43985C40.5018 5.42123 41.1365 5.29969 41.7399 5.07985C42.5336 4.74745 43.2965 4.3459 44.0199 3.87985L47.4799 1.69985C47.6522 1.61729 47.786 1.47125 47.8531 1.2923C47.9202 1.11336 47.9154 0.915389 47.8399 0.739853Z" fill="#C8C8C8"/>
  <path fill-rule="evenodd" clip-rule="evenodd" d="M37.1395 21.0003C37.0171 20.6503 36.8701 20.3094 36.6995 19.9803C36.1338 19.0097 35.4631 18.1042 34.6995 17.2803L32.5595 14.8403C32.4509 14.7144 32.2989 14.6341 32.1337 14.6155C31.9685 14.5969 31.8024 14.6412 31.6685 14.7397C31.5346 14.8383 31.4429 14.9837 31.4115 15.1469C31.3802 15.3101 31.4116 15.4792 31.4995 15.6203L33.0795 18.4603C33.5994 19.2904 34.0541 20.1597 34.4395 21.0603C34.683 21.5649 34.845 22.1049 34.9195 22.6603C34.9831 23.01 34.9714 23.3693 34.8852 23.7142C34.799 24.0591 34.6402 24.3816 34.4195 24.6603C34.1391 24.9795 33.7808 25.2207 33.3795 25.3603C33.3499 25.2853 33.3166 25.2118 33.2795 25.1403C32.8576 24.513 32.3896 23.9181 31.8795 23.3603L28.9995 20.1003C28.9443 20.0188 28.8737 19.9491 28.7915 19.895C28.7094 19.8409 28.6175 19.8034 28.5209 19.7849C28.3259 19.7474 28.1239 19.7889 27.9595 19.9003C27.795 20.0117 27.6816 20.1838 27.6441 20.3788C27.6066 20.5739 27.6481 20.7758 27.7595 20.9403L29.9995 24.7603C30.3804 25.2955 30.7342 25.8495 31.0595 26.4203C31.2324 26.7152 31.3669 27.0311 31.4595 27.3603C31.5706 27.5892 31.6034 27.8482 31.5528 28.0976C31.5022 28.347 31.371 28.5728 31.1795 28.7403C30.8934 28.9769 30.5472 29.1292 30.1795 29.1803C30.1795 29.1803 30.1795 29.0603 30.1795 29.0003C29.9671 28.5463 29.7056 28.1171 29.3995 27.7203C28.9195 27.1403 28.4595 26.5803 27.9395 26.0403C27.4195 25.5003 26.9395 24.9803 26.3995 24.4803C26.2899 24.3463 26.132 24.2607 25.9599 24.242C25.7878 24.2233 25.6153 24.273 25.4795 24.3803C25.3441 24.4934 25.2581 24.6547 25.2394 24.83C25.2208 25.0054 25.271 25.1812 25.3795 25.3203C25.6995 25.8003 25.9795 26.2603 26.2595 26.7603C26.5395 27.2603 27.0395 28.2203 27.3995 28.9803L27.9595 30.3403L27.6795 30.8203C27.5445 31.0364 27.3666 31.2224 27.1567 31.3669C26.9468 31.5114 26.7095 31.6113 26.4595 31.6603C25.9763 31.7888 25.4626 31.7317 25.0195 31.5003C24.9368 31.4489 24.8448 31.4144 24.7487 31.3987C24.6526 31.3829 24.5544 31.3863 24.4597 31.4086C24.3649 31.4309 24.2755 31.4717 24.1965 31.5286C24.1176 31.5855 24.0506 31.6574 23.9995 31.7403C23.8948 31.9104 23.8613 32.1149 23.9062 32.3095C23.9511 32.5041 24.0708 32.6732 24.2395 32.7803C24.8823 33.3375 25.7089 33.6368 26.5595 33.6203C27.1136 33.6345 27.6647 33.5334 28.1777 33.3234C28.6907 33.1133 29.1544 32.799 29.5395 32.4003C29.8314 32.1 30.0743 31.7559 30.2595 31.3803C30.3205 31.1851 30.3607 30.9839 30.3795 30.7803C31.0677 30.8282 31.7567 30.6973 32.3795 30.4003C32.9681 30.0708 33.44 29.5668 33.7301 28.9579C34.0203 28.3489 34.1144 27.6649 33.9995 27.0003C34.7389 26.8616 35.4288 26.5305 35.9995 26.0403C36.4552 25.6251 36.8228 25.1226 37.0805 24.5626C37.3382 24.0025 37.4806 23.3964 37.4995 22.7803C37.4536 22.1743 37.3327 21.5764 37.1395 21.0003Z" fill="#C8C8C8"/>
  <path fill-rule="evenodd" clip-rule="evenodd" d="M47.9994 18.5402C47.976 18.4455 47.9341 18.3563 47.8762 18.2779C47.8182 18.1994 47.7453 18.1332 47.6617 18.083C47.578 18.0328 47.4853 17.9997 47.3888 17.9854C47.2923 17.9712 47.1939 17.9762 47.0994 18.0002C45.8794 18.1402 44.6994 18.1802 43.5194 18.3802C42.7163 18.5092 41.9265 18.71 41.1594 18.9802C40.2774 19.3128 39.4382 19.7492 38.6594 20.2802C37.0194 20.9602 37.9994 22.2802 39.5394 21.8402L41.3994 21.4602L42.7994 21.1202L44.1794 20.6802C45.2794 20.3002 46.3594 19.8802 47.4594 19.4402C47.5541 19.4168 47.6432 19.3749 47.7217 19.317C47.8001 19.259 47.8664 19.1861 47.9165 19.1025C47.9667 19.0188 47.9999 18.9261 48.0141 18.8296C48.0283 18.7331 48.0233 18.6347 47.9994 18.5402Z" fill="#C8C8C8"/>
</svg>