<svg xmlns="http://www.w3.org/2000/svg" width="48" height="38" viewBox="0 0 48 38" fill="none">
  <path fill-rule="evenodd" clip-rule="evenodd" d="M29.3597 17.4799C29.071 17.0231 28.6635 16.6533 28.1809 16.4102C27.6983 16.1671 27.1586 16.0599 26.6197 16.0999C25.9868 16.1332 25.3643 16.2753 24.7797 16.5199C24.6597 16.2199 24.5597 15.8999 24.4597 15.5799L24.0997 14.7199C24.6475 14.5762 25.2138 14.5155 25.7797 14.5399C25.9785 14.5685 26.1806 14.5173 26.3417 14.3974C26.5029 14.2774 26.61 14.0986 26.6397 13.8999C26.6569 13.7988 26.6539 13.6952 26.6311 13.5952C26.6082 13.4952 26.5658 13.4007 26.5064 13.3171C26.4469 13.2335 26.3716 13.1625 26.2846 13.1081C26.1977 13.0536 26.1008 13.0169 25.9997 12.9999C25.1587 12.8615 24.3007 12.8615 23.4597 12.9999C23.1397 12.1799 22.7797 11.3399 22.4797 10.5199C22.4321 10.3277 22.3115 10.1617 22.1434 10.0571C21.9753 9.95252 21.7731 9.91764 21.5797 9.9599C21.4832 9.98106 21.3919 10.0213 21.3112 10.0783C21.2305 10.1353 21.162 10.2079 21.1099 10.2918C21.0577 10.3757 21.0228 10.4692 21.0073 10.5667C20.9918 10.6643 20.996 10.764 21.0197 10.8599C21.1197 11.7799 21.2997 12.7199 21.4197 13.6399C21.0002 13.7567 20.5919 13.9107 20.1997 14.0999C19.8147 14.3191 19.4775 14.6132 19.2079 14.9647C18.9383 15.3163 18.7418 15.7183 18.63 16.1469C18.5181 16.5756 18.4932 17.0223 18.5567 17.4608C18.6202 17.8992 18.7708 18.3206 18.9997 18.6999C19.2269 19.1812 19.5823 19.5907 20.0268 19.8835C20.4712 20.1763 20.9877 20.3411 21.5197 20.3599C22.0316 20.3489 22.5383 20.2543 23.0197 20.0799L23.2597 20.6999C23.5397 21.3599 23.8797 21.9799 24.1797 22.6999C23.2332 23.0694 22.1889 23.1047 21.2197 22.7999C21.1187 22.7531 21.0094 22.7269 20.8982 22.7228C20.787 22.7186 20.676 22.7366 20.5718 22.7757C20.4676 22.8147 20.3722 22.8741 20.2912 22.9504C20.2101 23.0267 20.145 23.1183 20.0997 23.2199C20.0497 23.3219 20.021 23.4329 20.0152 23.5464C20.0094 23.6598 20.0266 23.7732 20.0659 23.8797C20.1051 23.9863 20.1656 24.0838 20.2436 24.1663C20.3216 24.2488 20.4155 24.3147 20.5197 24.3599C21.9682 24.9598 23.5802 25.0376 25.0797 24.5799L25.6197 25.6799C25.6615 25.7851 25.7237 25.881 25.8027 25.9621C25.8817 26.0432 25.9759 26.1079 26.08 26.1525C26.1841 26.1971 26.2959 26.2207 26.4091 26.222C26.5223 26.2232 26.6346 26.2021 26.7397 26.1599C26.8499 26.1189 26.9504 26.0552 27.0344 25.9729C27.1185 25.8906 27.1844 25.7916 27.2277 25.6822C27.2711 25.5729 27.291 25.4556 27.2862 25.3381C27.2813 25.2205 27.2519 25.1053 27.1997 24.9999L26.8997 23.8599C27.3339 23.6737 27.7492 23.446 28.1397 23.1799C28.6071 22.8974 29.0117 22.5222 29.3285 22.0775C29.6454 21.6327 29.8679 21.1277 29.9822 20.5937C30.0965 20.0597 30.1002 19.5079 29.9931 18.9724C29.8861 18.4369 29.6705 17.9289 29.3597 17.4799ZM21.2397 17.4799C20.7597 16.7799 21.1197 16.1799 21.7197 15.7399C21.7197 15.9399 21.7197 16.1399 21.8197 16.3399C21.9197 16.5399 22.0197 17.1199 22.1397 17.5199L21.7797 17.6399C21.5797 17.6799 21.3797 17.6999 21.2397 17.4999V17.4799ZM26.2797 21.6599C26.1397 21.0599 25.9797 20.4799 25.8197 19.8999L25.6397 19.2599C25.9313 19.1363 26.2322 19.036 26.5397 18.9599C26.7397 18.9599 26.9397 18.9599 27.0597 19.0799C27.7997 20.0599 27.1997 20.9999 26.2797 21.6799V21.6599Z" fill="#C8C8C8"/>
  <path fill-rule="evenodd" clip-rule="evenodd" d="M45.4599 14.0001C45.0341 12.8221 44.5467 11.6671 43.9999 10.5401C43.3922 9.40546 42.7246 8.3039 41.9999 7.24012C40.3448 4.78866 38.4704 2.49257 36.3999 0.380121C36.3325 0.306781 36.2506 0.248235 36.1593 0.208187C36.0681 0.168139 35.9696 0.147461 35.8699 0.147461C35.7703 0.147461 35.6718 0.168139 35.5805 0.208187C35.4893 0.248235 35.4074 0.306781 35.3399 0.380121C35.2171 0.488039 35.1387 0.637704 35.1199 0.800121C34.9784 0.69461 34.8065 0.637616 34.6299 0.637616C34.4534 0.637616 34.2815 0.69461 34.1399 0.800121C32.1639 2.12279 30.1139 3.33143 27.9999 4.42012C26.656 5.11443 25.2224 5.61922 23.7399 5.92012C20.6006 6.28367 17.4373 6.39736 14.2799 6.26012C12.8291 6.33713 11.3924 6.58552 9.99994 7.00012C8.45888 7.52431 7.00331 8.27232 5.67994 9.22012C3.78921 10.5586 2.07558 12.1311 0.579939 13.9001C0.510919 13.9863 0.460968 14.0861 0.433386 14.1929C0.405805 14.2998 0.401221 14.4113 0.419939 14.5201C0.253534 14.5988 0.122403 14.7366 0.0521404 14.9067C-0.0181219 15.0768 -0.0224719 15.267 0.0399394 15.4401C0.799939 17.9801 1.43994 20.6201 2.29994 23.2201C3.00877 25.4489 3.89839 27.6161 4.95994 29.7001C6.18712 32.1731 7.60473 34.5469 9.19994 36.8001C9.29643 36.9369 9.43246 37.0409 9.58977 37.0981C9.74708 37.1553 9.91813 37.163 10.0799 37.1201C10.0665 37.2981 10.116 37.4751 10.2199 37.6201C10.3483 37.771 10.5294 37.8674 10.7262 37.8897C10.9231 37.9119 11.1211 37.8585 11.2799 37.7401C13.1835 36.3509 15.1892 35.1074 17.2799 34.0201C19.2552 32.953 21.4001 32.2358 23.6199 31.9001C25.7975 31.548 27.9953 31.3342 30.1999 31.2601C32.5228 31.1597 34.832 30.8518 37.0999 30.3401C40.2337 29.6279 43.1159 28.0797 45.4399 25.8601C45.6104 25.713 45.7163 25.5049 45.735 25.2805C45.7537 25.0562 45.6837 24.8334 45.5399 24.6601C45.3737 24.5069 45.156 24.4219 44.9299 24.4219C44.7039 24.4219 44.4861 24.5069 44.3199 24.6601C42.0887 26.441 39.4372 27.6187 36.6199 28.0801C34.4371 28.3533 32.2398 28.4935 30.0399 28.5001C27.7181 28.5459 25.4039 28.7801 23.1199 29.2001C21.1343 29.6575 19.2271 30.4056 17.4599 31.4201C15.0679 32.8323 12.8234 34.4805 10.7599 36.3401C10.7809 36.221 10.7809 36.0992 10.7599 35.9801C9.47822 33.5227 8.3429 30.9916 7.35994 28.4001C6.67994 26.7001 6.03994 24.9801 5.35994 23.3001C4.15994 20.4601 2.79994 17.7001 1.55994 15.0001H1.73994C3.0344 13.712 4.46247 12.5655 5.99994 11.5801C7.4434 10.641 9.04122 9.964 10.7199 9.58012C12.0349 9.30252 13.3761 9.1684 14.7199 9.18012H21.4399C22.4321 9.09506 23.4155 8.92782 24.3799 8.68012C26.0566 8.23321 27.6646 7.56038 29.1599 6.68012C31.2407 5.32682 33.2438 3.85784 35.1599 2.28012C35.277 2.17283 35.3604 2.03388 35.3999 1.88012C36.9494 4.13818 38.3587 6.48927 39.6199 8.92012C40.1999 9.98012 40.7599 11.0401 41.3199 12.1201C41.8799 13.2001 42.4399 14.2601 42.9799 15.3601C44.2512 17.8348 45.3667 20.3864 46.3199 23.0001C46.35 23.1092 46.4013 23.2113 46.4709 23.3005C46.5404 23.3898 46.6269 23.4644 46.7254 23.5201C46.8239 23.5759 46.9324 23.6116 47.0447 23.6253C47.157 23.6391 47.2709 23.6305 47.3799 23.6001C47.5966 23.5352 47.7789 23.3875 47.8875 23.1891C47.996 22.9907 48.0221 22.7576 47.9599 22.5401C47.3721 19.6273 46.5358 16.7701 45.4599 14.0001Z" fill="#C8C8C8"/>
  <path fill-rule="evenodd" clip-rule="evenodd" d="M34.2196 23.12C34.1105 23.0901 33.9966 23.0826 33.8845 23.0978C33.7725 23.113 33.6647 23.1507 33.5676 23.2086C33.4705 23.2665 33.3861 23.3434 33.3194 23.4347C33.2527 23.526 33.2052 23.6298 33.1796 23.74C33.1494 23.8477 33.1411 23.9603 33.1551 24.0712C33.169 24.1822 33.205 24.2893 33.2609 24.3861C33.3168 24.483 33.3914 24.5677 33.4805 24.6354C33.5696 24.703 33.6712 24.7521 33.7796 24.78C35.0002 25.0898 36.2789 25.0898 37.4996 24.78C39.2348 24.3574 40.8991 23.6836 42.4396 22.78C42.7106 22.532 42.9081 22.2142 43.0104 21.8614C43.1127 21.5086 43.1159 21.1344 43.0196 20.78C42.5042 18.1908 41.629 15.6866 40.4196 13.34C39.5411 11.5082 38.4754 9.77228 37.2396 8.15996C36.6042 7.23702 35.6946 6.53734 34.6396 6.15996C34.0924 6.11056 33.5475 6.27548 33.1196 6.61996C31.6797 8.10154 29.9318 9.24859 27.9996 9.97996C27.8928 9.98914 27.7893 10.0208 27.6956 10.0728C27.602 10.1248 27.5204 10.196 27.4562 10.2818C27.3921 10.3675 27.3467 10.4659 27.3232 10.5704C27.2997 10.6749 27.2986 10.7832 27.3198 10.8881C27.3411 10.9931 27.3843 11.0924 27.4467 11.1795C27.509 11.2666 27.5891 11.3396 27.6816 11.3935C27.7741 11.4475 27.877 11.4814 27.9835 11.4928C28.09 11.5043 28.1977 11.4931 28.2996 11.46C29.346 11.279 30.3539 10.9205 31.2796 10.4C32.3984 9.96758 33.4651 9.41075 34.4596 8.73996L34.5596 8.87996C35.1484 9.6431 35.664 10.46 36.0996 11.32C37.0396 12.94 38.0996 14.94 38.8396 16.76C39.4064 17.972 39.9071 19.2138 40.3396 20.48C40.3396 20.68 40.4996 20.9 40.5596 21.06C39.4481 21.8054 38.2447 22.4037 36.9796 22.84C36.098 23.165 35.1484 23.2613 34.2196 23.12Z" fill="#C8C8C8"/>
  <path fill-rule="evenodd" clip-rule="evenodd" d="M10.3004 14.8802C11.3807 14.2509 12.5668 13.8239 13.8004 13.6202C15.1179 13.3592 16.4696 13.3187 17.8004 13.5002C17.9986 13.5297 18.2006 13.4818 18.3645 13.3664C18.5283 13.2509 18.6415 13.0768 18.6804 12.8802C18.6973 12.7773 18.6928 12.6719 18.6673 12.5708C18.6417 12.4696 18.5956 12.3748 18.5318 12.2923C18.468 12.2097 18.3879 12.1412 18.2965 12.091C18.2051 12.0407 18.1043 12.0098 18.0004 12.0002C16.5324 11.6641 15.0213 11.5561 13.5204 11.6802C11.9367 11.7762 10.3843 12.1627 8.94039 12.8202C8.14367 13.2894 7.42224 13.876 6.80039 14.5602C6.27663 15.1245 5.90498 15.8128 5.72039 16.5602C5.61013 17.0744 5.61013 17.6061 5.72039 18.1202C5.82969 18.6809 5.96991 19.235 6.14039 19.7802C6.42039 20.6402 6.68039 21.5602 7.00039 22.4402C7.32039 23.3202 7.68039 24.2202 8.08039 25.1002L10.0804 29.1002L10.6004 30.1402C10.7283 30.3657 10.9198 30.5486 11.151 30.666C11.3822 30.7833 11.6428 30.83 11.9004 30.8002C12.4604 30.6602 13.5004 29.6202 15.2604 28.8002C15.8959 28.4664 16.5667 28.2048 17.2604 28.0202C17.3822 28.0139 17.5013 27.9818 17.6098 27.9259C17.7182 27.87 17.8135 27.7917 17.8894 27.6962C17.9653 27.6007 18.0199 27.4901 18.0498 27.3718C18.0797 27.2536 18.084 27.1303 18.0626 27.0102C18.0411 26.8901 17.9944 26.7759 17.9254 26.6753C17.8565 26.5747 17.7669 26.4898 17.6627 26.4265C17.5584 26.3631 17.4419 26.3227 17.3208 26.3078C17.1997 26.2929 17.0769 26.304 16.9604 26.3402C16.0706 26.4772 15.1987 26.712 14.3604 27.0402C13.5958 27.3751 12.8657 27.7837 12.1804 28.2602L10.5004 24.1202L8.80039 19.0802C8.70039 18.7002 8.56039 18.3402 8.46039 17.9402C8.42082 17.7287 8.42082 17.5117 8.46039 17.3002C8.56056 16.899 8.76796 16.5326 9.06039 16.2402C9.42743 15.7467 9.84283 15.2911 10.3004 14.8802Z" fill="#C8C8C8"/>
</svg>