<svg xmlns="http://www.w3.org/2000/svg" width="42" height="48" viewBox="0 0 42 48" fill="none">
  <path fill-rule="evenodd" clip-rule="evenodd" d="M41.1002 27.06C40.2839 26.1645 39.3794 25.3537 38.4002 24.64C36.2025 22.9067 33.6894 21.6162 31.0002 20.84C30.0414 20.5349 29.0253 20.4538 28.0303 20.6029C27.0352 20.752 26.0875 21.1273 25.2602 21.7C25.1937 21.7492 25.1376 21.8113 25.0954 21.8825C25.0533 21.9537 25.0258 22.0327 25.0146 22.1147C25.0034 22.1967 25.0088 22.2801 25.0303 22.36C25.0519 22.44 25.0893 22.5147 25.1402 22.58C25.2435 22.7145 25.3946 22.8041 25.5622 22.8301C25.7298 22.8562 25.9009 22.8167 26.0402 22.72C26.7175 22.2901 27.4845 22.0214 28.282 21.9347C29.0796 21.8481 29.8863 21.9456 30.6402 22.22C31.3615 22.4271 32.0639 22.6947 32.7402 23.02C32.5042 23.301 32.2839 23.5948 32.0802 23.9C31.8879 24.1817 31.7142 24.4756 31.5602 24.78C31.4202 25.08 31.2802 25.4 31.1602 25.72C31.0402 26.04 30.8402 26.7 30.6802 27.2C30.269 27.2632 29.8768 27.416 29.5312 27.6476C29.1856 27.8791 28.8951 28.1838 28.6802 28.54L27.8802 30.16L27.0002 32.64C26.9787 32.7512 26.9902 32.8663 27.0333 32.971C27.0765 33.0757 27.1493 33.1655 27.2429 33.2293C27.3365 33.2932 27.4467 33.3282 27.56 33.3301C27.6732 33.3319 27.7845 33.3006 27.8802 33.24C27.8313 33.3077 27.7965 33.3846 27.778 33.4661C27.7596 33.5475 27.7577 33.6319 27.7727 33.7141C27.7876 33.7963 27.819 33.8746 27.865 33.9443C27.911 34.0141 27.9706 34.0738 28.0402 34.12C29.1402 35 30.3002 34.56 31.3002 33.62C32.0686 32.8718 32.6508 31.9539 33.0002 30.94C33.1718 30.4183 33.2265 29.8652 33.1602 29.32C33.0641 28.6485 32.7132 28.0397 32.1802 27.62C32.4202 27.3 32.6602 26.98 32.8802 26.62C33.1002 26.26 33.2402 26.06 33.4002 25.76C33.5604 25.4629 33.7007 25.1556 33.8202 24.84C33.9402 24.48 34.0602 24.12 34.1402 23.78C35.2724 24.4307 36.3494 25.1732 37.3602 26C37.978 26.4838 38.5658 27.0047 39.1202 27.56C39.4215 27.8495 39.6898 28.1714 39.9202 28.52C39.9202 28.52 40.0602 28.7 40.0402 28.78C39.9395 29.2056 39.7988 29.6208 39.6202 30.02C39.3661 30.6676 39.0791 31.3017 38.7602 31.92C37.4402 34.52 36.1802 37.66 34.5202 40.42C33.549 42.1528 32.2357 43.6702 30.6602 44.88C29.6598 45.4907 28.5277 45.853 27.3585 45.9365C26.1894 46.02 25.0173 45.8223 23.9402 45.36C22.8169 45.008 21.8077 44.3629 21.0167 43.491C20.2257 42.6192 19.6815 41.5522 19.4402 40.4C19.2145 38.2351 19.4812 36.0473 20.2202 34C21.3652 30.8158 22.701 27.7035 24.2202 24.68C24.2532 24.6135 24.2721 24.5409 24.2758 24.4667C24.2794 24.3925 24.2678 24.3184 24.2415 24.249C24.2152 24.1795 24.1749 24.1162 24.123 24.0631C24.0712 24.0099 24.009 23.968 23.9402 23.94C23.8049 23.8791 23.651 23.8744 23.5123 23.9269C23.3736 23.9794 23.2613 24.0848 23.2002 24.22C21.5644 27.2282 20.115 30.334 18.8602 33.52C17.975 35.7495 17.586 38.145 17.7202 40.54C17.9539 42.0448 18.5903 43.4584 19.5621 44.6309C20.5339 45.8034 21.8048 46.6911 23.2402 47.2C24.6345 47.8064 26.1558 48.0633 27.672 47.9483C29.1882 47.8333 30.6533 47.3499 31.9402 46.54C33.7761 45.1721 35.297 43.4261 36.4002 41.42C38.0602 38.6 39.2402 35.42 40.5402 32.68C40.8602 32.02 41.1602 31.32 41.4202 30.68C41.6062 30.1856 41.7534 29.6773 41.8602 29.16C41.8975 28.7755 41.8486 28.3875 41.7172 28.0242C41.5857 27.661 41.3749 27.3316 41.1002 27.06ZM30.1402 32.5C29.7602 32.98 29.3402 33.38 28.8202 33.08C28.712 33.0034 28.5828 32.9622 28.4502 32.9622C28.3176 32.9622 28.1884 33.0034 28.0802 33.08C28.091 33.0272 28.091 32.9728 28.0802 32.92C28.1992 32.5522 28.3394 32.1916 28.5002 31.84C28.6563 31.4943 28.8367 31.1601 29.0402 30.84L29.9602 29.64C30.135 29.4406 30.377 29.3124 30.6402 29.28C30.8402 29.28 30.9402 29.42 31.0002 29.72C31.0505 30.7191 30.7458 31.7038 30.1402 32.5Z" fill="#C8C8C8"/>
  <path fill-rule="evenodd" clip-rule="evenodd" d="M32.2 17.2C32.2869 17.2236 32.3778 17.2286 32.4668 17.2146C32.5558 17.2006 32.6408 17.168 32.7163 17.1189C32.7918 17.0699 32.8561 17.0054 32.905 16.9298C32.9539 16.8541 32.9862 16.769 33 16.68C33.22 16.16 33.54 15.72 33.76 15.22C33.9245 14.9023 34.052 14.5668 34.14 14.22C34.2602 13.5598 34.3271 12.891 34.34 12.22C34.3687 12.152 34.3832 12.0788 34.3825 12.005C34.3818 11.9311 34.3659 11.8582 34.3359 11.7907C34.306 11.7232 34.2624 11.6626 34.2081 11.6126C34.1538 11.5626 34.0897 11.5243 34.02 11.5C33.9519 11.4713 33.8787 11.4568 33.8049 11.4575C33.7311 11.4582 33.6581 11.4741 33.5907 11.5041C33.5232 11.5341 33.4626 11.5776 33.4126 11.6319C33.3626 11.6863 33.3243 11.7503 33.3 11.82C32.9251 12.2532 32.5841 12.7145 32.28 13.2C32.1516 13.4131 32.0508 13.6416 31.98 13.88C31.894 14.1116 31.8401 14.3538 31.82 14.6C31.7592 15.1851 31.7592 15.7749 31.82 16.36C31.7612 16.5219 31.768 16.7004 31.839 16.8574C31.91 17.0143 32.0395 17.1373 32.2 17.2Z" fill="#C8C8C8"/>
  <path fill-rule="evenodd" clip-rule="evenodd" d="M24.2804 16.78C24.5309 17.3915 24.8676 17.9639 25.2804 18.48C25.3574 18.631 25.4913 18.7454 25.6525 18.7979C25.8137 18.8504 25.9892 18.8367 26.1404 18.76C26.2685 18.6854 26.3678 18.5698 26.4222 18.432C26.4766 18.2941 26.483 18.1419 26.4404 18C26.3223 17.454 26.2553 16.8983 26.2404 16.34C26.1951 15.9631 26.1283 15.5892 26.0404 15.22C25.8224 14.5672 25.555 13.932 25.2404 13.32C25.2354 13.242 25.2141 13.1659 25.1779 13.0966C25.1417 13.0273 25.0914 12.9664 25.0303 12.9177C24.9691 12.869 24.8985 12.8337 24.8228 12.814C24.7472 12.7943 24.6683 12.7906 24.5911 12.8032C24.514 12.8159 24.4404 12.8445 24.375 12.8873C24.3096 12.9301 24.2538 12.9861 24.2114 13.0517C24.1689 13.1173 24.1407 13.1911 24.1285 13.2683C24.1162 13.3455 24.1203 13.4244 24.1404 13.5C24.1404 14.1 23.9404 14.68 23.9404 15.32C23.9209 15.5796 23.9209 15.8403 23.9404 16.1C24.0265 16.3392 24.1406 16.5675 24.2804 16.78Z" fill="#C8C8C8"/>
  <path fill-rule="evenodd" clip-rule="evenodd" d="M19.4003 20.82C19.9803 21.06 20.5603 21.18 21.1203 21.46C21.2596 21.5568 21.4307 21.5962 21.5983 21.5701C21.7659 21.5441 21.917 21.4545 22.0203 21.32C22.1159 21.1839 22.1547 21.0159 22.1286 20.8516C22.1025 20.6874 22.0134 20.5397 21.8803 20.44C21.4436 19.9358 20.9541 19.4799 20.4203 19.08C20.2027 18.9039 19.9682 18.7499 19.7203 18.62C19.4898 18.4931 19.2489 18.3861 19.0003 18.3C18.4003 18.1 17.8003 18.04 17.1803 17.86C17.0503 17.7857 16.8962 17.7661 16.7518 17.8055C16.6074 17.8449 16.4846 17.94 16.4103 18.07C16.336 18.2 16.3164 18.3541 16.3558 18.4985C16.3952 18.6429 16.4903 18.7657 16.6203 18.84C17.1299 19.3682 17.6854 19.8501 18.2803 20.28C18.6395 20.488 19.0139 20.6685 19.4003 20.82Z" fill="#C8C8C8"/>
  <path fill-rule="evenodd" clip-rule="evenodd" d="M7.7401 22.3598C6.54385 22.1633 5.32061 22.2041 4.1401 22.4798C3.71542 22.5379 3.28479 22.5379 2.8601 22.4798C2.7371 22.4854 2.61459 22.461 2.50311 22.4088C2.39162 22.3565 2.2945 22.2779 2.2201 22.1798C1.6801 21.3598 2.2201 20.6798 2.8801 20.1798C3.85344 19.609 4.97344 19.3377 6.1001 19.3998C6.24571 19.4169 6.3922 19.3762 6.50813 19.2864C6.62405 19.1967 6.70016 19.0651 6.7201 18.9198C6.73139 18.8462 6.72787 18.771 6.70975 18.6988C6.69163 18.6265 6.65927 18.5586 6.61457 18.499C6.56987 18.4394 6.51372 18.3893 6.44942 18.3517C6.38512 18.314 6.31396 18.2896 6.2401 18.2798C5.6361 18.1995 5.02411 18.1995 4.4201 18.2798C4.4125 18.2134 4.4125 18.1463 4.4201 18.0798C4.43976 17.9071 4.43976 17.7326 4.4201 17.5598C4.39853 17.4023 4.35825 17.2478 4.3001 17.0998C3.7201 15.3998 3.4801 15.3598 3.1401 15.3998C2.8001 15.4398 2.5001 15.3998 2.3001 17.3998C2.28045 17.5726 2.28045 17.7471 2.3001 17.9198C2.31842 18.091 2.35876 18.259 2.4201 18.4198L2.6001 18.7798C2.16976 18.9446 1.76029 19.1594 1.3801 19.4198C0.771155 19.8132 0.342939 20.4319 0.189245 21.1404C0.03555 21.8489 0.168906 22.5895 0.560103 23.1998C0.758583 23.5732 1.04385 23.8935 1.3919 24.1336C1.73994 24.3738 2.14058 24.5268 2.5601 24.5798C3.71719 24.6686 4.88096 24.6013 6.0201 24.3798C6.7001 24.3798 7.3601 24.1798 7.6201 24.8398C7.8801 25.4998 7.3001 26.1998 6.5401 26.6798C5.63897 27.2736 4.57908 27.5804 3.5001 27.5598C3.19901 27.5457 2.90502 27.4636 2.6401 27.3198C2.32085 27.1503 2.01935 26.9493 1.7401 26.7198C1.68217 26.6587 1.61239 26.61 1.53502 26.5767C1.45766 26.5435 1.37432 26.5263 1.2901 26.5263C1.20589 26.5263 1.12255 26.5435 1.04518 26.5767C0.967816 26.61 0.898036 26.6587 0.840103 26.7198C0.726228 26.842 0.662908 27.0028 0.662908 27.1698C0.662908 27.3368 0.726228 27.4977 0.840103 27.6198C1.22689 27.9898 1.65662 28.3121 2.1201 28.5798C2.47992 28.7563 2.86422 28.8776 3.2601 28.9398C3.59219 28.9806 3.92802 28.9806 4.2601 28.9398C4.2601 28.9398 4.2601 28.9398 4.2601 29.0398C4.24045 29.2126 4.24045 29.387 4.2601 29.5598C4.28167 29.7174 4.32196 29.8718 4.3801 30.0198C4.9601 31.7198 5.2001 31.7598 5.5401 31.7198C5.8801 31.6798 6.1801 31.8198 6.3801 29.7198C6.39976 29.547 6.39976 29.3726 6.3801 29.1998C6.36178 29.0287 6.32145 28.8606 6.2601 28.6998C6.21865 28.6305 6.1851 28.5567 6.1601 28.4798C6.86947 28.2855 7.54423 27.9819 8.1601 27.5798C8.74382 27.2114 9.19082 26.6619 9.4328 26.0154C9.67478 25.3689 9.69842 24.661 9.5001 23.9998C9.35763 23.6066 9.12375 23.2528 8.81776 22.9677C8.51176 22.6826 8.1424 22.4742 7.7401 22.3598Z" fill="#C8C8C8"/>
  <path fill-rule="evenodd" clip-rule="evenodd" d="M14.5997 13.26L14.4797 13.06C15.1592 12.8099 15.794 12.452 16.3597 12C16.9603 11.6054 17.4084 11.0179 17.6302 10.3343C17.852 9.65078 17.8342 8.91205 17.5797 8.24C17.424 7.84307 17.1758 7.48903 16.8558 7.20728C16.5358 6.92552 16.1531 6.72419 15.7397 6.62C14.5333 6.46173 13.3071 6.5571 12.1397 6.9C11.7201 6.99581 11.2898 7.03616 10.8597 7.02C10.7402 7.03539 10.6188 7.02359 10.5045 6.9855C10.3902 6.94741 10.286 6.884 10.1997 6.8C9.61969 6 10.0597 5.32 10.7797 4.8C11.7375 4.2254 12.844 3.94705 13.9597 4C14.1071 4.00587 14.2512 3.95536 14.3626 3.85876C14.4741 3.76216 14.5445 3.62672 14.5597 3.48C14.5651 3.40642 14.556 3.33249 14.5328 3.26246C14.5096 3.19243 14.4727 3.12767 14.4244 3.07192C14.3761 3.01616 14.3172 2.9705 14.2512 2.93757C14.1852 2.90463 14.1133 2.88507 14.0397 2.88C13.443 2.79099 12.8364 2.79099 12.2397 2.88C12.2397 2.88 12.2397 2.74 12.2397 2.66C12.2496 2.49348 12.2496 2.32652 12.2397 2.16C12.2111 1.98641 12.1572 1.81795 12.0797 1.66C11.4197 0 11.1797 0 10.8397 0C10.4997 0 10.2197 0 10.0997 2C10.08 2.17278 10.08 2.34722 10.0997 2.52C10.1157 2.69377 10.1631 2.86319 10.2397 3.02L10.4397 3.36C10.013 3.51902 9.60945 3.73425 9.23969 4C8.94134 4.2091 8.68768 4.47561 8.49356 4.78393C8.29944 5.09225 8.16876 5.43618 8.10917 5.79561C8.04957 6.15504 8.06226 6.52275 8.14649 6.87722C8.23071 7.23168 8.38479 7.56579 8.59969 7.86C8.80994 8.21473 9.10035 8.51527 9.44766 8.73755C9.79497 8.95983 10.1895 9.09766 10.5997 9.14C11.7576 9.18183 12.9156 9.06064 14.0397 8.78C14.7197 8.78 15.3797 8.5 15.6597 9.16C15.9397 9.82 15.4197 10.54 14.6797 11.04C13.7936 11.6435 12.7515 11.977 11.6797 12C11.3739 11.991 11.0737 11.916 10.7997 11.78C10.4735 11.6276 10.1649 11.4398 9.87969 11.22C9.74443 11.1166 9.57362 11.0711 9.40484 11.0936C9.23606 11.1161 9.08313 11.2047 8.97969 11.34C8.87626 11.4753 8.83079 11.6461 8.8533 11.8149C8.8758 11.9836 8.96443 12.1366 9.09969 12.24C9.50916 12.592 9.95897 12.8941 10.4397 13.14C10.8017 13.3026 11.1859 13.4105 11.5797 13.46C11.9185 13.4995 12.2608 13.4995 12.5997 13.46C12.5706 13.6321 12.5706 13.8079 12.5997 13.98C12.6371 14.136 12.6838 14.2896 12.7397 14.44C13.3997 16.1 13.6397 16.12 13.9797 16.08C14.3197 16.04 14.6197 16.08 14.7397 14.08C14.7501 13.9068 14.7501 13.7332 14.7397 13.56C14.6976 13.4579 14.6509 13.3578 14.5997 13.26Z" fill="#C8C8C8"/>
</svg>