<svg xmlns="http://www.w3.org/2000/svg" width="48" height="42" viewBox="0 0 48 42" fill="none">
  <path fill-rule="evenodd" clip-rule="evenodd" d="M24.2802 23.0001C25.8297 23.287 27.4246 23.2117 28.9402 22.7801C31.0677 22.1121 33.0883 21.1422 34.9402 19.9001C35.0204 19.8403 35.0843 19.7614 35.1262 19.6705C35.1682 19.5797 35.1867 19.4799 35.1802 19.3801C35.6888 19.9758 36.2297 20.5433 36.8002 21.0801C37.0837 21.3542 37.3916 21.6019 37.7202 21.8201C38.0404 22.0635 38.3817 22.2777 38.7402 22.4601C39.5602 22.9401 40.4002 23.3201 41.2602 23.7201C41.3307 23.7685 41.4102 23.8024 41.4941 23.8196C41.5779 23.8368 41.6643 23.837 41.7482 23.8202C41.8321 23.8034 41.9118 23.77 41.9826 23.7219C42.0533 23.6737 42.1137 23.6119 42.1602 23.5401C42.254 23.3929 42.2876 23.2153 42.2541 23.0441C42.2206 22.8728 42.1225 22.721 41.9802 22.6201C41.2602 22.0201 40.6202 21.3801 39.9802 20.7801C39.6934 20.5178 39.393 20.2708 39.0802 20.0401C38.7602 19.8201 38.4402 19.6001 38.1002 19.4001C37.7602 19.2001 36.9402 18.7601 36.3402 18.4801L36.5602 18.3401C36.9456 18.0648 37.3009 17.7498 37.6202 17.4001C38.4829 16.4456 39.1125 15.3041 39.4596 14.0652C39.8066 12.8263 39.8616 11.5238 39.6202 10.2601C39.1758 7.75564 37.9672 5.45014 36.1602 3.66006C34.5356 2.01095 32.4391 0.90681 30.1602 0.500061C27.8046 0.104999 25.3853 0.566144 23.3402 1.80006C21.6463 2.76106 20.1142 3.98268 18.8002 5.42006C17.9245 6.4392 17.2462 7.61255 16.8002 8.88006C16.3488 10.3098 16.1923 11.8163 16.3401 13.3082C16.4879 14.8002 16.937 16.2467 17.6602 17.5601C18.2916 18.9007 19.2131 20.0842 20.358 21.025C21.5029 21.9658 22.8426 22.6405 24.2802 23.0001ZM18.7602 9.64006C19.27 8.36834 20.0398 7.2171 21.0202 6.26006C22.0756 5.27594 23.2358 4.41074 24.4802 3.68006C26.0769 2.68091 27.975 2.27721 29.8402 2.54006C31.7388 2.82298 33.505 3.68162 34.9002 5.00006C36.4965 6.46996 37.5825 8.41065 38.0002 10.5401C38.247 11.5831 38.2453 12.6695 37.9952 13.7117C37.7451 14.7539 37.2535 15.7227 36.5602 16.5401C36.2402 16.9024 35.8775 17.2247 35.4802 17.5001C35.0634 17.7927 34.6293 18.0599 34.1802 18.3001C34.0277 18.381 33.913 18.5184 33.8607 18.6829C33.8083 18.8474 33.8225 19.0259 33.9002 19.1801C32.2226 20.1837 30.4112 20.9445 28.5202 21.4401C27.2052 21.753 25.8352 21.753 24.5202 21.4401C23.3647 21.0682 22.3025 20.4526 21.4054 19.6348C20.5083 18.8171 19.7972 17.8163 19.3202 16.7001C18.2097 14.5127 18.0084 11.9751 18.7602 9.64006Z" fill="#C8C8C8"/>
  <path fill-rule="evenodd" clip-rule="evenodd" d="M23.3397 17.3602L26.0197 17.7802H27.6797C28.9797 17.7802 30.1997 17.4202 31.4997 17.4402C31.6687 17.4575 31.8379 17.4089 31.972 17.3046C32.1061 17.2003 32.1949 17.0483 32.2197 16.8802C32.2426 16.708 32.1966 16.5337 32.0917 16.3952C31.9869 16.2566 31.8317 16.165 31.6597 16.1402C30.53 15.8326 29.3695 15.6515 28.1997 15.6002L29.6997 9.00022C29.8658 8.25037 29.9661 7.48749 29.9997 6.72022C30.0088 6.27508 29.9271 5.83277 29.7597 5.42022C29.6899 5.2312 29.5687 5.06547 29.4096 4.94177C29.2506 4.81807 29.0601 4.74133 28.8597 4.72021C28.0597 4.72021 28.1997 4.94022 26.9597 6.18022L24.6197 8.66021C24.5083 8.761 24.4415 8.9019 24.434 9.05193C24.4265 9.20196 24.4789 9.34882 24.5797 9.46022C24.6805 9.57161 24.8214 9.6384 24.9714 9.6459C25.1215 9.6534 25.2683 9.601 25.3797 9.50022L27.6997 7.82021C27.6997 8.14021 27.5797 8.44021 27.5397 8.70021L27.1797 11.5002C27.0197 12.8802 26.8997 14.2602 26.8397 15.6602H25.9597L23.2197 16.1402C23.1361 16.1361 23.0527 16.1502 22.975 16.1814C22.8974 16.2126 22.8274 16.2602 22.7699 16.321C22.7124 16.3818 22.6688 16.4543 22.6419 16.5336C22.6151 16.6129 22.6058 16.697 22.6145 16.7802C22.6233 16.8635 22.6499 16.9438 22.6927 17.0157C22.7354 17.0877 22.7932 17.1495 22.8621 17.197C22.931 17.2445 23.0094 17.2766 23.0918 17.2909C23.1743 17.3053 23.2588 17.3016 23.3397 17.2802V17.3602Z" fill="#C8C8C8"/>
  <path fill-rule="evenodd" clip-rule="evenodd" d="M4.34018 15.0003C4.45135 15.1043 4.59792 15.1622 4.75018 15.1622C4.90245 15.1622 5.04901 15.1043 5.16018 15.0003C5.2134 14.9481 5.25568 14.8859 5.28454 14.8172C5.3134 14.7485 5.32826 14.6748 5.32826 14.6003C5.32826 14.5258 5.3134 14.452 5.28454 14.3833C5.25568 14.3146 5.2134 14.2524 5.16018 14.2003C4.83282 13.6693 4.44341 13.1792 4.00018 12.7403C3.80939 12.5522 3.59412 12.3908 3.36018 12.2603C3.13382 12.1252 2.8921 12.0178 2.64018 11.9403C2.05405 11.7591 1.4509 11.6385 0.840182 11.5803C0.675723 11.5225 0.495092 11.5321 0.337716 11.6071C0.18034 11.682 0.0590005 11.8162 0.000182502 11.9803C-0.0575795 12.1447 -0.0479378 12.3254 0.027003 12.4827C0.101944 12.6401 0.236098 12.7614 0.400183 12.8203C0.880183 13.1203 1.26018 13.4603 1.70018 13.7803C1.86904 13.9162 2.04977 14.0367 2.24018 14.1403L2.80018 14.4603C3.34018 14.6803 3.82018 14.8003 4.34018 15.0003Z" fill="#C8C8C8"/>
  <path fill-rule="evenodd" clip-rule="evenodd" d="M5.38007 8.39995C5.58282 8.7772 5.82411 9.13243 6.10007 9.45995C6.61477 10.0206 7.17685 10.5359 7.78007 11C7.87874 11.0953 8.00801 11.1525 8.14491 11.1616C8.28181 11.1706 8.41748 11.1308 8.52781 11.0492C8.63814 10.9677 8.71599 10.8497 8.74753 10.7161C8.77907 10.5826 8.76225 10.4422 8.70007 10.32C8.44007 9.65995 8.28007 8.99995 8.00007 8.45995C7.87781 8.20146 7.72324 7.95953 7.54007 7.73995C7.37977 7.4744 7.19208 7.22638 6.98007 6.99995C6.46989 6.51734 5.90623 6.0946 5.30007 5.73995C5.24039 5.67826 5.16892 5.6292 5.08989 5.59569C5.01087 5.56219 4.92591 5.54492 4.84007 5.54492C4.75424 5.54492 4.66928 5.56219 4.59026 5.59569C4.51123 5.6292 4.43975 5.67826 4.38007 5.73995C4.26034 5.86314 4.19336 6.02816 4.19336 6.19995C4.19336 6.37174 4.26034 6.53676 4.38007 6.65995C4.82007 7.29995 5.04007 7.85995 5.38007 8.39995Z" fill="#C8C8C8"/>
  <path fill-rule="evenodd" clip-rule="evenodd" d="M12.5402 9.00029C12.5652 9.13318 12.6358 9.25316 12.7399 9.33948C12.844 9.42581 12.975 9.47305 13.1102 9.47305C13.2454 9.47305 13.3764 9.42581 13.4805 9.33948C13.5845 9.25316 13.6552 9.13318 13.6802 9.00029C13.8236 8.34002 13.9304 7.67234 14.0002 7.00029C14.03 6.74784 14.03 6.49275 14.0002 6.24029V5.46029C14.0002 4.84029 13.7602 4.28029 13.6602 3.64029C13.6609 3.48045 13.6018 3.32614 13.4944 3.2077C13.3871 3.08926 13.2393 3.01528 13.0802 3.00029C12.9945 2.99489 12.9086 3.00678 12.8276 3.03527C12.7466 3.06375 12.6722 3.10824 12.6087 3.16609C12.5453 3.22394 12.4941 3.29397 12.4583 3.372C12.4225 3.45003 12.4027 3.53447 12.4002 3.62029C12.2402 4.26029 12.0802 4.84029 11.9602 5.48029C11.9404 5.75327 11.9404 6.02732 11.9602 6.30029C11.9583 6.53425 11.9716 6.76808 12.0002 7.00029C12.1245 7.68075 12.3052 8.34971 12.5402 9.00029Z" fill="#C8C8C8"/>
  <path fill-rule="evenodd" clip-rule="evenodd" d="M8.30052 15.7005C8.16225 16.2318 8.06859 16.7737 8.02052 17.3205L7.40052 22.8205C7.16052 24.8205 6.96052 26.8205 6.88052 28.8205C6.80403 31.8313 6.91759 34.844 7.22052 37.8405C7.22301 37.9159 7.24069 37.9899 7.27249 38.0582C7.30429 38.1266 7.34956 38.1878 7.40559 38.2382C7.46161 38.2886 7.52724 38.3272 7.59854 38.3517C7.66984 38.3761 7.74534 38.3859 7.82052 38.3805C7.8967 38.3779 7.97162 38.3604 8.04101 38.3288C8.11039 38.2972 8.17287 38.2523 8.22488 38.1966C8.27689 38.1409 8.31741 38.0754 8.34411 38.004C8.37082 37.9327 8.38319 37.8567 8.38052 37.7805C8.38052 35.7805 8.38052 33.7805 8.66052 31.8805C8.66052 30.7005 8.90052 29.5405 9.00052 28.3605C9.18052 26.6005 9.34052 24.8405 9.56052 23.1005L9.82052 17.5205C9.82052 17.2605 10.2005 16.4205 9.82052 16.2205C10.1228 16.034 10.4661 15.9241 10.8205 15.9005H13.3005C13.4693 15.912 13.636 15.8582 13.7663 15.7502C13.8966 15.6423 13.9804 15.4885 14.0005 15.3205C14.0032 15.2348 13.9886 15.1494 13.9577 15.0695C13.9267 14.9895 13.88 14.9166 13.8203 14.855C13.7606 14.7934 13.6891 14.7445 13.6101 14.7111C13.5312 14.6777 13.4463 14.6605 13.3605 14.6605C12.3369 14.4857 11.2986 14.4121 10.2605 14.4405C9.73562 14.506 9.23454 14.6982 8.80052 15.0005C8.56822 15.1792 8.3942 15.4228 8.30052 15.7005Z" fill="#C8C8C8"/>
  <path fill-rule="evenodd" clip-rule="evenodd" d="M47.3803 40.3403L43.7803 40.0403C43.9803 38.9403 44.1603 37.9003 44.3403 36.7403C44.5007 35.6198 44.6008 34.4915 44.6403 33.3603C44.5952 33.0893 44.4702 32.838 44.2814 32.6384C44.0925 32.4389 43.8484 32.3003 43.5803 32.2403C42.7803 32.0003 40.6603 31.7003 40.4603 31.6603C39.5967 31.4363 38.7222 31.2561 37.8403 31.1203C37.6278 31.0971 37.4127 31.1229 37.2116 31.1957C37.0105 31.2685 36.8288 31.3864 36.6803 31.5403C36.408 31.88 36.235 32.2884 36.1803 32.7203C36.0908 33.383 36.0573 34.052 36.0803 34.7203V39.4003L31.2203 39.0003H30.6803L31.2003 31.7803C31.2999 30.9443 31.3334 30.1016 31.3003 29.2603C31.2879 28.7597 31.1649 28.2679 30.9403 27.8203C30.6349 27.3682 30.171 27.0471 29.6403 26.9203C28.4834 26.676 27.3027 26.5619 26.1203 26.5803H24.5003C24.1466 26.567 23.7937 26.6213 23.4603 26.7403C23.2405 26.8352 23.0463 26.9807 22.8934 27.1649C22.7404 27.3491 22.6332 27.5668 22.5803 27.8003C22.3949 29.1252 22.3146 30.4627 22.3403 31.8003L22.1203 38.8003H20.0003L17.2003 39.0003C17.2003 37.4203 17.4003 35.5603 17.5203 33.6003C17.5203 32.1803 17.6803 30.7003 17.7203 29.2603V21.9603C17.7286 21.8852 17.7216 21.8091 17.6996 21.7367C17.6777 21.6644 17.6414 21.5972 17.5928 21.5393C17.5442 21.4813 17.4843 21.4338 17.4169 21.3996C17.3495 21.3654 17.2758 21.3453 17.2003 21.3403C17.1241 21.332 17.047 21.3389 16.9734 21.3606C16.8999 21.3823 16.8313 21.4184 16.7718 21.4668C16.7123 21.5151 16.663 21.5748 16.6267 21.6424C16.5904 21.7099 16.5678 21.784 16.5603 21.8603C16.2803 23.6003 15.8803 25.8603 15.6203 28.2203C15.5203 29.1203 15.4803 30.0403 15.4203 30.9803C15.3603 31.9203 15.4203 32.8203 15.4203 33.7403C15.4203 35.7403 15.5803 37.5203 15.7403 39.1003C11.5803 39.4003 7.42034 39.8003 3.24034 39.7603C3.10745 39.7853 2.98747 39.856 2.90115 39.96C2.81482 40.0641 2.76758 40.1951 2.76758 40.3303C2.76758 40.4655 2.81482 40.5965 2.90115 40.7006C2.98747 40.8047 3.10745 40.8753 3.24034 40.9003C5.36034 41.0603 7.48034 41.1003 9.60034 41.1003C12.5003 41.0003 15.4403 41.0003 18.4003 41.0003H24.2003L47.3003 41.7203C47.3948 41.7233 47.4888 41.7065 47.5764 41.6711C47.664 41.6357 47.7432 41.5824 47.8091 41.5147C47.875 41.4469 47.926 41.3662 47.9589 41.2776C47.9918 41.1891 48.0059 41.0946 48.0003 41.0003C48.003 40.9163 47.9891 40.8325 47.9594 40.7538C47.9296 40.6752 47.8847 40.6031 47.8271 40.5418C47.7695 40.4805 47.7005 40.4312 47.6238 40.3966C47.5471 40.362 47.4644 40.3429 47.3803 40.3403ZM23.3803 38.7203L24.2403 31.8403C24.3578 30.8301 24.5381 29.8281 24.7803 28.8403H26.1603C28.5603 28.8403 29.2203 28.6403 29.3203 29.8003V31.8003V39.0003C27.6603 39.0003 26.0003 38.8403 24.2603 38.7803L23.3803 38.7203ZM38.0003 34.8203C38.0003 34.5203 38.0003 34.0403 38.1603 33.5803L40.1603 33.8403C40.3003 33.8403 41.7603 34.0203 42.6603 34.1803C42.7003 34.9732 42.7003 35.7675 42.6603 36.5603C42.6603 37.6803 42.5003 38.8003 42.4003 39.9003L37.4603 39.5003L38.0003 34.8203Z" fill="#C8C8C8"/>
</svg>