<svg xmlns="http://www.w3.org/2000/svg" width="48" height="48" viewBox="0 0 48 48" fill="none">
  <path fill-rule="evenodd" clip-rule="evenodd" d="M42.14 21.5198C41.6475 21.8581 41.1917 22.2469 40.78 22.6798C40.6544 22.7818 40.5737 22.9288 40.555 23.0895C40.5363 23.2502 40.5812 23.4118 40.68 23.5398C41.18 24.1598 41.66 23.5398 42.68 22.9998C43.0208 22.8842 43.383 22.846 43.7404 22.8881C44.0979 22.9301 44.4414 23.0514 44.746 23.243C45.0506 23.4346 45.3087 23.6917 45.5014 23.9956C45.6941 24.2995 45.8166 24.6426 45.86 24.9998C45.7458 26.1098 45.2918 27.1575 44.56 27.9998C43.48 26.9798 41.1 24.9598 40.46 24.3198C40.3983 24.2542 40.3242 24.2013 40.2421 24.1643C40.1599 24.1272 40.0713 24.1067 39.9812 24.104C39.8911 24.1012 39.8014 24.1161 39.7171 24.148C39.6328 24.1799 39.5556 24.2281 39.49 24.2898C39.4243 24.3516 39.3715 24.4256 39.3344 24.5078C39.2974 24.5899 39.2769 24.6786 39.2741 24.7686C39.2713 24.8587 39.2863 24.9484 39.3182 25.0327C39.3501 25.117 39.3983 25.1942 39.46 25.2598C40.06 25.9398 42.46 28.1598 43.46 29.2598C42.52 30.0798 41.24 31.6198 35.3 37.6198C35.0448 36.8761 34.6242 36.1999 34.0699 35.6422C33.5156 35.0845 32.8421 34.6597 32.1 34.3998C34.1 31.8798 36.86 28.7798 38.72 26.6398C39.04 26.1798 38.72 25.3598 37.94 25.7598C37.76 25.8598 28.68 34.9598 28.42 36.0998C27.44 40.5598 27 42.1998 27.58 42.8998C27.8697 43.1431 28.2124 43.315 28.5805 43.4018C28.9487 43.4887 29.3321 43.488 29.7 43.3998C31.3128 43.0958 32.8704 42.5496 34.32 41.7798C35 41.2998 45.66 29.5998 47.18 27.1998C47.7684 26.494 48.0843 25.6006 48.0701 24.6817C48.0559 23.7629 47.7127 22.8796 47.1028 22.1922C46.4929 21.5049 45.6567 21.059 44.7461 20.9357C43.8355 20.8123 42.9108 21.0196 42.14 21.5198ZM29.64 41.3598C30.3 35.9398 30.34 36.5798 31.1 35.5998C31.9463 36.7955 32.9638 37.8603 34.12 38.7598L33.02 39.7998C31.9755 40.482 30.8367 41.0076 29.64 41.3598Z" fill="#C8C8C8"/>
  <path fill-rule="evenodd" clip-rule="evenodd" d="M25.78 45.2399C22.56 45.2399 6.06002 46.5199 4.22002 43.8999C2.62002 41.6199 2.22002 18.6199 2.34001 13.3199C2.34001 7.65988 2.58001 11.3199 2.50002 5.45988C4.44173 4.7326 6.45193 4.20325 8.50002 3.87988C13.8007 3.14958 19.1503 2.83528 24.5 2.93988C25.874 2.77958 27.2599 2.74611 28.64 2.83988L35.94 9.83988C36.2156 10.7543 36.4097 11.6913 36.52 12.6399C37.56 19.7199 37.14 21.1599 38.3 20.9599C38.3899 20.9455 38.4761 20.9131 38.5532 20.8648C38.6304 20.8164 38.6971 20.753 38.7494 20.6784C38.8016 20.6038 38.8383 20.5195 38.8573 20.4304C38.8763 20.3413 38.8772 20.2493 38.86 20.1599C38.46 17.6399 38.12 9.69988 37.1 8.71988C29.2 1.37988 30 0.919883 27.52 0.879883C26.46 0.879883 25.18 1.07988 24.44 1.01988C19.48 0.679883 7.58002 0.939883 2.00002 3.19988C-0.539985 4.17988 0.380015 6.21988 0.200015 8.41988C-0.2007 17.6609 0.0733604 26.9188 1.02002 36.1199C1.84002 43.6599 1.98002 45.2399 4.66002 46.2199C9.36001 47.9399 20.24 46.6799 25.8 46.4599C25.9425 46.4317 26.0706 46.3543 26.1619 46.2413C26.2532 46.1283 26.3019 45.9868 26.2995 45.8415C26.2971 45.6963 26.2438 45.5565 26.1489 45.4465C26.0539 45.3365 25.9234 45.2634 25.78 45.2399Z" fill="#C8C8C8"/>
  <path fill-rule="evenodd" clip-rule="evenodd" d="M11.7398 18.8798C12.675 16.7981 13.3468 14.6078 13.7398 12.3598C13.7871 12.2701 13.8138 12.171 13.8179 12.0696C13.822 11.9683 13.8033 11.8673 13.7633 11.7741C13.7233 11.6809 13.663 11.5978 13.5867 11.531C13.5104 11.4641 13.4202 11.4152 13.3225 11.3877C13.2249 11.3602 13.1224 11.355 13.0224 11.3723C12.9225 11.3896 12.8277 11.429 12.745 11.4877C12.6622 11.5464 12.5937 11.6228 12.5444 11.7114C12.495 11.8 12.4661 11.8986 12.4598 11.9998C8.45976 21.6398 8.65976 19.3998 7.13976 18.5598C6.97524 18.4393 6.7823 18.3635 6.57976 18.3398C6.19976 18.3398 5.99976 18.4798 5.93976 18.7598C5.87976 19.0398 7.93976 21.0198 8.05976 21.1598C9.61976 22.3998 10.8198 20.6998 11.7398 18.8798Z" fill="#C8C8C8"/>
  <path fill-rule="evenodd" clip-rule="evenodd" d="M8.83968 34.24C11.6797 36.56 13.7997 29.0799 14.5597 25.4599C14.5859 25.3733 14.5949 25.2823 14.586 25.1922C14.5771 25.102 14.5505 25.0145 14.5078 24.9347C14.4651 24.8548 14.407 24.7842 14.337 24.7267C14.267 24.6693 14.1863 24.6262 14.0997 24.5999C14.013 24.5737 13.922 24.5648 13.8319 24.5737C13.7418 24.5826 13.6543 24.6091 13.5744 24.6518C13.4945 24.6946 13.4239 24.7526 13.3665 24.8226C13.309 24.8926 13.2659 24.9733 13.2397 25.0599C12.7997 26.1599 12.4397 26.8 10.1997 31.4399C9.39968 33.0999 9.91968 32.74 7.91968 31.62C7.74517 31.5188 7.55637 31.4446 7.35968 31.3999C6.97968 31.3999 6.75968 31.5599 6.69968 31.8399C6.63968 32.1199 8.47968 34 8.83968 34.24Z" fill="#C8C8C8"/>
  <path fill-rule="evenodd" clip-rule="evenodd" d="M23.0399 16.2799C20.501 16.4418 17.9831 16.8435 15.5199 17.4799C15.3608 17.4799 15.2082 17.5431 15.0957 17.6556C14.9831 17.7682 14.9199 17.9208 14.9199 18.0799C14.9199 18.239 14.9831 18.3916 15.0957 18.5042C15.2082 18.6167 15.3608 18.6799 15.5199 18.6799C18.9274 19.0272 22.369 18.7973 25.6999 17.9999C26.9799 17.7999 29.1599 17.6399 28.0599 16.6199C26.4112 16.2686 24.7209 16.1541 23.0399 16.2799Z" fill="#C8C8C8"/>
  <path fill-rule="evenodd" clip-rule="evenodd" d="M28.8801 30.7599C29.0084 30.629 29.0802 30.4531 29.0802 30.2699C29.0802 30.0866 29.0084 29.9107 28.8801 29.7799C27.2253 29.4245 25.5296 29.2966 23.8401 29.3999C21.3086 29.5567 18.7975 29.9517 16.3401 30.5799C16.1973 30.6058 16.0681 30.6811 15.975 30.7926C15.882 30.9041 15.8311 31.0447 15.8311 31.1899C15.8311 31.3351 15.882 31.4757 15.975 31.5871C16.0681 31.6986 16.1973 31.7739 16.3401 31.7999C18.8915 32.0469 21.4632 31.9864 24.0001 31.6199C28.3801 30.9799 28.7201 30.9199 28.8801 30.7599Z" fill="#C8C8C8"/>
</svg>