<svg width="1440" height="547" viewBox="0 0 1440 547" fill="none" xmlns="http://www.w3.org/2000/svg">
<path d="M0 0H1440V547H0V0Z" fill="#03002A"/>
<path d="M822.653 543.221V522.276C821.705 524.376 819.277 527.42 815.37 531.41C811.569 535.399 806.502 539.021 800.169 542.276C793.834 545.425 786.444 547 778 547C765.33 547 754.247 543.955 744.746 537.866C735.244 531.672 727.856 523.431 722.577 513.142C717.299 502.749 714.659 491.253 714.659 478.655C714.659 466.056 717.299 454.613 722.577 444.325C727.856 433.931 735.244 425.637 744.746 419.443C754.247 413.249 765.33 410.152 778 410.152C786.127 410.152 793.253 411.464 799.376 414.089C805.499 416.608 810.462 419.653 814.262 423.223C818.062 426.687 820.701 429.889 822.179 432.829V413.931H870V543.221H822.653ZM761.847 478.655C761.847 484.534 763.219 489.836 765.964 494.56C768.709 499.179 772.351 502.801 776.89 505.426C781.536 508.05 786.656 509.363 792.25 509.363C798.056 509.363 803.176 508.05 807.61 505.426C812.044 502.801 815.529 499.179 818.062 494.56C820.702 489.836 822.021 484.534 822.021 478.655C822.021 472.776 820.702 467.526 818.062 462.907C815.529 458.183 812.044 454.508 807.61 451.884C803.176 449.154 798.056 447.789 792.25 447.789C786.656 447.789 781.536 449.154 776.89 451.884C772.351 454.508 768.709 458.183 765.964 462.907C763.219 467.526 761.847 472.776 761.847 478.655Z" fill="url(#paint0_linear_1120_20453)"/>
<path d="M648.576 543.079V413.79H696.714V543.079H648.576Z" fill="url(#paint1_linear_1120_20453)"/>
<path d="M523.748 413.891H545.917V360.821H593.579V413.891H622.716V453.26H593.579V489.322C593.579 494.677 594.37 499.033 595.954 502.393C597.538 505.648 600.44 507.275 604.664 507.275C607.514 507.275 609.942 506.645 611.948 505.385C613.954 504.125 615.166 503.285 615.59 502.865L632.058 536.88C631.32 537.51 628.997 538.665 625.09 540.345C621.289 542.025 616.434 543.547 610.523 544.912C604.612 546.277 598.013 546.959 590.729 546.959C577.745 546.959 567.028 543.337 558.585 536.093C550.139 528.744 545.917 517.458 545.917 502.236V453.26H523.748V413.891Z" fill="url(#paint2_linear_1120_20453)"/>
<path d="M457.505 410.152C466.056 410.152 473.868 410.887 480.942 412.357C488.015 413.721 493.926 415.296 498.677 417.081C503.533 418.866 506.646 420.335 508.019 421.49L492.344 449.679C490.338 448.209 486.591 446.319 481.101 444.01C475.717 441.7 469.699 440.545 463.049 440.545C457.982 440.545 453.705 441.333 450.222 442.907C446.739 444.377 444.997 446.739 444.997 449.994C444.997 453.248 446.896 455.873 450.696 457.868C454.603 459.757 460.198 461.437 467.483 462.907C473.816 464.167 480.256 466.161 486.8 468.891C493.345 471.621 498.782 475.663 503.111 481.017C507.545 486.266 509.763 493.3 509.763 502.119C509.763 511.148 507.809 518.602 503.902 524.481C499.997 530.36 494.824 534.927 488.385 538.181C481.945 541.436 474.978 543.693 467.483 544.953C459.988 546.318 452.702 547 445.631 547C435.708 547 427.05 546.108 419.662 544.323C412.376 542.538 406.465 540.491 401.927 538.181C397.386 535.872 394.219 534.034 392.425 532.67L407.942 501.174C410.687 503.484 415.173 506.108 421.403 509.048C427.631 511.882 434.228 513.3 441.197 513.3C447.952 513.3 453.179 512.302 456.874 510.308C460.567 508.313 462.416 505.688 462.416 502.434C462.416 499.809 461.517 497.71 459.723 496.135C457.929 494.56 455.394 493.195 452.123 492.04C448.85 490.886 444.89 489.836 440.246 488.891C436.022 488.051 431.536 486.738 426.786 484.954C422.035 483.169 417.549 480.754 413.327 477.71C409.105 474.56 405.674 470.623 403.034 465.899C400.395 461.175 399.075 455.453 399.075 448.734C399.075 440.125 401.872 432.986 407.468 427.317C413.062 421.648 420.293 417.396 429.161 414.561C438.029 411.622 447.477 410.152 457.505 410.152Z" fill="url(#paint3_linear_1120_20453)"/>
<path d="M283.905 488.733C284.222 493.353 285.699 497.447 288.339 501.017C290.976 504.586 294.619 507.421 299.265 509.52C304.016 511.515 309.61 512.512 316.05 512.512C322.173 512.512 327.662 511.882 332.517 510.623C337.48 509.363 341.754 507.788 345.345 505.898C349.04 504.009 351.889 502.066 353.895 500.072L372.581 529.678C369.941 532.512 366.194 535.294 361.338 538.024C356.588 540.648 350.305 542.801 342.493 544.48C334.683 546.16 324.812 547 312.883 547C298.526 547 285.752 544.323 274.561 538.969C263.373 533.615 254.557 525.741 248.118 515.347C241.678 504.953 238.458 492.25 238.458 477.237C238.458 464.639 241.203 453.301 246.692 443.222C252.287 433.039 260.364 425.007 270.921 419.128C281.477 413.144 294.197 410.152 309.083 410.152C323.228 410.152 335.474 412.724 345.819 417.868C356.271 423.013 364.293 430.677 369.889 440.86C375.588 450.939 378.44 463.537 378.44 478.655C378.44 479.495 378.387 481.174 378.28 483.694C378.28 486.214 378.175 487.893 377.963 488.733H283.905ZM333.151 463.694C333.046 460.335 332.148 457.028 330.459 453.773C328.77 450.414 326.237 447.684 322.859 445.584C319.48 443.38 315.152 442.277 309.874 442.277C304.595 442.277 300.108 443.327 296.413 445.427C292.825 447.422 290.081 450.046 288.179 453.301C286.28 456.555 285.225 460.02 285.013 463.694H333.151Z" fill="url(#paint4_linear_1120_20453)"/>
<path d="M69.132 543.12V360.821H117.27V432.728C118.22 429.788 120.648 426.586 124.554 423.122C128.566 419.552 133.791 416.508 140.231 413.988C146.776 411.363 154.166 410.051 162.4 410.051C175.068 410.051 186.047 413.148 195.337 419.342C204.626 425.536 211.805 433.83 216.872 444.224C221.939 454.512 224.473 465.956 224.473 478.554C224.473 491.152 221.939 502.648 216.872 513.041C211.805 523.33 204.626 531.571 195.337 537.766C186.047 543.855 175.068 546.899 162.4 546.899C155.433 546.899 148.835 545.639 142.606 543.12C136.483 540.705 131.152 537.608 126.613 533.829C122.179 529.944 118.907 526.06 116.795 522.175V543.12H69.132ZM177.285 478.554C177.285 472.675 175.965 467.425 173.326 462.806C170.792 458.082 167.256 454.407 162.717 451.783C158.283 449.053 153.269 447.688 147.673 447.688C141.867 447.688 136.642 449.053 131.997 451.783C127.457 454.407 123.868 458.082 121.229 462.806C118.59 467.425 117.27 472.675 117.27 478.554C117.27 484.433 118.59 489.735 121.229 494.459C123.868 499.078 127.457 502.701 131.997 505.325C136.642 507.95 141.867 509.262 147.673 509.262C153.269 509.262 158.283 507.95 162.717 505.325C167.256 502.701 170.792 499.078 173.326 494.459C175.965 489.735 177.285 484.433 177.285 478.554Z" fill="url(#paint5_linear_1120_20453)"/>
<path d="M69.132 360.821H40V399.938H69.132V360.821Z" fill="url(#paint6_linear_1120_20453)"/>
<path d="M672.62 391.245C689.516 391.245 703.213 377.624 703.213 360.821C703.213 344.018 689.516 330.396 672.62 330.396C655.724 330.396 642.027 344.018 642.027 360.821C642.027 377.624 655.724 391.245 672.62 391.245Z" fill="url(#paint7_linear_1120_20453)"/>
<defs>
<linearGradient id="paint0_linear_1120_20453" x1="368.406" y1="330.396" x2="368.406" y2="531.958" gradientUnits="userSpaceOnUse">
<stop stop-color="#2D2B4C"/>
<stop offset="1" stop-color="#03002A"/>
</linearGradient>
<linearGradient id="paint1_linear_1120_20453" x1="368.406" y1="330.396" x2="368.406" y2="531.958" gradientUnits="userSpaceOnUse">
<stop stop-color="#2D2B4C"/>
<stop offset="1" stop-color="#03002A"/>
</linearGradient>
<linearGradient id="paint2_linear_1120_20453" x1="368.406" y1="330.396" x2="368.406" y2="531.958" gradientUnits="userSpaceOnUse">
<stop stop-color="#2D2B4C"/>
<stop offset="1" stop-color="#03002A"/>
</linearGradient>
<linearGradient id="paint3_linear_1120_20453" x1="368.406" y1="330.396" x2="368.406" y2="531.958" gradientUnits="userSpaceOnUse">
<stop stop-color="#2D2B4C"/>
<stop offset="1" stop-color="#03002A"/>
</linearGradient>
<linearGradient id="paint4_linear_1120_20453" x1="368.406" y1="330.396" x2="368.406" y2="531.958" gradientUnits="userSpaceOnUse">
<stop stop-color="#2D2B4C"/>
<stop offset="1" stop-color="#03002A"/>
</linearGradient>
<linearGradient id="paint5_linear_1120_20453" x1="368.406" y1="330.396" x2="368.406" y2="531.958" gradientUnits="userSpaceOnUse">
<stop stop-color="#2D2B4C"/>
<stop offset="1" stop-color="#03002A"/>
</linearGradient>
<linearGradient id="paint6_linear_1120_20453" x1="368.406" y1="330.396" x2="368.406" y2="531.958" gradientUnits="userSpaceOnUse">
<stop stop-color="#2D2B4C"/>
<stop offset="1" stop-color="#03002A"/>
</linearGradient>
<linearGradient id="paint7_linear_1120_20453" x1="368.406" y1="330.396" x2="368.406" y2="531.958" gradientUnits="userSpaceOnUse">
<stop stop-color="#2D2B4C"/>
<stop offset="1" stop-color="#03002A"/>
</linearGradient>
</defs>
</svg>
