<svg xmlns="http://www.w3.org/2000/svg" width="31" height="31" viewBox="0 0 31 31" fill="none">
  <g clip-path="url(#clip0_1129_1517)">
    <path fill-rule="evenodd" clip-rule="evenodd" d="M16.9749 24.7377C18.1982 24.6565 19.3769 24.2466 20.3867 23.5514C21.3965 22.8562 22.2 21.9014 22.7124 20.7877C23.2016 19.6636 23.4416 18.4469 23.4157 17.2212C23.3898 15.9956 23.0987 14.7901 22.5624 13.6877C21.9756 12.4893 21.0498 11.4896 19.8999 10.8127C18.7585 10.1504 17.4691 9.78507 16.1499 9.75018C14.8279 9.72853 13.5185 10.0102 12.3224 10.5736C11.1262 11.137 10.0751 11.9671 9.2499 13.0002C8.66331 13.7442 8.23532 14.6004 7.99232 15.5162C7.74933 16.4319 7.69647 17.3877 7.83701 18.3246C7.97755 19.2616 8.30851 20.1598 8.80949 20.9639C9.31046 21.768 9.97084 22.461 10.7499 23.0002C12.1267 23.8921 13.6778 24.4802 15.2999 24.7252C15.3654 24.7463 15.4346 24.7533 15.503 24.7458C15.5715 24.7382 15.6375 24.7162 15.6968 24.6813C15.7561 24.6464 15.8074 24.5993 15.8472 24.5432C15.887 24.4871 15.9145 24.4231 15.9278 24.3556C15.9411 24.2881 15.94 24.2185 15.9245 24.1514C15.909 24.0844 15.8795 24.0214 15.8379 23.9665C15.7963 23.9117 15.7435 23.8663 15.6831 23.8333C15.6227 23.8004 15.556 23.7805 15.4874 23.7752C14.274 23.5274 13.1116 23.0751 12.0499 22.4377C11.0358 21.841 10.2354 20.94 9.7624 19.8627C9.337 18.9209 9.1921 17.8764 9.34508 16.8544C9.49805 15.8324 9.9424 14.8761 10.6249 14.1002C11.2895 13.3068 12.1221 12.6709 13.0625 12.2386C14.0028 11.8062 15.0275 11.5882 16.0624 11.6002C17.0755 11.6288 18.0665 11.9033 18.9499 12.4002C19.829 12.8691 20.5507 13.5864 21.0249 14.4627C21.5031 15.3448 21.7843 16.3202 21.8491 17.3215C21.9138 18.3229 21.7606 19.3263 21.3999 20.2627C21.0103 21.1946 20.3759 22.0038 19.5639 22.6045C18.7519 23.2053 17.7925 23.5752 16.7874 23.6752C16.6525 23.7039 16.5333 23.7822 16.4534 23.8946C16.3735 24.007 16.3388 24.1453 16.3561 24.2822C16.3734 24.419 16.4414 24.5443 16.5468 24.6333C16.6522 24.7223 16.7871 24.7685 16.9249 24.7627L16.9749 24.7377Z" fill="black"/>
    <path fill-rule="evenodd" clip-rule="evenodd" d="M28.5249 16.3625C28.461 16.3607 28.3974 16.3721 28.3381 16.3961C28.2788 16.4202 28.2251 16.4562 28.1805 16.502C28.1359 16.5479 28.1012 16.6024 28.0787 16.6623C28.0563 16.7222 28.0465 16.7861 28.0499 16.85V24.6875C28.0487 25.3786 27.9902 26.0685 27.8749 26.75C27.8043 27.1311 27.6459 27.4906 27.4124 27.8C27.2215 27.9414 26.9873 28.0121 26.7499 28C26.1172 28.0382 25.4827 28.0382 24.8499 28L16.7499 28.0875C14.2499 28.0875 11.8249 28.2 9.36244 28.25H6.26243C5.48789 28.2735 4.71384 28.1893 3.96243 28C3.56697 27.8577 3.22893 27.5899 2.99993 27.2375C2.88829 26.9991 2.8327 26.7382 2.83743 26.475V24.8C2.74993 23.55 2.68743 22.1875 2.66243 20.8875C2.63743 19.5875 2.66243 18.2875 2.66243 16.9875C2.67302 16.9264 2.67013 16.8638 2.65397 16.804C2.63781 16.7442 2.60876 16.6886 2.56887 16.6412C2.52897 16.5938 2.4792 16.5557 2.42303 16.5296C2.36685 16.5034 2.30564 16.4899 2.24368 16.4899C2.18173 16.4899 2.12052 16.5034 2.06434 16.5296C2.00817 16.5557 1.9584 16.5938 1.9185 16.6412C1.87861 16.6886 1.84956 16.7442 1.8334 16.804C1.81724 16.8638 1.81435 16.9264 1.82493 16.9875C1.69993 18.2375 1.63743 19.625 1.61243 20.95C1.58743 22.275 1.61243 23.5875 1.61243 24.9125C1.61243 25.375 1.53743 26.225 1.61243 26.9C1.62637 27.2849 1.72904 27.6613 1.91243 28C2.30556 28.5858 2.88124 29.0252 3.54993 29.25C4.42258 29.5367 5.33185 29.6966 6.24994 29.725C7.32493 29.8 8.38743 29.8375 9.44993 29.8375C11.9499 29.8375 14.3374 29.675 16.7874 29.725H19.2874C21.1749 29.65 23.0374 29.5125 24.9499 29.4625C25.7399 29.5355 26.5349 29.5355 27.3249 29.4625C27.8115 29.385 28.2546 29.1368 28.5749 28.7625C28.9314 28.2806 29.1633 27.7181 29.2499 27.125C29.328 26.3185 29.328 25.5064 29.2499 24.7L28.9749 16.8375C28.9766 16.7768 28.9663 16.7163 28.9446 16.6595C28.9228 16.6028 28.8902 16.5509 28.8484 16.5067C28.8066 16.4626 28.7565 16.4272 28.701 16.4024C28.6455 16.3777 28.5857 16.3641 28.5249 16.3625Z" fill="black"/>
    <path fill-rule="evenodd" clip-rule="evenodd" d="M30.4001 11.5749C30.0251 7.67485 30.1126 7.36236 29.5501 7.38736C28.4729 7.39558 27.3961 7.34132 26.3251 7.22485C24.3126 7.01235 22.3126 6.67485 20.3126 6.42485C20.3434 5.56521 20.1766 4.70995 19.8251 3.92485C19.3531 2.95762 18.5815 2.16852 17.6251 1.67485C16.7525 1.25102 15.7728 1.09862 14.8126 1.23735C13.9079 1.37696 13.0503 1.73288 12.3126 2.27485C11.6289 2.73788 11.0649 3.35673 10.6672 4.08042C10.2695 4.80411 10.0494 5.61194 10.0251 6.43736C6.98591 6.73318 4.00523 7.46571 1.17512 8.61235C1.01262 9.32485 0.70012 10.9249 0.56262 12.1749C0.49345 12.752 0.49345 13.3353 0.56262 13.9124C0.672612 14.3843 0.91048 14.8168 1.25012 15.1624C1.68524 15.5625 2.18366 15.8877 2.72512 16.1249C3.83762 16.5999 4.12512 16.8374 4.67512 17.0124C5.15181 17.1593 5.64159 17.2597 6.13762 17.3124C6.19844 17.327 6.2616 17.3292 6.32327 17.3187C6.38495 17.3082 6.44386 17.2854 6.49644 17.2515C6.54902 17.2176 6.59419 17.1734 6.6292 17.1215C6.66421 17.0697 6.68833 17.0113 6.70012 16.9499C6.71486 16.8883 6.71713 16.8243 6.7068 16.7619C6.69647 16.6994 6.67375 16.6396 6.63997 16.586C6.6062 16.5324 6.56205 16.4862 6.51013 16.4499C6.4582 16.4136 6.39955 16.3881 6.33762 16.3749C5.908 16.2691 5.48944 16.1226 5.08762 15.9374C4.60012 15.6999 4.36262 15.4249 3.37512 14.8124C3.07054 14.6346 2.78562 14.4251 2.52512 14.1874C2.32698 14.0261 2.18302 13.8079 2.11262 13.5624C2.09232 13.2252 2.09232 12.8871 2.11262 12.5499C2.11262 12.0124 2.05012 11.3749 2.03762 10.7499C2.02512 10.1249 2.03762 9.57485 2.03762 9.13735C4.16044 8.59773 6.32062 8.2175 8.50012 7.99986C10.1751 7.82485 11.8501 7.76236 13.5001 7.72486C15.1501 7.68736 16.8626 7.72486 18.5001 7.72486C21.0001 7.72486 23.5876 8.16235 26.1376 8.28735C27.1287 8.33739 28.1216 8.33739 29.1126 8.28735L28.8376 11.5124V12.6624C28.7104 12.9 28.5256 13.102 28.3001 13.2499C27.8489 13.5533 27.3721 13.8168 26.8751 14.0374C26.2001 14.3749 25.8376 14.5624 25.5001 14.7749C25.1626 14.9874 24.8376 15.2124 24.2501 15.6374C24.1856 15.6646 24.1278 15.7053 24.0804 15.7569C24.0331 15.8085 23.9975 15.8697 23.9759 15.9363C23.9543 16.0028 23.9473 16.0733 23.9554 16.1428C23.9635 16.2123 23.9865 16.2793 24.0227 16.3392C24.059 16.399 24.1078 16.4504 24.1657 16.4897C24.2236 16.5291 24.2892 16.5555 24.3583 16.5672C24.4273 16.5788 24.498 16.5755 24.5656 16.5575C24.6332 16.5394 24.6962 16.5069 24.7501 16.4624C25.3876 16.1374 25.7126 15.9624 26.0626 15.8124C26.4126 15.6624 26.7626 15.5499 27.4251 15.3374C28.0593 15.1724 28.6719 14.9333 29.2501 14.6249C29.7149 14.3165 30.0832 13.8832 30.3126 13.3749C30.4142 13.167 30.4777 12.9426 30.5001 12.7124C30.4871 12.3317 30.4537 11.952 30.4001 11.5749ZM13.4876 6.13735C12.6376 6.13735 11.7876 6.27485 10.9876 6.36235C11.1175 5.76467 11.373 5.20144 11.7372 4.71007C12.1015 4.2187 12.566 3.81043 13.1001 3.51235C13.7045 3.16258 14.371 2.93335 15.0626 2.83735C15.7841 2.72279 16.5234 2.82147 17.1896 3.12125C17.8557 3.42104 18.4199 3.90888 18.8126 4.52485C19.0784 5.08035 19.2273 5.68449 19.2501 6.29985C19.0376 6.29985 18.8251 6.29985 18.6251 6.22485C16.9376 6.12485 15.2126 6.07485 13.4876 6.13735Z" fill="black"/>
    <path fill-rule="evenodd" clip-rule="evenodd" d="M15.2127 21.2498C15.6502 22.1873 15.7877 22.2998 16.0752 22.2748C16.5752 22.2748 16.7627 20.8873 16.7627 20.8623C16.777 20.8006 16.777 20.7365 16.7627 20.6748H16.9502C17.4735 20.4958 17.9164 20.1371 18.2002 19.6623C18.4075 19.2806 18.4738 18.8381 18.3877 18.4123C18.342 18.1013 18.2135 17.8084 18.0155 17.5642C17.8176 17.3201 17.5575 17.1337 17.2627 17.0248C16.6539 16.8645 16.0293 16.7722 15.4002 16.7498C15.2752 16.7498 14.8502 16.7498 14.9752 16.5998L15.1627 16.1373C15.253 15.9752 15.383 15.8387 15.5403 15.7403C15.6977 15.642 15.8774 15.585 16.0627 15.5748C16.5252 15.5776 16.9704 15.7512 17.3127 16.0623C17.3959 16.1396 17.5053 16.1826 17.6189 16.1826C17.7325 16.1826 17.8419 16.1396 17.9252 16.0623C18.0045 15.9826 18.0491 15.8748 18.0491 15.7623C18.0491 15.6498 18.0045 15.542 17.9252 15.4623C17.5292 15.0157 17.0056 14.7015 16.4252 14.5623C16.4949 14.4688 16.5459 14.3627 16.5752 14.2498C16.5932 14.1759 16.5932 14.0987 16.5752 14.0248C16.1877 12.9748 15.8752 13.0623 15.8627 13.0498C15.5252 13.0498 15.0377 13.9498 15.0252 13.9748C15.0121 14.0534 15.0121 14.1337 15.0252 14.2123C15.0192 14.2872 15.0192 14.3624 15.0252 14.4373C15.0252 14.5248 15.1002 14.5748 15.1252 14.6373C14.5293 14.8766 14.0376 15.3195 13.7377 15.8873C13.6228 16.1027 13.5627 16.3431 13.5627 16.5873C13.5596 16.795 13.6016 17.0009 13.6858 17.1908C13.7699 17.3807 13.8942 17.5501 14.0502 17.6873C14.4063 17.9876 14.8392 18.1824 15.3002 18.2498H16.6502C16.7248 18.2562 16.7955 18.2863 16.8517 18.3358C16.908 18.3853 16.9469 18.4516 16.9627 18.5248C16.9847 18.5762 16.996 18.6314 16.996 18.6873C16.996 18.7432 16.9847 18.7985 16.9627 18.8498C16.8557 19.0203 16.7045 19.1585 16.5252 19.2498C16.3776 19.3244 16.2226 19.3831 16.0627 19.4248C15.9023 19.4621 15.7355 19.4621 15.5752 19.4248C15.2075 19.5008 14.8247 19.4385 14.5002 19.2498C14.456 19.2052 14.4034 19.1698 14.3455 19.1456C14.2876 19.1215 14.2254 19.109 14.1627 19.109C14.0999 19.109 14.0377 19.1215 13.9798 19.1456C13.9219 19.1698 13.8693 19.2052 13.8252 19.2498C13.7408 19.342 13.6941 19.4624 13.6941 19.5873C13.6941 19.7122 13.7408 19.8326 13.8252 19.9248C14.1709 20.3607 14.6492 20.6722 15.1877 20.8123C15.1818 20.8914 15.1818 20.9707 15.1877 21.0498C15.1891 21.1172 15.1975 21.1842 15.2127 21.2498Z" fill="black"/>
  </g>
  <defs>
    <clipPath id="clip0_1129_1517">
      <rect width="30" height="30" fill="white" transform="translate(0.5 0.5)"/>
    </clipPath>
  </defs>
</svg>