<svg xmlns="http://www.w3.org/2000/svg" width="31" height="31" viewBox="0 0 31 31" fill="none">
  <g clip-path="url(#clip0_1129_324)">
    <path fill-rule="evenodd" clip-rule="evenodd" d="M30.3376 12.8875C29.7883 10.7246 28.7825 8.70438 27.3876 6.9625C27.3613 6.89892 27.3204 6.84245 27.2681 6.79768C27.2159 6.7529 27.1538 6.72108 27.0869 6.7048C27.0201 6.68852 26.9503 6.68824 26.8833 6.70399C26.8164 6.71973 26.754 6.75105 26.7014 6.7954C26.6488 6.83976 26.6074 6.8959 26.5806 6.95926C26.5537 7.02262 26.5422 7.09142 26.547 7.16006C26.5517 7.22871 26.5726 7.29527 26.6079 7.35433C26.6432 7.4134 26.6919 7.4633 26.7501 7.49999C27.9553 9.14046 28.8066 11.0133 29.2501 13C29.5501 15.6125 27.2626 18.1125 22.6126 17.725C19.6751 17.5125 16.6251 15.4875 17.1251 12.725C17.6271 10.893 18.6013 9.22491 19.9501 7.88749C20.0214 7.81622 20.0615 7.71955 20.0615 7.61875C20.0615 7.51794 20.0214 7.42127 19.9501 7.35C19.8789 7.27872 19.7822 7.23867 19.6814 7.23867C19.5806 7.23867 19.4839 7.27872 19.4126 7.35C17.8356 8.75134 16.6582 10.5456 16.0001 12.55C14.8751 17.325 21.3376 20.5 26.3501 18.8C27.6212 18.4698 28.7279 17.6867 29.4622 16.5979C30.1965 15.5092 30.5078 14.1897 30.3376 12.8875Z" fill="#03002A"/>
    <path fill-rule="evenodd" clip-rule="evenodd" d="M20.6749 5.92461C21.7355 6.40977 22.8839 6.67348 24.0499 6.69961C24.5942 6.68327 25.1369 6.63317 25.6749 6.54961C25.7893 6.54961 25.899 6.50417 25.9799 6.4233C26.0607 6.34242 26.1062 6.23273 26.1062 6.11836C26.1062 6.00398 26.0607 5.8943 25.9799 5.81342C25.899 5.73254 25.7893 5.68711 25.6749 5.68711C24.2509 5.18245 22.7147 5.08292 21.2374 5.39961C18.5249 2.22461 21.2374 1.49961 22.1999 3.14961C22.6624 3.88711 23.2249 4.83711 23.8999 4.13711C24.5749 3.43711 26.1374 1.81211 27.2249 1.74961C27.6624 1.74961 27.7874 2.03711 27.8124 2.37461C27.7406 3.42464 27.469 4.45133 27.0124 5.39961C27.0033 5.49885 27.0256 5.59845 27.0762 5.68432C27.1268 5.77018 27.2031 5.83795 27.2943 5.87805C27.3856 5.91814 27.4871 5.92851 27.5846 5.90771C27.6821 5.8869 27.7705 5.83596 27.8374 5.76211C28.2624 5.31211 30.3374 0.599609 27.2249 0.474609C25.7831 0.676083 24.4567 1.3746 23.4749 2.44961C21.3999 -0.300391 18.5624 1.33711 19.0124 3.33711C19.348 4.32192 19.9187 5.21007 20.6749 5.92461Z" fill="#03002A"/>
    <path fill-rule="evenodd" clip-rule="evenodd" d="M23.0001 22.8993C23.1075 22.4729 23.0918 22.0249 22.9549 21.6071C22.8179 21.1893 22.5654 20.819 22.2264 20.5389C21.8875 20.2589 21.4761 20.0807 21.04 20.025C20.6039 19.9693 20.161 20.0384 19.7626 20.2243C18.6258 20.8472 17.6064 21.6636 16.7501 22.6368C16.2251 23.1118 14.4126 24.5868 14.3751 24.6243C13.5176 24.5953 12.6717 24.4176 11.8751 24.0993C11.6251 23.9868 11.3876 24.0368 11.8751 23.3743C13.3876 21.0868 15.2501 20.3493 13.9251 18.0868C12.9001 16.3368 10.1751 17.9118 8.57507 19.1618C7.97043 19.755 7.26313 20.2336 6.48757 20.5743C5.15007 20.8743 1.26257 20.5743 0.875066 20.7993C0.825225 20.8266 0.781368 20.8636 0.74609 20.9082C0.710811 20.9527 0.684828 21.0039 0.669677 21.0587C0.654526 21.1135 0.650516 21.1707 0.657882 21.2271C0.665249 21.2834 0.683844 21.3377 0.712566 21.3868C0.900066 21.6993 1.23757 21.5743 1.47507 21.5743C5.01257 21.5743 6.32507 21.9243 7.61257 21.1868C8.86458 20.1455 10.2523 19.2793 11.7376 18.6118C12.2251 18.4493 12.6876 18.2993 12.8876 18.6118C13.0002 18.7641 13.0767 18.94 13.1113 19.1262C13.146 19.3125 13.1379 19.5041 13.0876 19.6868C12.6376 20.9368 9.33757 23.0118 10.5876 24.6868C11.2558 25.2611 12.0685 25.6415 12.9376 25.7868C14.8402 26.1036 16.7888 26.0055 18.6501 25.4993C22.4751 24.4993 22.8626 23.8993 23.3001 24.8118C23.4876 25.1993 23.2251 25.5493 22.9251 25.8743C18.0001 31.2743 8.00007 28.4868 7.73757 28.5243C6.48757 28.7368 3.06257 29.4118 1.87507 29.7743C1.79193 29.8126 1.72507 29.8792 1.68634 29.9622C1.64761 30.0451 1.63951 30.1391 1.66347 30.2275C1.68744 30.3159 1.74192 30.3929 1.81726 30.4449C1.8926 30.497 1.98394 30.5206 2.07507 30.5118C3.32507 30.1993 6.55007 29.6743 7.78757 29.4868C12.2876 30.7368 18.4001 30.9618 22.3001 28.2368C23.7376 27.1993 25.4001 25.8868 24.6126 24.2118C24.4963 23.8624 24.2829 23.5534 23.9973 23.3209C23.7117 23.0884 23.3658 22.9422 23.0001 22.8993ZM16.4501 24.4368C15.9251 24.5118 16.1876 24.5493 17.5876 23.6493C18.9876 22.7493 20.3876 20.9743 21.3376 21.3868C21.6343 21.5255 21.8723 21.7648 22.0096 22.0622C22.1469 22.3596 22.1745 22.696 22.0876 23.0118C20.2149 23.5901 18.3121 24.0658 16.3876 24.4368H16.4501Z" fill="#03002A"/>
    <path fill-rule="evenodd" clip-rule="evenodd" d="M26.0128 14.6242C26.2379 14.4244 26.3834 14.1499 26.4225 13.8514C26.4615 13.5529 26.3915 13.2503 26.2253 12.9992C25.5003 11.8867 23.0003 11.7492 22.3503 11.1242C22.3503 11.0617 22.1878 10.8367 22.0878 10.8242C22.3378 10.0367 24.5878 9.72422 24.7253 10.0992C24.7569 10.1947 24.8234 10.2747 24.9114 10.3233C24.9995 10.372 25.1026 10.3857 25.2003 10.3617C25.7378 10.1992 25.5378 9.19922 23.9503 9.03672C24.0494 8.73668 24.037 8.41093 23.9153 8.11931C23.7936 7.82768 23.5708 7.58975 23.2878 7.44922C23.1522 7.53159 23.0358 7.642 22.9465 7.77304C22.8571 7.90407 22.7967 8.0527 22.7695 8.20897C22.7423 8.36523 22.7488 8.52551 22.7886 8.67905C22.8284 8.8326 22.9006 8.97585 23.0003 9.09922C21.1003 9.48672 20.5003 10.6867 20.9378 11.4867C21.0659 11.6945 21.2169 11.8874 21.3878 12.0617C22.1878 13.0242 23.7128 13.0617 24.6253 13.5492C25.2128 13.8492 25.5628 13.5492 24.6253 13.9617C23.8503 14.3117 21.9378 14.7742 21.7628 13.9617C21.7281 13.8628 21.659 13.7796 21.5682 13.7273C21.4773 13.675 21.3707 13.6571 21.2677 13.6768C21.1648 13.6964 21.0723 13.7524 21.0072 13.8346C20.942 13.9167 20.9085 14.0195 20.9128 14.1242C21.0753 15.0242 21.8878 15.3742 22.8003 15.3742C22.5753 15.7992 23.0003 16.9617 23.4378 16.9617C23.8753 16.9617 24.3378 15.8367 24.0003 15.2992C24.7117 15.2208 25.398 14.9907 26.0128 14.6242Z" fill="#03002A"/>
  </g>
  <defs>
    <clipPath id="clip0_1129_324">
      <rect width="30" height="30" fill="white" transform="translate(0.5 0.5)"/>
    </clipPath>
  </defs>
</svg>