<svg width="3799" height="997" viewBox="0 0 3799 997" fill="none" xmlns="http://www.w3.org/2000/svg">
<path d="M3581.58 979.321V882.943C3577.24 892.605 3566.13 906.615 3548.25 924.973C3530.86 943.33 3507.67 959.997 3478.69 974.973C3449.7 989.465 3415.88 996.712 3377.24 996.712C3319.26 996.712 3268.54 982.702 3225.06 954.683C3181.58 926.18 3147.77 888.257 3123.61 840.914C3099.46 793.088 3087.38 740.189 3087.38 682.218C3087.38 624.247 3099.46 571.59 3123.61 524.247C3147.77 476.421 3181.58 438.256 3225.06 409.754C3268.54 381.251 3319.26 367 3377.24 367C3414.43 367 3447.04 373.039 3475.06 385.116C3503.08 396.71 3525.79 410.72 3543.18 427.145C3560.57 443.087 3572.65 457.821 3579.41 471.348V384.391H3798.25V979.321H3581.58ZM3303.32 682.218C3303.32 709.272 3309.6 733.668 3322.16 755.407C3334.72 776.663 3351.39 793.33 3372.16 805.407C3393.42 817.484 3416.85 823.523 3442.45 823.523C3469.02 823.523 3492.45 817.484 3512.74 805.407C3533.03 793.33 3548.98 776.663 3560.57 755.407C3572.65 733.668 3578.69 709.272 3578.69 682.218C3578.69 655.165 3572.65 631.01 3560.57 609.754C3548.98 588.015 3533.03 571.107 3512.74 559.03C3492.45 546.469 3469.02 540.189 3442.45 540.189C3416.85 540.189 3393.42 546.469 3372.16 559.03C3351.39 571.107 3334.72 588.015 3322.16 609.754C3309.6 631.01 3303.32 655.165 3303.32 682.218Z" fill="black"/>
<path d="M2784.97 978.669V383.74H3005.26V978.669H2784.97Z" fill="black"/>
<path d="M2213.73 384.204H2315.18V140H2533.29V384.204H2666.63V565.364H2533.29V731.306C2533.29 755.944 2536.91 775.992 2544.16 791.451C2551.41 806.427 2564.69 813.915 2584.02 813.915C2597.06 813.915 2608.17 811.016 2617.35 805.219C2626.53 799.422 2632.08 795.558 2634.02 793.625L2709.38 950.147C2706 953.046 2695.37 958.36 2677.49 966.089C2660.1 973.819 2637.88 980.824 2610.83 987.104C2583.78 993.384 2553.58 996.524 2520.25 996.524C2460.83 996.524 2411.79 979.858 2373.15 946.524C2334.5 912.708 2315.18 860.775 2315.18 790.727V565.364H2213.73V384.204Z" fill="black"/>
<path d="M1910.59 367C1949.72 367 1985.47 370.382 2017.84 377.145C2050.21 383.425 2077.26 390.672 2099 398.884C2121.22 407.097 2135.47 413.86 2141.75 419.174L2070.02 548.885C2060.84 542.121 2043.69 533.426 2018.57 522.798C1993.93 512.17 1966.39 506.856 1935.96 506.856C1912.77 506.856 1893.2 510.479 1877.26 517.725C1861.32 524.488 1853.35 535.358 1853.35 550.334C1853.35 565.31 1862.04 577.387 1879.43 586.566C1897.31 595.262 1922.91 602.991 1956.25 609.754C1985.23 615.551 2014.7 624.73 2044.65 637.291C2074.6 649.851 2099.48 668.45 2119.29 693.088C2139.58 717.243 2149.73 749.61 2149.73 790.19C2149.73 831.736 2140.79 866.035 2122.91 893.088C2105.04 920.142 2081.37 941.156 2051.9 956.132C2022.43 971.108 1990.55 981.494 1956.25 987.292C1921.95 993.572 1888.61 996.712 1856.25 996.712C1810.84 996.712 1771.22 992.606 1737.41 984.393C1704.07 976.18 1677.02 966.76 1656.25 956.132C1635.47 945.504 1620.98 937.05 1612.77 930.77L1683.78 785.842C1696.34 796.47 1716.87 808.547 1745.38 822.074C1773.88 835.117 1804.07 841.639 1835.96 841.639C1866.87 841.639 1890.79 837.05 1907.7 827.871C1924.6 818.692 1933.06 806.615 1933.06 791.639C1933.06 779.562 1928.95 769.9 1920.74 762.653C1912.53 755.407 1900.93 749.127 1885.96 743.813C1870.98 738.499 1852.86 733.668 1831.61 729.32C1812.28 725.455 1791.75 719.416 1770.01 711.204C1748.27 702.991 1727.74 691.88 1708.42 677.87C1689.1 663.378 1673.4 645.262 1661.32 623.522C1649.24 601.783 1643.2 575.455 1643.2 544.537C1643.2 504.923 1656 472.073 1681.61 445.986C1707.21 419.899 1740.3 400.333 1780.88 387.29C1821.46 373.763 1864.7 367 1910.59 367Z" fill="black"/>
<path d="M1116.16 728.595C1117.61 749.851 1124.37 768.692 1136.45 785.117C1148.52 801.542 1165.19 814.586 1186.45 824.248C1208.19 833.426 1233.79 838.016 1263.26 838.016C1291.28 838.016 1316.4 835.117 1338.62 829.32C1361.33 823.523 1380.89 816.277 1397.32 807.581C1414.23 798.885 1427.27 789.948 1436.45 780.769L1521.96 917.002C1509.88 930.045 1492.73 942.847 1470.51 955.407C1448.77 967.485 1420.02 977.388 1384.27 985.118C1348.53 992.847 1303.36 996.712 1248.77 996.712C1183.07 996.712 1124.61 984.393 1073.4 959.755C1022.2 935.118 981.858 898.886 952.389 851.059C922.92 803.233 908.186 744.779 908.186 675.697C908.186 617.725 920.746 565.551 945.867 519.174C971.471 472.314 1008.43 435.358 1056.74 408.304C1105.05 380.768 1163.26 367 1231.38 367C1296.11 367 1352.15 378.836 1399.49 402.507C1447.32 426.179 1484.03 461.445 1509.64 508.305C1535.72 554.682 1548.77 612.653 1548.77 682.218C1548.77 686.083 1548.53 693.813 1548.04 705.407C1548.04 717.001 1547.56 724.73 1546.59 728.595H1116.16ZM1341.52 613.378C1341.04 597.919 1336.93 582.701 1329.2 567.725C1321.47 552.266 1309.88 539.706 1294.42 530.044C1278.96 519.899 1259.15 514.827 1235 514.827C1210.84 514.827 1190.31 519.657 1173.4 529.319C1156.98 538.498 1144.42 550.575 1135.72 565.551C1127.03 580.527 1122.2 596.469 1121.23 613.378H1341.52Z" fill="black"/>
<path d="M133.314 978.856L133.314 140H353.605L353.605 470.884C357.953 457.357 369.064 442.623 386.938 426.681C405.296 410.256 429.209 396.246 458.677 384.652C488.629 372.575 522.446 366.536 560.127 366.536C618.098 366.536 668.34 380.787 710.852 409.29C753.364 437.792 786.215 475.956 809.403 523.783C832.592 571.126 844.186 623.783 844.186 681.754C844.186 739.725 832.592 792.624 809.403 840.45C786.215 887.793 753.364 925.716 710.852 954.219C668.34 982.238 618.098 996.248 560.127 996.248C528.243 996.248 498.05 990.451 469.547 978.856C441.528 967.745 417.132 953.494 396.359 936.103C376.069 918.228 361.093 900.354 351.431 882.479V978.856H133.314ZM628.243 681.754C628.243 654.701 622.205 630.546 610.127 609.29C598.533 587.551 582.349 570.643 561.576 558.565C541.286 546.005 518.34 539.725 492.736 539.725C466.165 539.725 442.252 546.005 420.996 558.565C400.223 570.643 383.798 587.551 371.721 609.29C359.643 630.546 353.605 654.701 353.605 681.754C353.605 708.807 359.643 733.204 371.721 754.943C383.798 776.199 400.223 792.866 420.996 804.943C442.252 817.02 466.165 823.059 492.736 823.059C518.34 823.059 541.286 817.02 561.576 804.943C582.349 792.866 598.533 776.199 610.127 754.943C622.205 733.204 628.243 708.807 628.243 681.754Z" fill="black"/>
<rect y="140" width="353" height="180" fill="black"/>
<circle cx="2895" cy="140" r="140" fill="#E68A00"/>
</svg>
