<svg xmlns="http://www.w3.org/2000/svg" width="120" height="28" viewBox="0 0 120 28" fill="none">
  <g clip-path="url(#clip0_1071_9894)">
    <path d="M5.23633 12.26V27.13H12.01" stroke="black" stroke-width="3"/>
    <path d="M0.537109 16.805L18.2003 1.04004L32.9213 15.03" stroke="black" stroke-width="3"/>
    <path d="M22.7422 4.82507H27.5896V9.68007" stroke="black" stroke-width="3"/>
    <path fill-rule="evenodd" clip-rule="evenodd" d="M25.0586 19.2C24.641 19.38 24.2691 19.65 23.9428 20.01V15.54H21.9428V27.54H23.9428V21.505C24.1463 21.155 24.4042 20.895 24.7164 20.725C25.0112 20.565 25.3515 20.485 25.7375 20.485C26.2533 20.485 26.6428 20.6067 26.9059 20.85C27.1743 21.095 27.3059 21.505 27.3059 22.09V27.54H29.3059V22.02C29.2884 20.8534 28.9726 20.0167 28.3586 19.51C27.8884 19.1267 27.241 18.935 26.4164 18.935C25.9217 18.935 25.4691 19.0234 25.0586 19.2ZM17.2007 17.76H20.9322V16.165H11.4375V17.76H15.1375V27.54H17.2007V17.76ZM47.3164 27.54H49.3901V16.165H47.3164V20.9H41.9638V16.165H39.8796V27.54H41.9638V22.485H47.3164V27.54ZM32.5954 27.14C33.248 27.5134 34.0182 27.7 34.9059 27.7C35.6463 27.7 36.3147 27.56 36.9112 27.28C37.5059 27 37.9796 26.61 38.3375 26.105L37.2586 25.13C36.6849 25.83 35.9375 26.185 35.0217 26.185C34.3691 26.185 33.827 25.98 33.3954 25.575C32.9691 25.165 32.7217 24.615 32.6586 23.915H38.4743V23.15C38.4743 21.81 38.1428 20.77 37.4849 20.035C36.8217 19.3 35.8901 18.935 34.6743 18.935C34.1936 18.935 33.741 19.0084 33.3164 19.155C33.0708 19.2417 32.834 19.3517 32.6059 19.485C32.42 19.595 32.248 19.7184 32.0901 19.855C31.7112 20.175 31.4007 20.57 31.1586 21.04C30.8164 21.7 30.648 22.455 30.648 23.3V23.535C30.648 24.795 31.0375 25.805 31.827 26.56C32.0621 26.7867 32.3182 26.98 32.5954 27.14ZM51.4586 21C51.1147 21.6634 50.9428 22.4084 50.9428 23.235V23.33C50.9428 24.655 51.3217 25.715 52.0743 26.505C52.827 27.3 53.8322 27.7 55.0901 27.7C55.9112 27.7 56.6375 27.52 57.2638 27.16C57.8901 26.8 58.3743 26.29 58.7112 25.635C59.048 24.98 59.2164 24.235 59.2164 23.4L59.2059 22.955C59.148 21.74 58.7428 20.77 57.9954 20.035C57.7533 19.7984 57.4884 19.5984 57.2007 19.435C56.5936 19.1017 55.8831 18.935 55.0691 18.935C54.2586 18.935 53.5428 19.11 52.9164 19.47C52.734 19.5734 52.5638 19.69 52.4059 19.82C52.02 20.1367 51.7042 20.53 51.4586 21ZM62.5059 19.97L62.448 19.09H60.5638V27.54H62.5638V21.415C62.9007 20.795 63.4638 20.485 64.2638 20.485C65.3059 20.485 65.8428 20.985 65.8691 21.98V27.54H67.8691L67.8586 21.745C67.9743 21.37 68.1743 21.065 68.4638 20.835C68.7533 20.605 69.1217 20.485 69.5796 20.485C70.148 20.485 70.5586 20.61 70.8059 20.86C71.048 21.11 71.1743 21.505 71.1743 22.04V27.54H73.1743V21.985C73.1586 20.98 72.9165 20.22 72.4375 19.705C71.9586 19.19 71.227 18.935 70.2428 18.935C69.0691 18.935 68.1586 19.365 67.5165 20.23C67.3586 19.92 67.1533 19.665 66.9007 19.465C66.4445 19.1117 65.8358 18.935 65.0743 18.935C64.3445 18.935 63.7182 19.09 63.1954 19.4C62.9393 19.5534 62.7094 19.7434 62.5059 19.97ZM75.727 26.56C76.5112 27.32 77.5375 27.7 78.8059 27.7C79.548 27.7 80.2112 27.56 80.8059 27.28C81.4007 27 81.8796 26.61 82.2375 26.105L81.1586 25.13C80.5796 25.83 79.8375 26.185 78.9217 26.185C78.2691 26.185 77.727 25.98 77.2954 25.575C76.8638 25.165 76.6217 24.615 76.5586 23.915H82.3743V23.15C82.3743 21.81 82.0428 20.77 81.3849 20.035C80.7217 19.3 79.7849 18.935 78.5743 18.935C78.0936 18.935 77.641 19.0084 77.2165 19.155C76.9673 19.2417 76.7287 19.3517 76.5007 19.485C76.3182 19.595 76.148 19.7184 75.9901 19.855C75.6112 20.175 75.3007 20.57 75.0586 21.04C74.7164 21.7 74.548 22.455 74.548 23.3V23.535C74.548 24.795 74.9375 25.805 75.727 26.56ZM33.3375 21.005C33.6743 20.64 34.1217 20.455 34.6691 20.455C35.2217 20.455 35.6533 20.62 35.9691 20.945C36.2796 21.27 36.4586 21.75 36.5007 22.385V22.525H32.6954C32.7849 21.875 33.0007 21.365 33.3375 21.005ZM53.5112 25.445C53.1322 24.9517 52.9428 24.27 52.9428 23.4C52.9428 22.42 53.1322 21.685 53.5164 21.195C53.7024 20.955 53.92 20.7734 54.1691 20.65C54.4357 20.52 54.7357 20.455 55.0691 20.455C55.7375 20.455 56.2586 20.705 56.648 21.205C57.0322 21.705 57.227 22.385 57.227 23.235C57.227 24.2 57.0375 24.935 56.6638 25.435C56.2849 25.935 55.7638 26.185 55.0901 26.185C54.7112 26.185 54.3796 26.1067 54.0954 25.95C53.8708 25.83 53.6761 25.6617 53.5112 25.445ZM77.2375 21.005C77.5743 20.64 78.0164 20.455 78.5691 20.455C79.1217 20.455 79.5533 20.62 79.8691 20.945C80.1796 21.27 80.3586 21.75 80.4007 22.385V22.525H76.5954C76.6849 21.875 76.9007 21.365 77.2375 21.005Z" fill="black"/>
    <path fill-rule="evenodd" clip-rule="evenodd" d="M95.5846 20.495V27.54H97.5793V20.495H99.3899V19.09H97.5793V18.34C97.5793 17.86 97.7057 17.5033 97.9583 17.27C98.1969 17.05 98.5478 16.94 99.0109 16.94C99.3021 16.94 99.5565 16.9617 99.7741 17.005L99.8267 15.52C99.432 15.425 99.0583 15.38 98.7057 15.38C97.7214 15.38 96.953 15.635 96.4057 16.145C95.8583 16.655 95.5846 17.38 95.5846 18.315V19.09H94.2267V20.495H95.5846ZM101.216 20.495V27.54H103.216V20.495H105.021V19.09H103.216V18.34C103.216 17.86 103.343 17.5033 103.595 17.27C103.83 17.05 104.181 16.94 104.648 16.94C104.935 16.94 105.19 16.9617 105.411 17.005L105.458 15.52C105.064 15.425 104.69 15.38 104.342 15.38C103.353 15.38 102.585 15.635 102.037 16.145C101.49 16.655 101.216 17.38 101.216 18.315V19.09H99.8583V20.495H101.216ZM92.7267 25.085C93.132 24.245 93.3372 23.265 93.3372 22.15V21.52C93.332 20.41 93.1214 19.435 92.7109 18.6C92.3004 17.765 91.7162 17.125 90.9636 16.68C90.2109 16.235 89.3478 16.01 88.3688 16.01C87.3951 16.01 86.5267 16.235 85.7741 16.685C85.0214 17.135 84.4372 17.785 84.0214 18.635C83.6109 19.485 83.4004 20.465 83.4004 21.575V22.215C83.4074 23.3017 83.6179 24.2617 84.032 25.095C84.4478 25.93 85.032 26.57 85.7899 27.02C86.553 27.475 87.4162 27.7 88.3846 27.7C89.1776 27.7 89.8969 27.5533 90.5425 27.26C90.6934 27.19 90.8425 27.11 90.9899 27.02C91.7425 26.57 92.3214 25.925 92.7267 25.085ZM90.5057 18.66C91.0074 19.33 91.2583 20.2967 91.2583 21.56V22.15C91.2583 23.435 91.0109 24.405 90.5109 25.075C90.0162 25.74 89.3057 26.075 88.3846 26.075C87.8969 26.075 87.4653 25.9767 87.0899 25.78C86.7706 25.61 86.4916 25.3667 86.253 25.05C85.7372 24.365 85.4846 23.4 85.4846 22.15V21.495C85.4951 20.2717 85.753 19.325 86.2583 18.655C86.4934 18.3483 86.7671 18.1117 87.0793 17.945C87.4513 17.7483 87.8811 17.65 88.3688 17.65C88.8951 17.65 89.353 17.76 89.7425 17.98C90.0337 18.1433 90.2881 18.37 90.5057 18.66ZM106.79 26.56C107.574 27.32 108.6 27.7 109.869 27.7C110.606 27.7 111.274 27.56 111.869 27.28C112.464 27 112.942 26.61 113.295 26.105L112.221 25.13C111.642 25.83 110.9 26.185 109.985 26.185C109.332 26.185 108.79 25.98 108.358 25.575C107.927 25.165 107.685 24.615 107.621 23.915H113.437V23.15C113.437 21.81 113.106 20.77 112.448 20.035C111.785 19.3 110.848 18.935 109.637 18.935C109.157 18.935 108.704 19.0083 108.279 19.155C108.03 19.2417 107.792 19.3517 107.564 19.485C107.381 19.595 107.211 19.7183 107.053 19.855C106.674 20.175 106.364 20.57 106.121 21.04C105.779 21.7 105.606 22.455 105.606 23.3V23.535C105.606 24.795 106 25.805 106.79 26.56ZM118.495 20.76C118.774 20.76 119.048 20.78 119.311 20.825L119.316 19.04C119.132 18.97 118.895 18.935 118.611 18.935C117.753 18.935 117.085 19.3 116.606 20.035L116.553 19.09H114.648V27.54H116.642V21.76C116.964 21.095 117.579 20.76 118.495 20.76ZM108.3 21.005C108.637 20.64 109.079 20.455 109.627 20.455C110.185 20.455 110.616 20.62 110.927 20.945C111.242 21.27 111.421 21.75 111.464 22.385V22.525H107.653C107.748 21.875 107.964 21.365 108.3 21.005Z" fill="black"/>
  </g>
  <defs>
    <clipPath id="clip0_1071_9894">
      <rect width="120" height="28" fill="white"/>
    </clipPath>
  </defs>
</svg>