<svg width="192" height="55" viewBox="0 0 192 55" fill="none" xmlns="http://www.w3.org/2000/svg">
<path d="M127.905 15.9953C124.54 15.9953 120.52 17.1928 116.671 21.3556C112.822 17.1928 108.773 15.9953 105.437 15.9953C105.437 15.9953 92.5781 15.0259 92.5781 30.0518V54.3727H101.902V31.4204C101.902 24.6915 106.407 24.549 107.29 24.7486C107.29 24.7486 108.916 24.8341 110.398 26.3738C110.398 26.3738 107.433 30.2514 107.205 35.127C107.205 35.127 106.549 47.7579 116.671 47.7579C126.793 47.7579 126.137 35.127 126.137 35.127C125.909 30.2514 122.944 26.3738 122.944 26.3738C124.426 24.8341 126.051 24.7486 126.051 24.7486C126.907 24.549 131.44 24.6915 131.44 31.4204V54.3727H140.764V30.0518C140.735 15.0259 127.905 15.9953 127.905 15.9953ZM116.642 40.915C114.647 40.915 113.991 38.4059 113.962 36.0109C113.905 31.8481 116.614 28.8543 116.642 28.7973C116.699 28.8543 119.38 31.8481 119.323 36.0109C119.323 38.4059 118.638 40.915 116.642 40.915Z" fill="black"/>
<path d="M87.3332 16.6226H78.0098V54.4012H87.3332V16.6226Z" fill="black"/>
<path d="M82.6847 0.256592C79.5768 0.256592 77.0107 2.76566 77.0107 5.84498C77.0107 8.9528 79.5483 11.5189 82.6847 11.5189C85.764 11.5189 88.273 8.98132 88.273 5.84498C88.273 2.82269 85.7355 0.256592 82.6847 0.256592Z" fill="black"/>
<path d="M48.4997 19.1602V0H39.2617V54.4012H48.4997V27.1721C63.8107 19.7304 63.2405 31.5059 63.2405 31.5059V54.4012H72.5069V31.5059C72.4784 9.3805 53.1471 16.6796 48.4997 19.1602Z" fill="black"/>
<path d="M153.567 37.351C158.528 39.0903 164.829 38.9477 164.829 38.9477C179.769 38.8622 179.342 27.999 179.342 27.999C178.971 15.7673 164.601 15.9954 164.601 15.9954C152.711 15.9954 144.386 24.1499 144.386 35.8114C144.386 47.4728 152.54 55.0001 165.143 55.0001C170.503 55.0001 175.607 53.5174 179.171 50.9228V41.9415C175.435 45.1633 170.959 46.8741 166.226 46.8741C166.255 46.8741 153.31 47.5299 153.567 37.351ZM154.707 29.3961C156.275 25.4329 159.526 23.3516 164.145 23.3516C167.937 23.3516 170.132 24.9482 170.132 27.4858C170.132 31.0498 166.112 31.3635 162.348 31.3635C158.642 31.3635 156.361 30.9643 155.334 30.7077L154.336 30.4796L154.707 29.3961Z" fill="black"/>
<path d="M20.1296 55C26.6874 55 31.3349 52.5194 34.1005 50.4381V41.3997C30.0233 44.6216 25.2333 46.4749 20.985 46.4749C14.1991 46.4749 9.43753 41.7989 9.43753 35.07C9.43753 28.6833 13.7714 24.2354 19.9585 24.2354C21.9829 24.2354 23.7221 24.7486 25.5754 25.2618C27.4857 25.8035 29.4816 26.4023 31.8481 26.4023C32.5894 26.4023 33.3307 26.3453 34.072 26.2312V17.6205C33.4448 17.6776 32.846 17.7346 32.2187 17.7346C30.0803 17.7346 28.1415 17.3354 26.1171 16.9077C23.9787 16.4516 21.7833 15.9954 19.1887 15.9954C14.028 15.9954 9.23794 17.8201 5.73095 21.1846C1.99585 24.7486 0 29.7097 0 35.4977C0 46.9881 8.26853 55 20.1296 55Z" fill="black"/>
<path d="M190.32 20.6143C190.32 20.0441 190.234 19.5309 190.034 19.0747C189.863 18.59 189.607 18.1908 189.265 17.8487C188.951 17.5065 188.552 17.2499 188.124 17.0788C187.696 16.8792 187.24 16.7937 186.727 16.7937C186.214 16.7937 185.758 16.8792 185.301 17.0788C184.874 17.2499 184.503 17.535 184.161 17.8487C183.847 18.1908 183.591 18.59 183.391 19.0747C183.22 19.5594 183.106 20.0726 183.106 20.6143C183.106 21.1561 183.191 21.6408 183.363 22.097C183.534 22.5532 183.762 22.9808 184.075 23.323C184.389 23.6651 184.76 23.9503 185.216 24.1498C185.644 24.3494 186.157 24.435 186.698 24.435C187.183 24.435 187.668 24.3494 188.096 24.1498C188.523 23.9503 188.894 23.6937 189.236 23.3515C189.55 23.0094 189.806 22.6102 190.006 22.154C190.234 21.6978 190.32 21.1846 190.32 20.6143ZM191.317 20.6143C191.317 21.2986 191.203 21.9544 190.947 22.5246C190.719 23.0949 190.377 23.5796 189.949 23.9788C189.521 24.3779 189.036 24.6916 188.495 24.9197C187.953 25.1478 187.383 25.2618 186.755 25.2618C186.071 25.2618 185.472 25.1478 184.902 24.9197C184.36 24.6916 183.876 24.3494 183.448 23.9503C183.049 23.5226 182.735 23.0379 182.507 22.4961C182.279 21.9259 182.165 21.2986 182.165 20.6428C182.165 19.9586 182.279 19.3028 182.536 18.7325C182.792 18.1623 183.106 17.6776 183.534 17.2784C183.961 16.8792 184.446 16.5656 184.988 16.3375C185.529 16.1094 186.128 15.9954 186.727 15.9954C187.326 15.9954 187.896 16.1094 188.466 16.3375C189.008 16.5656 189.493 16.8792 189.92 17.2784C190.348 17.6776 190.662 18.1623 190.918 18.7325C191.203 19.2743 191.317 19.93 191.317 20.6143ZM186.784 20.3577C186.955 20.3577 187.098 20.3577 187.24 20.3577C187.383 20.3292 187.525 20.3007 187.639 20.2437C187.753 20.1866 187.839 20.1011 187.896 20.0156C187.953 19.9015 187.982 19.759 187.982 19.5594C187.982 19.3883 187.953 19.2743 187.867 19.1887C187.81 19.1032 187.725 19.0177 187.611 18.9891C187.497 18.9606 187.383 18.9036 187.24 18.9036C187.098 18.8751 186.984 18.8751 186.841 18.8751H185.815V20.3862H186.784V20.3577ZM185.843 23.266H184.988V18.1338H186.927C187.554 18.1338 188.01 18.2478 188.324 18.4759C188.637 18.704 188.808 19.0747 188.808 19.6164C188.808 20.0726 188.666 20.4148 188.409 20.6428C188.153 20.8709 187.839 20.985 187.44 21.042L188.894 23.2945H187.924L186.584 21.099H185.786V23.266H185.843Z" fill="black"/>
<path d="M188.124 17.1357C187.696 16.9361 187.24 16.8506 186.755 16.8506C186.27 16.8506 185.786 16.9361 185.358 17.1357C184.93 17.3068 184.56 17.5634 184.246 17.9055C183.932 18.2477 183.676 18.6468 183.505 19.103C183.334 19.5592 183.248 20.0724 183.248 20.6142C183.248 21.1274 183.334 21.6121 183.505 22.0683C183.676 22.5245 183.904 22.9237 184.189 23.2658C184.503 23.6079 184.873 23.8646 185.301 24.0642C185.729 24.2637 186.213 24.3493 186.755 24.3493C187.24 24.3493 187.696 24.2637 188.124 24.0927C188.551 23.8931 188.922 23.6365 189.236 23.3228C189.549 22.9807 189.806 22.61 189.977 22.1538C190.148 21.6976 190.234 21.1844 190.234 20.6142C190.234 20.0724 190.148 19.5592 189.977 19.103C189.806 18.6468 189.549 18.2477 189.236 17.9055C188.922 17.5634 188.551 17.3068 188.124 17.1357ZM188.152 24.1782C187.725 24.3493 187.268 24.4633 186.755 24.4633C186.213 24.4633 185.7 24.3778 185.272 24.1782C184.845 23.9786 184.446 23.6935 184.132 23.3514C183.818 23.0092 183.59 22.61 183.419 22.1253C183.248 21.6691 183.163 21.1559 183.163 20.6427C183.163 20.0725 183.248 19.5592 183.448 19.103C183.619 18.6183 183.875 18.2192 184.218 17.877C184.531 17.5349 184.93 17.2783 185.358 17.1072C185.786 16.9076 186.27 16.8221 186.784 16.8221C187.268 16.8221 187.753 16.9076 188.181 17.1072C188.608 17.2783 188.979 17.5634 189.321 17.877C189.635 18.2192 189.891 18.6183 190.091 19.103C190.262 19.5877 190.376 20.101 190.376 20.6427C190.376 21.2129 190.291 21.7262 190.091 22.2109C189.92 22.6671 189.663 23.0662 189.321 23.4084C188.979 23.722 188.58 23.9786 188.152 24.1782ZM184.873 25.0051C184.303 24.7484 183.818 24.4348 183.391 24.0071C182.991 23.5794 182.678 23.0947 182.421 22.5245C182.193 21.9543 182.079 21.327 182.079 20.6427C182.079 19.9299 182.193 19.3026 182.45 18.7039C182.706 18.1336 183.049 17.6204 183.476 17.2212C183.904 16.7935 184.417 16.4799 184.959 16.2518C185.529 16.0237 186.128 15.9097 186.755 15.9097C187.382 15.9097 187.953 16.0237 188.523 16.2518C189.093 16.4799 189.578 16.7935 190.005 17.2212C190.433 17.6489 190.775 18.1336 191.032 18.7039C191.289 19.2741 191.403 19.9299 191.403 20.6427C191.403 21.3555 191.289 21.9828 191.032 22.5815C190.775 23.1518 190.462 23.665 190.005 24.0642C189.578 24.4918 189.093 24.8055 188.523 25.0336C187.953 25.2617 187.382 25.3757 186.755 25.3757C186.099 25.3472 185.472 25.2332 184.873 25.0051ZM188.494 24.9195C189.036 24.6914 189.521 24.3778 189.948 23.9786C190.376 23.5794 190.69 23.0947 190.946 22.5245C191.203 21.9543 191.317 21.327 191.317 20.6142C191.317 19.9014 191.203 19.2741 190.946 18.7039C190.718 18.1336 190.376 17.6489 189.948 17.2497C189.521 16.8506 189.036 16.5369 188.494 16.3088C187.953 16.0807 187.382 15.9667 186.755 15.9667C186.128 15.9667 185.558 16.0807 185.016 16.3088C184.474 16.5369 183.961 16.8506 183.562 17.2497C183.134 17.6489 182.82 18.1336 182.564 18.7039C182.336 19.2741 182.193 19.9014 182.193 20.6142C182.193 21.27 182.307 21.8972 182.535 22.4675C182.763 23.0377 183.077 23.5224 183.476 23.9216C183.875 24.3493 184.36 24.6629 184.93 24.891C185.501 25.1191 186.099 25.2331 186.784 25.2331C187.382 25.2617 187.953 25.1476 188.494 24.9195ZM187.81 19.2171C187.753 19.1315 187.667 19.0745 187.582 19.0175C187.496 18.9605 187.382 18.932 187.24 18.932C187.097 18.9034 186.983 18.9034 186.869 18.9034H185.928V20.2435H186.784C186.926 20.2435 187.097 20.2435 187.211 20.2435C187.354 20.215 187.468 20.1865 187.553 20.1295C187.639 20.0724 187.725 20.0154 187.782 19.9299C187.839 19.8444 187.867 19.7018 187.867 19.5307C187.896 19.3882 187.867 19.3026 187.81 19.2171ZM187.896 19.9869C187.839 20.0724 187.753 20.158 187.639 20.215C187.525 20.272 187.411 20.3005 187.24 20.3291C187.097 20.3291 186.955 20.3291 186.784 20.3291H185.843V18.8179H186.869C186.983 18.8179 187.126 18.8179 187.268 18.8464C187.411 18.8464 187.525 18.8749 187.639 18.932C187.753 18.989 187.839 19.046 187.896 19.1315C187.981 19.2171 188.01 19.3597 188.01 19.5022C187.981 19.7303 187.953 19.8729 187.896 19.9869ZM185.928 23.3514H184.902V18.0481H186.926C187.553 18.0481 188.038 18.1621 188.38 18.4187C188.722 18.6754 188.894 19.0745 188.894 19.6162C188.894 20.101 188.751 20.4716 188.466 20.6997C188.238 20.8993 187.924 21.0419 187.61 21.0989L189.065 23.3799H187.896L186.556 21.1844H185.9V23.3514H185.928ZM185.843 21.0704H186.641L187.981 23.2658H188.951L187.496 21.0134C187.525 21.0134 187.553 21.0134 187.582 21.0134C187.924 20.9563 188.209 20.8423 188.437 20.6427C188.694 20.4146 188.836 20.101 188.836 19.6162C188.836 19.103 188.665 18.7039 188.352 18.4758C188.038 18.2477 187.582 18.1336 186.955 18.1336H185.016V23.2658H185.871V21.0704H185.843Z" fill="black"/>
</svg>
