<svg width="359" height="55" viewBox="0 0 359 55" fill="none" xmlns="http://www.w3.org/2000/svg">
<g clip-path="url(#clip0_1172_4179)">
<path d="M52.0836 40.7262V31.0357L51.0445 30.381L26.1067 44.131L2.4678 31.0357V25.4048L26.1067 38.369L52.2135 24.0952V14.5357L51.1744 13.881L26.1067 27.7619L3.37699 15.1905L26.1067 2.61905L44.4204 12.7024L45.8491 11.9167V10.869L26.1067 0L0 14.2738V15.7143L26.1067 30.119L49.7457 17.0238V22.7857L26.1067 35.881L1.03907 22L0 22.6548V32.3452L26.1067 46.619L49.7457 33.6548V39.2857L26.1067 52.381L1.03907 38.631L0 39.2857V40.7262L26.1067 55L52.0836 40.7262Z" fill="black"/>
<path fill-rule="evenodd" clip-rule="evenodd" d="M101.7 2.88086V47.0118H94.6858V43.738C94.6858 43.4761 94.556 43.2142 94.2962 43.2142C94.0364 43.0832 93.7766 43.2142 93.6468 43.3451C91.179 46.0951 87.5422 47.7975 83.5158 47.7975C79.3595 47.7975 75.463 46.0951 72.6055 43.2142C69.7481 40.2023 68.1895 36.1428 68.1895 31.6904C68.1895 22.6547 74.9434 15.5832 83.5158 15.5832C87.5422 15.5832 91.3088 17.1547 93.6468 19.7737C93.7766 19.9047 94.0364 20.0356 94.2962 19.9047C94.556 19.7737 94.6858 19.6428 94.6858 19.3809V2.88086H101.7ZM75.2032 31.6904C75.2032 37.3213 79.4894 41.6428 85.0744 41.6428C90.6594 41.6428 94.9456 37.3213 94.9456 31.6904C94.9456 26.0594 90.6594 21.738 85.0744 21.738C79.6193 21.738 75.2032 26.0594 75.2032 31.6904Z" fill="black"/>
<path fill-rule="evenodd" clip-rule="evenodd" d="M138.846 16.238V47.0118H131.962V43.738C131.962 43.4761 131.832 43.2142 131.573 43.2142C131.313 43.0833 131.053 43.2142 130.923 43.3452C128.455 46.2261 124.819 47.7975 120.792 47.7975C112.22 47.7975 105.466 40.7261 105.466 31.6904C105.466 22.6547 112.22 15.5833 120.792 15.5833C124.948 15.5833 128.585 17.0237 130.923 19.7737C131.053 19.9047 131.313 20.0356 131.573 19.9047C131.832 19.7737 131.962 19.6428 131.962 19.3809V16.238H138.846ZM112.48 31.6904C112.48 37.3213 116.766 41.6428 122.351 41.6428C127.936 41.6428 132.222 37.3213 132.222 31.6904C132.222 26.0594 127.936 21.738 122.351 21.738C116.896 21.738 112.48 26.0594 112.48 31.6904Z" fill="black"/>
<path fill-rule="evenodd" clip-rule="evenodd" d="M197.944 16.238V47.0118H191.06V43.738C191.06 43.4761 190.93 43.2142 190.67 43.2142C190.41 43.0833 190.151 43.2142 190.021 43.3452C187.553 46.2261 183.916 47.7975 179.89 47.7975C171.317 47.7975 164.563 40.7261 164.563 31.6904C164.563 22.6547 171.317 15.5833 179.89 15.5833C184.046 15.5833 187.683 17.0237 190.021 19.7737C190.151 19.9047 190.41 20.0356 190.67 19.9047C190.93 19.7737 191.06 19.6428 191.06 19.3809V16.238H197.944ZM171.577 31.6904C171.577 37.3213 175.863 41.6428 181.448 41.6428C187.033 41.6428 191.32 37.3213 191.32 31.6904C191.32 26.0594 187.033 21.738 181.448 21.738C175.863 21.738 171.577 26.0594 171.577 31.6904Z" fill="black"/>
<path fill-rule="evenodd" clip-rule="evenodd" d="M210.932 43.3451C210.802 43.3451 210.802 43.3451 210.672 43.3451C210.412 43.4761 210.282 43.607 210.282 43.869V47.0118H203.269V2.88086H210.282V19.5118C210.282 19.7737 210.412 20.0356 210.672 20.0356C210.932 20.1666 211.191 20.0356 211.321 19.9047C213.789 17.1547 217.426 15.4523 221.452 15.4523C225.609 15.4523 229.505 17.1547 232.363 20.0356C235.22 23.0475 236.779 27.107 236.779 31.5594C236.779 40.5951 230.025 47.6666 221.452 47.6666C217.426 47.6666 213.659 46.0951 211.321 43.4761C211.191 43.4761 211.062 43.3451 210.932 43.3451ZM219.894 21.738C214.309 21.738 210.023 26.0594 210.023 31.6904C210.023 37.3213 214.309 41.6428 219.894 41.6428C225.479 41.6428 229.765 37.3213 229.765 31.6904C229.765 26.0594 225.349 21.738 219.894 21.738Z" fill="black"/>
<path d="M256.911 22.5237C257.561 22.5237 258.21 22.5237 258.6 22.6547V15.7142C258.34 15.7142 257.95 15.5833 257.431 15.5833C253.794 15.5833 250.417 17.4166 248.729 20.2975C248.599 20.5594 248.339 20.6904 248.079 20.5594C247.819 20.4285 247.69 20.2975 247.69 20.0356V16.238H240.806V47.0118H247.819V33.5237C247.56 26.7142 251.196 22.5237 256.911 22.5237Z" fill="black"/>
<path d="M269.9 16.238H262.886V47.0118H269.9V16.238Z" fill="black"/>
<path d="M266.393 2.88086C264.055 2.88086 262.106 4.71419 262.106 7.07134C262.106 9.42848 264.055 11.2618 266.393 11.2618C268.731 11.2618 270.679 9.42848 270.679 7.07134C270.679 4.84515 268.731 2.88086 266.393 2.88086Z" fill="black"/>
<path d="M290.681 15.5833C281.069 15.5833 274.056 22.3928 274.056 31.6904C274.056 36.2737 275.744 40.3333 278.732 43.2142C281.719 46.0952 286.005 47.7975 290.681 47.7975C294.577 47.7975 297.695 47.0118 303.41 42.9523L299.513 38.8928C296.656 40.7261 294.058 41.6428 291.46 41.6428C285.615 41.6428 281.199 37.3213 281.199 31.6904C281.199 26.0594 285.615 21.738 291.46 21.738C294.188 21.738 296.785 22.6547 299.383 24.488L303.799 20.4285C298.474 15.9761 293.798 15.5833 290.681 15.5833Z" fill="black"/>
<path d="M315.488 33.5237C315.618 33.3928 315.748 33.3928 315.878 33.3928C316.008 33.3928 316.138 33.5237 316.268 33.6547L327.438 47.1428H336.01L321.593 30.119C321.333 29.857 321.463 29.5951 321.593 29.3332L334.841 16.369H326.399L314.969 27.4999C314.839 27.6309 314.579 27.7618 314.319 27.6309C314.06 27.4999 313.93 27.369 313.93 27.107V2.88086H306.916V47.0118H313.93V35.0951C313.93 34.9642 314.06 34.8332 314.06 34.7023L315.488 33.5237Z" fill="black"/>
<path d="M347.57 47.7975C353.285 47.7975 359.13 44.3928 359.13 37.9761C359.13 33.7856 356.403 30.9047 350.818 29.0713L347.051 27.8928C344.453 27.1071 343.284 25.9285 343.284 24.2261C343.284 22.3928 344.973 21.0833 347.441 21.0833C349.778 21.0833 351.857 22.5237 353.155 25.1428L358.741 22.2618C356.662 18.0713 352.376 15.5833 347.441 15.5833C341.206 15.5833 336.66 19.5118 336.66 24.8809C336.66 29.2023 339.258 32.0833 344.583 33.6547L348.48 34.8333C351.207 35.619 352.376 36.6666 352.376 38.4999C352.376 41.119 349.908 42.0356 347.83 42.0356C344.973 42.0356 342.505 40.2023 341.206 37.3213L335.491 40.2023C337.31 44.9166 341.985 47.7975 347.57 47.7975Z" fill="black"/>
<path d="M158.199 47.5358C160.407 47.5358 162.356 47.4048 163.525 47.1429V41.25C162.615 41.381 161.057 41.512 160.018 41.512C157.16 41.512 155.082 40.9881 155.082 35.0953V22.5239C155.082 22.262 155.342 22 155.732 22H162.486V16.5H155.732C155.342 16.5 155.082 16.2381 155.082 15.9762V6.80957H148.198V15.7143C148.198 15.9762 147.939 16.2381 147.549 16.2381H142.743V21.7381H147.549C147.939 21.7381 148.198 22 148.198 22.262V36.5358C148.068 47.5358 155.472 47.5358 158.199 47.5358Z" fill="black"/>
</g>
<defs>
<clipPath id="clip0_1172_4179">
<rect width="359" height="55" fill="white"/>
</clipPath>
</defs>
</svg>
