<svg width="211" height="60" viewBox="0 0 211 60" fill="none" xmlns="http://www.w3.org/2000/svg">
<g clip-path="url(#clip0_1173_4200)">
<path d="M26.6098 59.8666C26.31 60.0335 25.9437 60.0335 25.6439 59.8666L2.84706 46.4017C2.19763 46.0346 2.21428 45.0835 2.84706 44.7165L11.7227 39.5607C11.8726 39.4773 12.0391 39.4272 12.2056 39.4272H40.0148C40.1813 39.4272 40.3478 39.4773 40.4977 39.5607L49.3733 44.7165C50.0227 45.0835 50.0227 46.0179 49.3733 46.4017L26.5931 59.8666H26.6098Z" fill="black"/>
<path d="M41.9305 37.0244C41.7806 36.941 41.6807 36.8242 41.5808 36.674L27.6928 13.2814C27.6096 13.1312 27.543 12.9477 27.543 12.7808V1.01776C27.543 0.266922 28.3589 -0.200264 28.9917 0.166811L51.7553 13.7319C52.055 13.8987 52.2215 14.2324 52.2215 14.5828V41.3459C52.2215 42.0967 51.4222 42.5639 50.7894 42.1968L41.9138 37.0244H41.9305Z" fill="black"/>
<path d="M24.6952 0.967707C24.6952 0.216873 23.8959 -0.250313 23.2631 0.116762L0.482914 13.4816C0.183174 13.6652 0 13.9822 0 14.3326V41.3459C0 42.0967 0.799306 42.5639 1.43209 42.1969L10.3077 37.0411C10.4576 36.9577 10.5575 36.8409 10.6574 36.6907L24.5453 13.2814C24.6286 13.1312 24.6952 12.9477 24.6952 12.7808V0.967707Z" fill="black"/>
<path d="M81.7119 27.8644H94.5175C94.9671 37.0913 89.5052 43.5318 81.1624 43.5318C72.8197 43.5318 66.6084 37.2748 66.6084 29.2826C66.6084 21.2904 72.9695 15.0334 81.0958 15.0334C86.4079 15.0334 90.9706 17.6697 92.9355 21.8577L88.1397 24.3772C86.5744 21.6074 84.1765 20.1725 81.1458 20.1725C76.1668 20.1725 72.3534 24.1102 72.3534 29.2826C72.3534 34.455 76.2001 38.3927 81.229 38.3927C85.1922 38.3927 88.3062 35.9233 88.6393 32.5362H81.7452V27.8644H81.7119Z" fill="black"/>
<path d="M97.498 15.6008H102.444V42.9646H97.498V15.6008Z" fill="black"/>
<path d="M115.982 43.5317C109.771 43.5317 105.208 39.2603 105.208 33.4705C105.208 27.6808 109.704 23.2759 115.466 23.2759C121.227 23.2759 125.157 27.5973 125.157 33.2536C125.157 33.8042 125.107 34.5217 125.041 35.2392H110.637C111.12 37.5751 113.035 39.0601 115.865 39.0601C117.814 39.0601 119.196 38.3426 120.578 36.7075L124.508 39.6441C122.56 42.1635 119.512 43.5484 115.965 43.5484L115.982 43.5317ZM119.879 31.3015C119.579 29.1324 117.847 27.6641 115.432 27.6641C113.018 27.6641 111.386 29.1991 110.786 31.3015H119.879Z" fill="black"/>
<path d="M147.971 42.9644H143.292V41.2792C141.61 42.7141 139.446 43.5317 137.081 43.5317C131.586 43.5317 127.156 39.0267 127.156 33.4038C127.156 27.7809 131.569 23.2759 137.081 23.2759C139.429 23.2759 141.61 24.1101 143.292 25.5284V23.8432H147.971V42.9644ZM137.714 38.9433C140.661 38.9433 143.026 36.5406 143.026 33.3871C143.026 30.2336 140.678 27.8309 137.714 27.8309C134.75 27.8309 132.368 30.2336 132.368 33.3871C132.368 36.5406 134.716 38.9433 137.714 38.9433Z" fill="black"/>
<path d="M151.418 23.8433H156.031V25.1948C157.18 23.9267 159.028 23.2092 161.193 23.2092C165.639 23.2092 168.753 26.3627 168.753 30.9011V42.9645H163.824V31.702C163.824 29.4495 162.325 27.7643 160.194 27.7643C158.062 27.7643 156.38 29.4495 156.38 31.5518V42.9478H151.435V23.8266L151.418 23.8433Z" fill="black"/>
<path d="M175.63 37.2749C177.462 37.2749 178.927 38.6598 178.927 40.4284C178.927 42.197 177.479 43.5485 175.63 43.5485C173.782 43.5485 172.333 42.197 172.333 40.4284C172.333 38.6598 173.765 37.2749 175.63 37.2749Z" fill="black"/>
<path d="M201.907 42.9644H197.228V41.2792C195.546 42.7141 193.381 43.5317 191.017 43.5317C185.521 43.5317 181.092 39.0267 181.092 33.4038C181.092 27.7809 185.505 23.2759 191.017 23.2759C193.364 23.2759 195.546 24.1101 197.228 25.5284V23.8432H201.907V42.9644ZM191.649 38.9433C194.597 38.9433 196.961 36.5406 196.961 33.3871C196.961 30.2336 194.613 27.8309 191.649 27.8309C188.685 27.8309 186.304 30.2336 186.304 33.3871C186.304 36.5406 188.652 38.9433 191.649 38.9433Z" fill="black"/>
<path d="M207.786 15.1836C209.584 15.1836 211 16.4517 211 18.1869C211 19.9222 209.568 21.1903 207.786 21.1903C206.004 21.1903 204.655 19.9222 204.655 18.1869C204.655 16.4517 206.037 15.1836 207.786 15.1836ZM205.355 23.8432H210.3V42.9645H205.355V23.8432Z" fill="black"/>
</g>
<defs>
<clipPath id="clip0_1173_4200">
<rect width="211" height="60" fill="white"/>
</clipPath>
</defs>
</svg>
