<svg width="318" height="80" viewBox="0 0 318 80" fill="none" xmlns="http://www.w3.org/2000/svg">
<path fill-rule="evenodd" clip-rule="evenodd" d="M20.2273 8.3999L38.2464 24.9809V24.9771V8.43816H41.754V25.0551L59.8538 8.3999V27.3047H67.2849V54.5731H59.8766V71.4069L41.754 55.5049V71.5895H38.2464V55.7671L20.2478 71.5999V54.5731H12.8164V27.3047H20.2273V8.3999ZM35.6021 30.7651H16.324V51.1127H20.2433V44.6943L35.6021 30.7651ZM23.7552 46.2297V63.8783L38.2464 51.1309V33.0841L23.7552 46.2297ZM41.8549 50.9623V33.0671L56.3504 46.2135V54.5731H56.369V63.6981L41.8549 50.9623ZM59.8766 51.1127H63.7773V30.7651H44.6428L59.8766 44.5501V51.1127ZM56.3462 27.3047V16.3596L44.4516 27.3047H56.3462ZM35.6293 27.3047H23.7349V16.3596L35.6293 27.3047Z" fill="black"/>
<mask id="mask0_1173_4193" style="mask-type:luminance" maskUnits="userSpaceOnUse" x="82" y="16" width="224" height="48">
<path d="M305.184 16.8H82.3037V63.2001H305.184V16.8Z" fill="white"/>
</mask>
<g mask="url(#mask0_1173_4193)">
<path d="M153.946 26.8897H156.173V31.4733H153.29C151.031 31.4733 149.346 32.0161 148.229 33.1049C147.119 34.1903 146.561 35.9755 146.561 38.4569V53.4865H142.009V26.9943H146.561V31.2217C146.561 31.4603 146.681 31.5781 146.915 31.5781C147.048 31.5781 147.148 31.5453 147.22 31.4767C147.291 31.4079 147.353 31.2739 147.424 31.0679C148.301 28.2857 150.479 26.8929 153.949 26.8929H153.946V26.8897ZM184.221 32.5687C185.416 34.6905 186.016 37.2473 186.016 40.2355C186.016 43.2237 185.419 45.7805 184.221 47.9023C183.023 50.0243 181.471 51.6131 179.566 52.6659C177.66 53.7187 175.612 54.2451 173.421 54.2451C169.103 54.2451 166.068 52.5123 164.315 49.0467C164.182 48.7753 164.01 48.6379 163.808 48.6379C163.607 48.6379 163.503 48.7393 163.503 48.9453V63.1609H158.952V26.9909H163.503V31.5257C163.503 31.7283 163.604 31.8331 163.808 31.8331C164.013 31.8331 164.178 31.6989 164.315 31.4243C166.068 27.9587 169.103 26.2259 173.421 26.2259C175.612 26.2259 177.66 26.7523 179.566 27.8051C181.471 28.8579 183.02 30.4467 184.221 32.5687ZM181.468 40.2355C181.468 37.1099 180.634 34.6741 178.965 32.9251C177.297 31.1759 175.099 30.3029 172.362 30.3029C169.626 30.3029 167.428 31.1791 165.759 32.9251C164.087 34.6741 163.477 37.1131 163.477 40.2355C163.477 43.3579 164.091 45.7969 165.759 47.5459C167.428 49.2985 169.629 50.1681 172.362 50.1681C175.096 50.1681 177.297 49.2919 178.965 47.5459C180.634 45.8001 181.468 43.3579 181.468 40.2355ZM107.569 32.6079C108.764 34.7297 109.365 37.2865 109.365 40.2747C109.365 43.2631 108.767 45.8197 107.569 47.9415C106.372 50.0635 104.82 51.6525 102.914 52.7051C101.009 53.7579 98.9605 54.2843 96.7691 54.2843C92.4517 54.2843 89.4163 52.5515 87.6633 49.0859C87.5303 48.8145 87.3583 48.6773 87.1568 48.6773C86.9556 48.6773 86.8518 48.7785 86.8518 48.9845V63.2001H82.3037V27.0303H86.855V31.5649C86.855 31.7677 86.9556 31.8723 87.1602 31.8723C87.3647 31.8723 87.5303 31.7383 87.6667 31.4635C89.4197 27.9979 92.4549 26.2651 96.7725 26.2651C98.9637 26.2651 101.012 26.7915 102.918 27.8443C104.823 28.8971 106.372 30.4861 107.573 32.6079H107.569ZM104.813 40.2747C104.813 37.1491 103.979 34.7135 102.311 32.9643C100.642 31.2183 98.441 30.3421 95.7076 30.3421C92.9743 30.3421 90.7734 31.2183 89.1047 32.9643C87.4362 34.7167 86.8226 37.1525 86.8226 40.2747C86.8226 43.3971 87.4362 45.8361 89.1047 47.5853C90.7734 49.3377 92.9709 50.2073 95.7076 50.2073C98.4442 50.2073 100.642 49.3311 102.311 47.5853C103.979 45.8393 104.813 43.3971 104.813 40.2747ZM133.965 45.0711H138.77C138.13 47.5525 136.822 49.7005 134.851 51.5151C132.878 53.3329 130.053 54.2385 126.375 54.2385C123.609 54.2385 121.175 53.6697 119.068 52.5319C116.961 51.3941 115.335 49.7757 114.185 47.6669C113.036 45.5615 112.465 43.0831 112.465 40.2289C112.465 37.3747 113.023 34.8965 114.134 32.7909C115.244 30.6855 116.805 29.0637 118.811 27.9261C120.818 26.7883 123.168 26.2193 125.866 26.2193C128.563 26.2193 130.8 26.7817 132.67 27.8999C134.543 29.0213 135.939 30.5089 136.867 32.3561C137.796 34.2099 138.257 36.2369 138.257 38.4439V41.5007H117.266C117.432 44.1491 118.321 46.2579 119.922 47.8173C121.522 49.3801 123.674 50.1615 126.372 50.1615C128.563 50.1615 130.245 49.7137 131.407 48.8113C132.569 47.9089 133.42 46.6633 133.962 45.0645L133.965 45.0711ZM117.172 37.6853H133.056C133.056 35.3771 132.465 33.5659 131.284 32.2581C130.102 30.9535 128.249 30.2963 125.72 30.2963C123.36 30.2963 121.428 30.9339 119.928 32.2091C118.428 33.4809 117.51 35.3085 117.172 37.6853ZM189.688 53.4801H194.242V16.8H189.688V53.4833V53.4801ZM253.697 24.0975H259.016V18.3629H253.697V24.0975ZM273.334 49.5339C272.507 49.6189 272.006 49.6613 271.842 49.6613C271.608 49.6613 271.416 49.5927 271.283 49.4553C271.149 49.3213 271.079 49.1349 271.079 48.8929C271.079 48.7263 271.123 48.2227 271.209 47.3891C271.289 46.5587 271.336 45.2737 271.336 43.5441V30.8685H277.828L276.548 26.9877H271.338V19.8537H266.788V26.9845H261.836V30.8653H266.788V44.8127C266.788 47.7357 267.499 49.9097 268.912 51.3353C270.328 52.7607 272.487 53.4767 275.391 53.4767H278.931V49.4031H277.159C275.439 49.4031 274.165 49.4455 273.338 49.5305L273.334 49.5339ZM300.847 26.9877L293.309 49.2167C293.209 49.4913 293.049 49.8477 292.534 49.8477C292.018 49.8477 291.855 49.4913 291.753 49.2167L284.216 26.9877H279.574L288.303 53.4801H291.391C291.591 53.4801 291.745 53.4997 291.849 53.5323C291.949 53.5651 292.034 53.6501 292.102 53.7873C292.234 53.9901 292.218 54.2973 292.05 54.7029L290.634 58.5739C290.43 59.0839 290.043 59.3389 289.472 59.3389C289.268 59.3389 288.797 59.2963 288.057 59.2113C287.314 59.1263 286.356 59.0839 285.175 59.0839H281.48V63.1575H286.336C289.17 63.1575 290.874 62.6737 292.342 61.7059C293.81 60.7383 294.945 59.0315 295.756 56.5861L305.184 28.0045V26.9877H300.853H300.847ZM238.292 36.8713L231.159 26.9877H226.151V28.0045L234.697 39.4671L224.276 52.4599V53.4767H229.387L237.683 42.8281L245.423 53.4767H250.331V52.4599L241.274 40.2323L251.092 28.0569V26.9877H245.982L238.294 36.8713H238.292ZM254.182 53.4801H258.736V26.9909H254.182V53.4833V53.4801ZM224.214 45.0711C223.571 47.5525 222.268 49.7005 220.297 51.5151C218.323 53.3329 215.499 54.2385 211.821 54.2385C209.055 54.2385 206.62 53.6697 204.513 52.5319C202.403 51.3941 200.781 49.7757 199.631 47.6669C198.485 45.5615 197.914 43.0831 197.914 40.2289C197.914 37.3747 198.472 34.8965 199.582 32.7909C200.697 30.6855 202.255 29.0637 204.261 27.9261C206.266 26.7883 208.617 26.2193 211.318 26.2193C214.019 26.2193 216.252 26.7817 218.125 27.8999C219.995 29.0213 221.395 30.5089 222.322 32.3561C223.251 34.2099 223.712 36.2369 223.712 38.4439V41.5007H202.719C202.887 44.1491 203.773 46.2579 205.375 47.8173C206.975 49.3801 209.127 50.1615 211.825 50.1615C214.015 50.1615 215.698 49.7137 216.859 48.8113C218.02 47.9089 218.872 46.6633 219.41 45.0645H224.218L224.214 45.0711ZM202.731 37.6853H218.615C218.615 35.3771 218.024 33.5659 216.847 32.2581C215.663 30.9535 213.811 30.2963 211.282 30.2963C208.921 30.2963 206.991 30.9339 205.491 32.2091C203.991 33.4809 203.07 35.3085 202.735 37.6853H202.731Z" fill="black"/>
</g>
</svg>
