<svg width="36" height="36" viewBox="0 0 36 36" fill="none" xmlns="http://www.w3.org/2000/svg">
<circle cx="18" cy="18" r="18" fill="url(#paint0_linear_1025_6773)"/>
<path d="M27.25 11.5C27.0511 11.5 26.8603 11.421 26.7197 11.2803C26.579 11.1397 26.5 10.9489 26.5 10.75C26.5 10.5511 26.579 10.3603 26.7197 10.2197C26.8603 10.079 27.0511 10 27.25 10C27.4489 10 27.6397 10.079 27.7803 10.2197C27.921 10.3603 28 10.5511 28 10.75C28 10.9489 27.921 11.1397 27.7803 11.2803C27.6397 11.421 27.4489 11.5 27.25 11.5ZM27.25 11.5V15.25C27.25 15.948 27.25 16.297 27.164 16.58C27.0687 16.8948 26.8971 17.1813 26.6646 17.414C26.4321 17.6467 26.1458 17.8184 25.831 17.914C25.547 18 25.198 18 24.5 18M8.75 24.5C8.94891 24.5 9.13968 24.579 9.28033 24.7197C9.42098 24.8603 9.5 25.0511 9.5 25.25C9.5 25.4489 9.42098 25.6397 9.28033 25.7803C9.13968 25.921 8.94891 26 8.75 26C8.55109 26 8.36032 25.921 8.21967 25.7803C8.07902 25.6397 8 25.4489 8 25.25C8 25.0511 8.07902 24.8603 8.21967 24.7197C8.36032 24.579 8.55109 24.5 8.75 24.5ZM8.75 24.5V20.75C8.75 20.052 8.75 19.703 8.836 19.42C8.93135 19.1052 9.10288 18.8187 9.3354 18.586C9.56792 18.3533 9.85424 18.1816 10.169 18.086C10.453 18 10.802 18 11.5 18M11.5 8.75C11.5 8.94891 11.421 9.13968 11.2803 9.28033C11.1397 9.42098 10.9489 9.5 10.75 9.5C10.5511 9.5 10.3603 9.42098 10.2197 9.28033C10.079 9.13968 10 8.94891 10 8.75C10 8.55109 10.079 8.36032 10.2197 8.21967C10.3603 8.07902 10.5511 8 10.75 8C10.9489 8 11.1397 8.07902 11.2803 8.21967C11.421 8.36032 11.5 8.55109 11.5 8.75ZM11.5 8.75H15.25C15.948 8.75 16.297 8.75 16.58 8.836C16.8948 8.93135 17.1813 9.10288 17.414 9.3354C17.6467 9.56792 17.8184 9.85424 17.914 10.169C18 10.453 18 10.802 18 11.5M24.5 27.25C24.5 27.0511 24.579 26.8603 24.7197 26.7197C24.8603 26.579 25.0511 26.5 25.25 26.5C25.4489 26.5 25.6397 26.579 25.7803 26.7197C25.921 26.8603 26 27.0511 26 27.25C26 27.4489 25.921 27.6397 25.7803 27.7803C25.6397 27.921 25.4489 28 25.25 28C25.0511 28 24.8603 27.921 24.7197 27.7803C24.579 27.6397 24.5 27.4489 24.5 27.25ZM24.5 27.25H20.75C20.052 27.25 19.703 27.25 19.42 27.164C19.1052 27.0687 18.8187 26.8971 18.586 26.6646C18.3533 26.4321 18.1816 26.1458 18.086 25.831C18 25.547 18 25.198 18 24.5" stroke="white" stroke-width="1.8" stroke-linecap="round" stroke-linejoin="round"/>
<path d="M11.5527 17.9509C11.5527 14.8869 11.5527 13.3549 12.5047 12.4029C13.4567 11.4509 14.9887 11.4509 18.0527 11.4509C21.1167 11.4509 22.6487 11.4509 23.6007 12.4029C24.5527 13.3549 24.5527 14.8869 24.5527 17.9509C24.5527 21.0149 24.5527 22.5469 23.6007 23.4989C22.6487 24.4509 21.1167 24.4509 18.0527 24.4509C14.9887 24.4509 13.4567 24.4509 12.5047 23.4989C11.5527 22.5469 11.5527 21.0149 11.5527 17.9509Z" stroke="white" stroke-width="1.8" stroke-linecap="round" stroke-linejoin="round"/>
<path d="M18.4994 20.4999L17.0394 15.9789C16.9887 15.8363 16.8944 15.7132 16.7698 15.6272C16.6453 15.5412 16.4967 15.4967 16.3454 15.4999C16.1942 15.4969 16.0459 15.5415 15.9215 15.6275C15.7971 15.7135 15.703 15.8364 15.6524 15.9789L14.1924 20.4999M20.9994 15.4999V20.4999M14.7294 18.9999H17.9614" stroke="white" stroke-width="1.8" stroke-linecap="round" stroke-linejoin="round"/>
<defs>
<linearGradient id="paint0_linear_1025_6773" x1="0" y1="0" x2="38.15" y2="33.5556" gradientUnits="userSpaceOnUse">
<stop stop-color="#E68A00"/>
<stop offset="1" stop-color="#060052"/>
</linearGradient>
</defs>
</svg>
