<svg xmlns="http://www.w3.org/2000/svg" width="36" height="36" viewBox="0 0 36 36" fill="none">
  <circle cx="18" cy="18" r="18" fill="#404040"/>
  <path d="M14.1111 17.1818H21.8889M14.1111 20.4545H21.8889M14.1111 23.7273H21.8889M20.3333 9V13.0909C20.3333 13.5491 20.6756 13.9091 21.1111 13.9091H25M25 13.4345V26.1818C25 26.64 24.6578 27 24.2222 27H11.7778C11.3422 27 11 26.64 11 26.1818V9.81818C11 9.36 11.3422 9 11.7778 9H20.7844C20.9867 9 21.1889 9.08182 21.3289 9.24545L24.7667 12.8618C24.9222 13.0091 25 13.2055 25 13.4345Z" stroke="white" stroke-width="1.8" stroke-linecap="round"/>
</svg>