<svg xmlns="http://www.w3.org/2000/svg" width="36" height="36" viewBox="0 0 36 36" fill="none">
  <circle cx="18" cy="18" r="18" fill="#404040"/>
  <path d="M27 18C27 23.4 23.049 27 18.1746 27C14.2128 27 11.016 24.8985 9.9 21.6M9 18C9 12.6 12.951 9 17.8263 9C21.7872 9 24.9822 11.1015 26.1 14.4" stroke="white" stroke-width="2" stroke-linecap="round" stroke-linejoin="round"/>
  <path d="M13.5 22.4998L9.9 21.5998L9 25.1998M22.5 13.4998L26.1 14.3998L27 10.7998" stroke="white" stroke-width="2" stroke-linecap="round" stroke-linejoin="round"/>
  <path d="M15 19.8708C15.0645 20.4361 15.4146 20.9596 15.9753 21.3291C16.5361 21.6986 17.2628 21.8847 18 21.8477C20.4198 21.8477 21 20.7783 21 19.8708C21 18.9632 19.9996 18.0014 18 18.0014C16.0004 18.0014 15 17.3939 15 16.1559C15.0278 15.7269 15.225 15.3146 15.5653 14.9738C15.9057 14.6331 16.3731 14.3801 16.9054 14.2485C17.2587 14.1608 17.6306 14.1294 18 14.1561C18.7381 14.1314 19.4605 14.325 20.0185 14.697C20.5765 15.069 20.9278 15.5911 21 16.1559M18 23V21.9991M18 13V14.1523" stroke="white" stroke-width="1.8" stroke-linecap="round" stroke-linejoin="round"/>
</svg>