<svg xmlns="http://www.w3.org/2000/svg" width="36" height="36" viewBox="0 0 36 36" fill="none">
  <circle cx="18" cy="18" r="18" fill="#404040"/>
  <path d="M26.943 22.835C26.3949 19.5635 24.8285 16.5484 22.467 14.219C21.95 13.716 21.692 13.465 21.121 13.233C20.55 13 20.059 13 19.078 13H16.922C15.941 13 15.45 13 14.879 13.233C14.309 13.465 14.049 13.716 13.533 14.219C11.1714 16.5484 9.60508 19.5635 9.05698 22.835C8.56998 25.773 11.28 28 14.308 28H21.692C24.721 28 27.432 25.773 26.942 22.835" stroke="white" stroke-width="1.8" stroke-linecap="round" stroke-linejoin="round"/>
  <path d="M19.6272 18.919C19.4112 18.12 18.3102 17.4 16.9892 17.939C15.6682 18.478 15.4592 20.211 17.4562 20.396C18.3602 20.479 18.9482 20.299 19.4872 20.808C20.0272 21.316 20.1272 22.731 18.7482 23.112C17.3712 23.493 16.0062 22.898 15.8582 22.052M17.8422 16.992V17.753M17.8422 23.229V23.993M13.2572 10.443C13.0502 10.143 12.7512 9.735 13.3692 9.643C14.0042 9.547 14.6632 9.981 15.3092 9.973C15.8922 9.964 16.1892 9.705 16.5092 9.335C16.8452 8.946 17.3652 8 18.0002 8C18.6352 8 19.1552 8.946 19.4912 9.335C19.8112 9.705 20.1082 9.965 20.6912 9.972C21.3372 9.982 21.9962 9.547 22.6312 9.642C23.2492 9.735 22.9502 10.142 22.7432 10.442L21.8112 11.801C21.4112 12.381 21.2122 12.671 20.7942 12.836C20.3762 13.001 19.8372 13 18.7582 13H17.2422C16.1622 13 15.6232 13 15.2062 12.836C14.7892 12.672 14.5892 12.38 14.1892 11.8L13.2572 10.443Z" stroke="white" stroke-width="1.8" stroke-linecap="round" stroke-linejoin="round"/>
</svg>