<svg xmlns="http://www.w3.org/2000/svg" width="84" height="84" viewBox="0 0 84 84" fill="none">
  <circle cx="42" cy="42" r="32" fill="#060052"/>
  <path d="M58 52V32C58 27.664 50.674 24 42 24C33.326 24 26 27.664 26 32V52C26 56.336 33.326 60 42 60C50.674 60 58 56.336 58 52ZM42 28C49.382 28 53.862 31.014 54 31.988C53.862 32.986 49.382 36 42 36C34.618 36 30.138 32.986 30 32.012C30.138 31.014 34.618 28 42 28ZM30 37.214C32.958 38.908 37.274 40 42 40C46.726 40 51.042 38.908 54 37.214V41.988C53.862 42.986 49.382 46 42 46C34.618 46 30.138 42.986 30 42V37.214ZM30 52V47.214C32.958 48.908 37.274 50 42 50C46.726 50 51.042 48.908 54 47.214V51.988C53.862 52.986 49.382 56 42 56C34.618 56 30.138 52.986 30 52Z" fill="white"/>
</svg>