<svg xmlns="http://www.w3.org/2000/svg" width="84" height="84" viewBox="0 0 84 84" fill="none">
  <circle cx="42" cy="42" r="32" fill="#060052"/>
  <path d="M45.6598 38.0517C45.4556 37.486 45.0789 36.9962 44.5813 36.6495C44.0837 36.3028 43.4895 36.116 42.88 36.1148H40.5981C39.9471 36.1115 39.3179 36.346 38.8323 36.7732C38.3467 37.2004 38.0391 37.7897 37.969 38.4274C37.8989 39.065 38.0713 39.7056 38.4528 40.2253C38.8343 40.745 39.3979 41.1069 40.0346 41.2409L43.5093 41.9878C44.2197 42.141 44.8477 42.5475 45.2725 43.1291C45.6972 43.7108 45.8888 44.4265 45.8105 45.1389C45.7321 45.8513 45.3893 46.51 44.8479 46.9885C44.3066 47.467 43.6048 47.7315 42.8775 47.7312H40.914C39.6303 47.7312 38.5386 46.9246 38.1342 45.7968M41.897 36.1148V33.2095M41.897 50.6366V47.7337M29.6055 58.444V52.22H35.9231" stroke="white" stroke-width="3" stroke-linecap="round" stroke-linejoin="round"/>
  <path d="M58.1662 39.2384C58.8288 42.7691 58.2998 46.4197 56.6622 49.6173C55.0246 52.815 52.3711 55.3786 49.1181 56.9058C45.8652 58.433 42.197 58.8374 38.6893 58.0555C35.1816 57.2736 32.0329 55.3496 29.7375 52.5855M26.2781 45.2059C25.6155 41.6753 26.1446 38.0246 27.7822 34.827C29.4198 31.6294 32.0733 29.0658 35.3262 27.5385C38.5791 26.0113 42.2473 25.6069 45.755 26.3888C49.2627 27.1708 52.4114 29.0948 54.7068 31.8588" stroke="white" stroke-width="3" stroke-linecap="round" stroke-linejoin="round"/>
  <path d="M55.1998 26V32.4889H48.7109" stroke="white" stroke-width="3" stroke-linecap="round" stroke-linejoin="round"/>
</svg>