<svg xmlns="http://www.w3.org/2000/svg" width="84" height="84" viewBox="0 0 84 84" fill="none">
  <circle cx="42" cy="42" r="32" fill="#060052"/>
  <path d="M46.1755 29.928C45.2529 29.928 44.3681 30.3134 43.7158 30.9995C43.0634 31.6856 42.6969 32.6161 42.6969 33.5864C42.6969 34.5566 43.0634 35.4871 43.7158 36.1732C44.3681 36.8593 45.2529 37.2447 46.1755 37.2447C47.098 37.2447 47.9828 36.8593 48.6351 36.1732C49.2875 35.4871 49.654 34.5566 49.654 33.5864C49.654 32.6161 49.2875 31.6856 48.6351 30.9995C47.9828 30.3134 47.098 29.928 46.1755 29.928ZM39.9141 33.5864C39.9139 32.4655 40.1857 31.3631 40.7039 30.3837C41.222 29.4042 41.9693 28.58 42.8749 27.9892C43.7806 27.3983 44.8146 27.0604 45.8792 27.0074C46.9438 26.9543 48.0036 27.188 48.9583 27.6861C49.9129 27.1886 50.9724 26.9554 52.0366 27.0087C53.1009 27.0621 54.1345 27.4001 55.0398 27.9909C55.9451 28.5816 56.6921 29.4056 57.2101 30.3847C57.7281 31.3639 58 32.4659 58 33.5864C58 34.7069 57.7281 35.8088 57.2101 36.788C56.6921 37.7671 55.9451 38.5911 55.0398 39.1819C54.1345 39.7726 53.1009 40.1107 52.0366 40.164C50.9724 40.2173 49.9129 39.9842 48.9583 39.4866C48.0036 39.9848 46.9438 40.2184 45.8792 40.1653C44.8146 40.1123 43.7806 39.7744 42.8749 39.1835C41.9693 38.5927 41.222 37.7685 40.7039 36.7891C40.1857 35.8096 39.9139 34.7072 39.9141 33.5864ZM51.3932 37.2272C51.5073 37.2389 51.6233 37.2447 51.7411 37.2447C52.2119 37.2437 52.6777 37.1421 53.1101 36.9461C53.5425 36.7502 53.9325 36.464 54.2567 36.1048C54.5808 35.7456 54.8322 35.321 54.9957 34.8566C55.1592 34.3922 55.2313 33.8978 55.2077 33.4032C55.1842 32.9087 55.0654 32.4243 54.8586 31.9794C54.6518 31.5346 54.3612 31.1385 54.0046 30.8152C53.6479 30.492 53.2326 30.2482 52.7837 30.0987C52.3349 29.9492 51.8618 29.8971 51.3932 29.9455C52.074 31.0248 52.4369 32.2912 52.4368 33.5864C52.4369 34.8815 52.074 36.1479 51.3932 37.2272ZM37.7365 44.9273C37.5081 44.9267 37.2818 44.9734 37.0705 45.0648C36.8592 45.1562 36.6671 45.2905 36.5051 45.46L33.6528 48.4599V54.0733H41.4822L49.5566 51.9514L54.471 49.7447C54.6384 49.6496 54.7665 49.4928 54.8308 49.3044C54.895 49.116 54.8909 48.9094 54.8191 48.724C54.7474 48.5387 54.6131 48.3877 54.4421 48.3001C54.271 48.2124 54.0752 48.1943 53.8922 48.2492L53.8644 48.2565L44.9427 50.4149H39.9141V47.4882H44.2623C44.5852 47.4882 44.8948 47.3533 45.1232 47.1132C45.3515 46.8731 45.4797 46.5474 45.4797 46.2078C45.4797 45.8682 45.3515 45.5425 45.1232 45.3024C44.8948 45.0622 44.5852 44.9273 44.2623 44.9273H37.7365ZM48.2445 46.6131L53.1868 45.4176C53.7132 45.272 54.2643 45.2552 54.7978 45.3686C55.3313 45.4819 55.833 45.7223 56.2644 46.0713C56.6958 46.4203 57.0454 46.8686 57.2864 47.3819C57.5274 47.8951 57.6533 48.4596 57.6546 49.032C57.654 49.7269 57.4697 50.4079 57.1223 50.9989C56.7748 51.5899 56.2779 52.0677 55.6871 52.3787L55.6496 52.3992L50.4457 54.7333L41.8245 57H26V46.3907H31.6853L34.5405 43.3879C34.9612 42.947 35.4603 42.5975 36.0094 42.3595C36.5585 42.1215 37.1468 41.9995 37.7407 42.0006H44.2623C44.8201 42.0006 45.3719 42.1232 45.882 42.3607C46.3921 42.5982 46.8494 42.9452 47.2244 43.3796C47.5994 43.814 47.8839 44.3261 48.0596 44.8829C48.2352 45.4398 48.2982 46.0291 48.2445 46.6131ZM30.8699 49.3174H28.7828V54.0733H30.8699V49.3174Z" fill="white"/>
</svg>